<svg data-v-423bf9ae="" xmlns="http://www.w3.org/2000/svg" viewBox="0 0 571.7783930539828 208" class="iconAboveSlogan"><!----><!----><!----><g data-v-423bf9ae="" id="743c6e3e-a93b-4a42-940a-d2ab7945a8dc" fill="black" transform="matrix(9.553789433099393,0,0,9.553789433099393,0.03185227245592159,51.896782925206026)"><path d="M2.67 9.34L2.67 9.34L2.67 9.34Q2.75 9.40 2.75 9.50L2.75 9.50L2.75 9.50Q2.75 9.72 2.48 9.72L2.48 9.72L2.48 9.72Q1.99 9.72 1.50 9.71L1.50 9.71L1.50 9.71Q1.00 9.69 0.51 9.73L0.51 9.73L0.51 9.73Q0.12 9.75 0.04 9.52L0.04 9.52L0.04 9.52Q0 9.41 0 9.19L0 9.19L0 9.19Q0.01 9.08 0.01 8.99L0.01 8.99L0.01 8.99Q0.01 8.91 0.01 8.85L0.01 8.85L0.01 8.85Q0.02 8.70 0.03 8.53L0.03 8.53L0.03 8.53Q0.04 8.37 0.03 8.22L0.03 8.22L0.03 8.22Q0.02 7.89 0.01 7.58L0.01 7.58L0.01 7.58Q-0.01 7.27 0 6.94L0 6.94L0 6.94Q0.01 6.78 0.01 6.63L0.01 6.63L0.01 6.63Q0.02 6.47 0.02 6.31L0.02 6.31L0.02 6.31Q0.03 6.11 0.02 5.94L0.02 5.94L0.02 5.94Q0.02 5.78 0.01 5.64L0.01 5.64L0.01 5.64Q-0.01 5.46 0.18 5.42L0.18 5.42L0.18 5.42Q0.44 5.37 0.46 5.74L0.46 5.74L0.46 5.74Q0.48 5.89 0.49 6.04L0.49 6.04L0.49 6.04Q0.49 6.19 0.51 6.32L0.51 6.32L0.51 6.50L0.48 6.76L0.48 6.76Q0.46 6.87 0.45 6.98L0.45 6.98L0.45 6.98Q0.44 7.09 0.44 7.19L0.44 7.19L0.44 7.19Q0.42 7.45 0.42 7.65L0.42 7.65L0.42 7.65Q0.42 7.84 0.43 7.97L0.43 7.97L0.43 7.97Q0.44 8.13 0.45 8.31L0.45 8.31L0.45 8.31Q0.45 8.49 0.44 8.69L0.44 8.69L0.44 8.69Q0.42 8.99 0.52 9.08L0.52 9.08L0.52 9.08Q0.59 9.17 0.84 9.19L0.84 9.19L0.84 9.19Q0.96 9.21 1.08 9.21L1.08 9.21L1.08 9.21Q1.20 9.22 1.33 9.24L1.33 9.24L1.33 9.24Q1.51 9.26 1.70 9.24L1.70 9.24L1.70 9.24Q1.89 9.22 2.08 9.25L2.08 9.25L2.08 9.25Q2.21 9.26 2.38 9.27L2.38 9.27L2.38 9.27Q2.56 9.28 2.67 9.34ZM5.63 9.69L5.63 9.69L5.63 9.69Q5.49 9.65 5.35 9.58L5.35 9.58L5.35 9.58Q5.21 9.52 5.08 9.43L5.08 9.43L5.08 9.43Q4.94 9.34 4.83 9.24L4.83 9.24L4.83 9.24Q4.71 9.13 4.63 9.01L4.63 9.01L4.63 9.01Q4.52 8.84 4.47 8.66L4.47 8.66L4.47 8.66Q4.42 8.48 4.33 8.29L4.33 8.29L4.33 8.29Q4.27 8.13 4.26 7.96L4.26 7.96L4.26 7.96Q4.25 7.88 4.24 7.79L4.24 7.79L4.24 7.79Q4.23 7.70 4.23 7.62L4.23 7.62L4.23 7.62Q4.22 7.54 4.22 7.48L4.22 7.48L4.22 7.48Q4.22 7.42 4.22 7.38L4.22 7.38L4.22 7.38Q4.22 7.25 4.23 7.11L4.23 7.11L4.23 7.11Q4.25 6.97 4.29 6.82L4.29 6.82L4.29 6.82Q4.29 6.77 4.33 6.69L4.33 6.69L4.33 6.69Q4.40 6.49 4.50 6.31L4.50 6.31L4.50 6.31Q4.61 6.13 4.74 5.97L4.74 5.97L4.74 5.97Q5.01 5.67 5.49 5.43L5.49 5.43L5.49 5.43Q5.71 5.34 5.95 5.35L5.95 5.35L5.95 5.35Q6.10 5.36 6.25 5.39L6.25 5.39L6.25 5.39Q6.37 5.41 6.46 5.42L6.46 5.42L6.46 5.42Q6.56 5.43 6.62 5.44L6.62 5.44L6.62 5.44Q7.15 5.50 7.55 5.91L7.55 5.91L7.55 5.91Q7.64 6.00 7.72 6.10L7.72 6.10L7.72 6.10Q7.80 6.21 7.88 6.33L7.88 6.33L7.91 6.38L7.91 6.38Q7.92 6.41 7.92 6.42L7.92 6.42L7.92 6.42Q7.93 6.43 7.94 6.45L7.94 6.45L7.94 6.45Q8.05 6.72 8.15 7.13L8.15 7.13L8.15 7.13Q8.24 7.51 8.18 7.83L8.18 7.83L8.18 7.83Q8.13 8.02 8.07 8.19L8.07 8.19L8.07 8.19Q8.01 8.36 7.96 8.53L7.96 8.53L7.96 8.53Q7.70 9.45 6.76 9.69L6.76 9.69L6.71 9.70L6.71 9.70Q6.65 9.71 6.57 9.73L6.57 9.73L6.57 9.73Q6.49 9.74 6.38 9.75L6.38 9.75L6.38 9.75Q6.20 9.78 6.01 9.76L6.01 9.76L6.01 9.76Q5.82 9.75 5.63 9.69ZM6.32 5.78L6.32 5.78L6.32 5.78Q5.95 5.78 5.65 5.87L5.65 5.87L5.65 5.87Q5.35 5.95 5.11 6.19L5.11 6.19L5.11 6.19Q4.79 6.52 4.70 6.92L4.70 6.92L4.70 6.92Q4.61 7.32 4.70 7.81L4.70 7.81L4.76 8.15L4.76 8.15Q4.78 8.24 4.79 8.30L4.79 8.30L4.79 8.30Q4.81 8.36 4.81 8.37L4.81 8.37L4.81 8.37Q4.85 8.52 4.98 8.66L4.98 8.66L4.98 8.66Q5.10 8.80 5.20 8.90L5.20 8.90L5.20 8.90Q5.26 8.96 5.31 9.02L5.31 9.02L5.31 9.02Q5.37 9.08 5.43 9.13L5.43 9.13L5.43 9.13Q5.53 9.21 5.77 9.29L5.77 9.29L5.78 9.29L5.78 9.29Q5.91 9.32 6.07 9.31L6.07 9.31L6.07 9.31Q6.23 9.30 6.43 9.26L6.43 9.26L6.43 9.26Q6.52 9.23 6.62 9.22L6.62 9.22L6.62 9.22Q6.72 9.21 6.82 9.18L6.82 9.18L6.82 9.18Q7.08 9.12 7.25 8.91L7.25 8.91L7.25 8.91L7.25 8.90L7.25 8.90Q7.36 8.77 7.44 8.57L7.44 8.57L7.44 8.57Q7.51 8.37 7.54 8.32L7.54 8.32L7.54 8.32Q7.88 7.65 7.64 6.87L7.64 6.87L7.64 6.86L7.64 6.86Q7.61 6.79 7.58 6.72L7.58 6.72L7.58 6.72Q7.55 6.65 7.51 6.58L7.51 6.58L7.51 6.58Q7.24 6.18 6.87 6.00L6.87 6.00L6.87 6.00Q6.86 6.00 6.81 5.97L6.81 5.97L6.81 5.97Q6.76 5.94 6.67 5.89L6.67 5.89L6.67 5.89Q6.55 5.81 6.32 5.78L6.32 5.78ZM13.15 5.42L13.15 5.42L13.15 5.42Q13.36 5.41 13.36 5.63L13.36 5.63L13.36 5.63Q13.36 5.91 13.35 6.19L13.35 6.19L13.35 6.19Q13.35 6.46 13.32 6.75L13.32 6.75L13.32 6.75Q13.28 7.01 13.31 7.27L13.31 7.27L13.31 7.27Q13.34 7.53 13.34 7.79L13.34 7.79L13.34 7.84L13.32 8.31L13.32 8.31Q13.30 8.46 13.28 8.57L13.28 8.57L13.28 8.57Q13.26 8.69 13.25 8.76L13.25 8.76L13.23 8.79L13.22 8.84L13.22 8.85L13.22 8.85Q13.20 8.93 13.15 9.01L13.15 9.01L13.15 9.01Q13.09 9.10 13.03 9.18L13.03 9.18L13.03 9.18Q12.96 9.26 12.89 9.32L12.89 9.32L12.89 9.32Q12.81 9.39 12.75 9.45L12.75 9.45L12.75 9.45Q12.63 9.55 12.50 9.61L12.50 9.61L12.50 9.61Q12.36 9.67 12.21 9.70L12.21 9.70L12.21 9.70Q12.06 9.73 11.90 9.74L11.90 9.74L11.90 9.74Q11.75 9.75 11.61 9.75L11.61 9.75L11.61 9.75Q11.35 9.75 11.12 9.69L11.12 9.69L11.12 9.69Q10.88 9.63 10.65 9.50L10.65 9.50L10.65 9.50Q10.64 9.48 10.64 9.47L10.64 9.47L10.64 9.47Q10.62 9.47 10.60 9.45L10.60 9.45L10.60 9.45Q10.59 9.44 10.58 9.43L10.58 9.43L10.58 9.43Q10.55 9.41 10.54 9.40L10.54 9.40L10.54 9.40Q10.53 9.39 10.51 9.37L10.51 9.37L10.51 9.37Q10.17 9.01 10.08 8.47L10.08 8.47L10.08 8.47Q10.04 8.20 10.02 7.95L10.02 7.95L10.02 7.95Q10.01 7.69 10.02 7.44L10.02 7.44L10.02 7.44Q10.03 7.38 10.04 7.32L10.04 7.32L10.04 7.32Q10.04 7.27 10.05 7.21L10.05 7.21L10.05 7.21Q10.06 7.12 10.05 7.05L10.05 7.05L10.05 7.05Q10.05 6.97 10.04 6.90L10.04 6.90L10.04 6.90Q10.00 6.36 10.02 5.63L10.02 5.63L10.02 5.63Q10.03 5.48 10.20 5.42L10.20 5.42L10.20 5.42Q10.34 5.38 10.43 5.45L10.43 5.45L10.43 5.45Q10.49 5.50 10.49 5.57L10.49 5.57L10.49 5.57Q10.49 5.67 10.49 5.82L10.49 5.82L10.49 5.82Q10.49 5.97 10.48 6.17L10.48 6.17L10.48 6.17Q10.48 6.34 10.47 6.51L10.47 6.51L10.47 6.51Q10.45 6.68 10.45 6.84L10.45 6.84L10.45 6.84Q10.45 7.05 10.44 7.24L10.44 7.24L10.44 7.24Q10.42 7.44 10.42 7.64L10.42 7.64L10.42 7.64Q10.42 8.02 10.55 8.50L10.55 8.50L10.55 8.50Q10.56 8.56 10.58 8.61L10.58 8.61L10.58 8.61Q10.60 8.66 10.61 8.72L10.61 8.72L10.61 8.72Q10.71 9.04 10.92 9.16L10.92 9.16L10.92 9.16Q11.08 9.26 11.51 9.28L11.51 9.28L11.51 9.28Q11.57 9.29 11.62 9.30L11.62 9.30L11.62 9.30Q11.68 9.31 11.74 9.31L11.74 9.31L11.74 9.31L11.75 9.31L11.75 9.31Q12.08 9.31 12.33 9.19L12.33 9.19L12.33 9.19Q12.57 9.08 12.74 8.79L12.74 8.79L12.74 8.79Q12.88 8.56 12.88 8.08L12.88 8.08L12.88 8.08Q12.88 7.99 12.88 7.93L12.88 7.93L12.88 7.93Q12.88 7.86 12.89 7.82L12.89 7.82L12.89 7.82Q12.95 7.21 12.87 6.55L12.87 6.55L12.87 6.55Q12.86 6.46 12.89 6.22L12.89 6.22L12.89 6.22Q12.91 6.13 12.91 6.05L12.91 6.05L12.91 6.05Q12.92 5.97 12.92 5.92L12.92 5.92L12.92 5.92Q12.92 5.63 12.96 5.52L12.96 5.52L12.96 5.52Q13.02 5.42 13.15 5.42ZM15.44 9.70L15.44 9.70L15.44 9.70Q15.22 9.67 15.22 9.44L15.22 9.44L15.22 9.44Q15.21 9.07 15.21 8.72L15.21 8.72L15.21 8.72Q15.21 8.36 15.21 7.99L15.21 7.99L15.21 7.99Q15.21 7.79 15.23 7.58L15.23 7.58L15.23 7.58Q15.24 7.43 15.24 7.30L15.24 7.30L15.24 7.30Q15.24 7.17 15.24 7.06L15.24 7.06L15.24 7.06Q15.23 6.99 15.22 6.90L15.22 6.90L15.22 6.90Q15.22 6.80 15.21 6.67L15.21 6.67L15.21 6.67Q15.21 6.60 15.21 6.51L15.21 6.51L15.21 6.51Q15.22 6.41 15.22 6.28L15.22 6.28L15.22 6.28Q15.23 6.19 15.23 6.11L15.23 6.11L15.23 6.11Q15.24 6.04 15.24 5.99L15.24 5.99L15.24 5.84L15.24 5.83L15.24 5.78L15.24 5.78Q15.22 5.61 15.24 5.54L15.24 5.54L15.24 5.54Q15.26 5.49 15.33 5.44L15.33 5.44L15.33 5.44Q15.60 5.30 15.66 5.61L15.66 5.61L15.66 5.61Q15.72 5.84 15.73 6.07L15.73 6.07L15.73 6.07Q15.74 6.29 15.72 6.51L15.72 6.51L15.72 6.51L15.72 6.51Q15.70 6.73 15.71 6.94L15.71 6.94L15.71 6.94Q15.72 7.15 15.70 7.36L15.70 7.36L15.70 7.36Q15.67 7.55 15.66 7.68L15.66 7.68L15.66 7.68Q15.65 7.82 15.64 7.92L15.64 7.92L15.64 7.92Q15.63 8.05 15.63 8.20L15.63 8.20L15.63 8.20Q15.63 8.35 15.63 8.51L15.63 8.51L15.63 8.51Q15.64 8.54 15.64 8.59L15.64 8.59L15.64 8.59Q15.64 8.63 15.64 8.70L15.64 8.70L15.64 8.70Q15.64 8.80 15.64 8.91L15.64 8.91L15.64 8.91Q15.64 9.02 15.65 9.13L15.65 9.13L15.65 9.13Q15.65 9.20 15.65 9.27L15.65 9.27L15.65 9.27Q15.65 9.33 15.65 9.40L15.65 9.40L15.65 9.40Q15.65 9.54 15.64 9.55L15.64 9.55L15.64 9.55Q15.61 9.68 15.44 9.70ZM20.54 9.08L20.54 9.08L20.54 9.08Q20.42 9.23 20.31 9.34L20.31 9.34L20.31 9.34Q20.21 9.45 20.09 9.53L20.09 9.53L20.09 9.53Q19.97 9.60 19.83 9.66L19.83 9.66L19.83 9.66Q19.69 9.71 19.52 9.73L19.52 9.73L19.52 9.73Q19.43 9.74 19.33 9.74L19.33 9.74L19.33 9.74Q19.24 9.75 19.13 9.73L19.13 9.73L19.13 9.73Q18.98 9.72 18.83 9.72L18.83 9.72L18.83 9.72Q18.69 9.72 18.54 9.69L18.54 9.69L18.54 9.69Q18.21 9.61 17.99 9.46L17.99 9.46L17.99 9.46Q17.77 9.31 17.66 9.07L17.66 9.07L17.66 9.07Q17.51 8.74 17.83 8.73L17.83 8.73L17.83 8.73Q17.88 8.73 17.95 8.81L17.95 8.81L17.95 8.81Q18.03 8.89 18.07 8.93L18.07 8.93L18.07 8.93Q18.21 9.07 18.23 9.08L18.23 9.08L18.24 9.08L18.24 9.09L18.24 9.09Q18.57 9.32 19.13 9.32L19.13 9.32L19.13 9.32L19.14 9.32L19.14 9.32Q19.37 9.32 19.74 9.23L19.74 9.23L19.74 9.23Q20.09 9.14 20.21 8.87L20.21 8.87L20.21 8.87Q20.27 8.70 20.21 8.51L20.21 8.51L20.21 8.50L20.21 8.50Q20.04 8.14 19.54 8.02L19.54 8.02L18.70 7.80L18.70 7.80Q18.53 7.76 18.27 7.63L18.27 7.63L18.27 7.63Q18.14 7.56 18.05 7.51L18.05 7.51L18.05 7.51Q17.95 7.45 17.89 7.40L17.89 7.40L17.89 7.40Q17.61 7.19 17.56 6.99L17.56 6.99L17.56 6.99Q17.55 6.95 17.55 6.89L17.55 6.89L17.55 6.89Q17.55 6.83 17.55 6.74L17.55 6.74L17.55 6.74Q17.55 6.64 17.57 6.55L17.57 6.55L17.57 6.55Q17.58 6.46 17.60 6.36L17.60 6.36L17.60 6.36Q17.64 6.04 17.86 5.80L17.86 5.80L17.86 5.80Q17.96 5.69 18.11 5.62L18.11 5.62L18.11 5.62Q18.26 5.55 18.40 5.49L18.40 5.49L18.40 5.49Q18.59 5.40 18.80 5.40L18.80 5.40L18.80 5.40Q19.00 5.39 19.21 5.40L19.21 5.40L19.21 5.40Q19.88 5.42 20.25 5.87L20.25 5.87L20.25 5.87Q20.43 6.08 20.38 6.22L20.38 6.22L20.34 6.26L20.34 6.26Q20.23 6.32 20.08 6.19L20.08 6.19L20.08 6.19Q20.04 6.16 20.00 6.13L20.00 6.13L20.00 6.13Q19.97 6.09 19.93 6.06L19.93 6.06L19.93 6.06Q19.90 6.02 19.84 5.98L19.84 5.98L19.84 5.98Q19.79 5.95 19.72 5.91L19.72 5.91L19.71 5.90L19.69 5.90L19.69 5.90Q19.43 5.82 19.17 5.81L19.17 5.81L19.17 5.81Q18.91 5.80 18.63 5.86L18.63 5.86L18.63 5.86Q18.29 5.93 18.12 6.14L18.12 6.14L18.12 6.14Q17.94 6.34 17.94 6.67L17.94 6.67L17.94 6.69L17.94 6.70L17.94 6.70Q17.97 7.12 18.60 7.30L18.60 7.30L18.80 7.36L19.30 7.53L19.30 7.53Q19.42 7.57 19.54 7.62L19.54 7.62L19.54 7.62Q19.65 7.67 19.78 7.72L19.78 7.72L19.78 7.72Q19.97 7.81 20.14 7.90L20.14 7.90L20.14 7.90Q20.30 7.98 20.44 8.07L20.44 8.07L20.44 8.07Q20.54 8.13 20.59 8.22L20.59 8.22L20.59 8.22Q20.64 8.31 20.65 8.41L20.65 8.41L20.65 8.41Q20.67 8.51 20.67 8.62L20.67 8.62L20.67 8.62Q20.67 8.73 20.64 8.82L20.64 8.82L20.64 8.82Q20.63 8.89 20.60 8.96L20.60 8.96L20.60 8.96Q20.57 9.03 20.54 9.08ZM28.59 9.26L28.59 9.26L28.59 9.26Q28.08 9.71 27.37 9.75L27.37 9.75L27.37 9.75Q26.68 9.78 26.07 9.53L26.07 9.53L26.06 9.52L26.04 9.52L26.04 9.52Q25.94 9.49 25.75 9.33L25.75 9.33L25.75 9.33Q25.57 9.17 25.50 9.08L25.50 9.08L25.50 9.08Q25.40 8.95 25.32 8.78L25.32 8.78L25.32 8.78Q25.25 8.61 25.16 8.45L25.16 8.45L25.16 8.45Q25.01 8.16 25.00 7.95L25.00 7.95L25.00 7.95Q24.99 7.85 25.00 7.71L25.00 7.71L25.00 7.71Q25.00 7.58 25.01 7.41L25.01 7.41L25.01 7.41Q25.07 6.66 25.48 6.02L25.48 6.02L25.48 6.02Q25.52 5.97 25.61 5.89L25.61 5.89L25.61 5.89Q25.71 5.81 25.86 5.73L25.86 5.73L25.86 5.73Q26.17 5.56 26.39 5.49L26.39 5.49L26.39 5.49Q26.54 5.44 26.71 5.42L26.71 5.42L26.71 5.42Q27.13 5.37 27.56 5.42L27.56 5.42L27.56 5.42Q27.99 5.48 28.36 5.69L28.36 5.69L28.36 5.69Q28.41 5.72 28.48 5.77L28.48 5.77L28.48 5.77Q28.54 5.82 28.63 5.89L28.63 5.89L28.63 5.89Q28.80 6.02 28.82 6.15L28.82 6.15L28.82 6.15Q28.83 6.21 28.78 6.27L28.78 6.27L28.78 6.27Q28.70 6.36 28.64 6.36L28.64 6.36L28.64 6.36Q28.55 6.36 28.46 6.30L28.46 6.30L28.46 6.30Q28.36 6.23 28.31 6.19L28.31 6.19L28.31 6.19Q28.19 6.12 28.12 6.07L28.12 6.07L28.12 6.07Q28.05 6.02 28.03 6.01L28.03 6.01L28.03 6.01Q27.69 5.82 27.19 5.82L27.19 5.82L27.19 5.82Q27.07 5.82 26.93 5.83L26.93 5.83L26.93 5.83Q26.80 5.84 26.64 5.87L26.64 5.87L26.63 5.87L26.61 5.88L26.61 5.88Q25.74 6.13 25.48 7.06L25.48 7.06L25.48 7.06Q25.40 7.40 25.45 7.70L25.45 7.70L25.45 7.70Q25.50 8.00 25.58 8.31L25.58 8.31L25.58 8.31Q25.71 8.79 26.01 9.00L26.01 9.00L26.01 9.00Q26.31 9.21 26.77 9.30L26.77 9.30L26.78 9.30L26.78 9.30Q26.90 9.32 27.01 9.32L27.01 9.32L27.01 9.32Q27.11 9.32 27.21 9.30L27.21 9.30L27.21 9.30Q27.32 9.28 27.42 9.26L27.42 9.26L27.42 9.26Q27.53 9.24 27.65 9.23L27.65 9.23L27.65 9.23Q28.14 9.17 28.34 8.88L28.34 8.88L28.34 8.87L28.34 8.87Q28.49 8.64 28.46 8.22L28.46 8.22L28.46 8.22Q28.46 8.00 28.31 7.87L28.31 7.87L28.31 7.87Q28.12 7.70 27.79 7.71L27.79 7.71L27.25 7.73L27.25 7.73Q27.16 7.74 27.09 7.74L27.09 7.74L27.09 7.74Q27.02 7.75 26.97 7.75L26.97 7.75L26.97 7.75Q26.71 7.71 26.74 7.51L26.74 7.51L26.74 7.51Q26.76 7.38 26.93 7.33L26.93 7.33L26.93 7.33Q27.24 7.31 27.54 7.33L27.54 7.33L27.54 7.33Q27.84 7.35 28.15 7.33L28.15 7.33L28.44 7.31L28.44 7.31Q28.64 7.29 28.74 7.38L28.74 7.38L28.74 7.38Q28.85 7.46 28.85 7.66L28.85 7.66L28.85 7.66Q28.88 7.87 28.88 7.98L28.88 7.98L28.88 7.98Q28.88 8.16 28.88 8.36L28.88 8.36L28.88 8.36Q28.89 8.57 28.85 8.74L28.85 8.74L28.85 8.74Q28.81 9.00 28.59 9.26ZM33.41 5.68L33.41 5.68L33.41 5.68Q33.58 5.82 33.69 6.01L33.69 6.01L33.69 6.01Q33.79 6.19 33.83 6.42L33.83 6.42L33.83 6.42Q33.92 6.87 33.53 7.18L33.53 7.18L33.53 7.18Q33.42 7.27 33.26 7.35L33.26 7.35L33.26 7.35Q33.10 7.43 32.89 7.52L32.89 7.52L32.89 7.52Q32.76 7.59 32.73 7.67L32.73 7.67L32.73 7.67Q32.70 7.73 32.81 7.94L32.81 7.94L32.81 7.94Q32.87 8.05 32.94 8.16L32.94 8.16L32.94 8.16Q33.01 8.26 33.07 8.36L33.07 8.36L33.07 8.36Q33.16 8.52 33.24 8.66L33.24 8.66L33.24 8.66Q33.31 8.80 33.39 8.91L33.39 8.91L33.39 8.91Q33.46 9.03 33.55 9.16L33.55 9.16L33.55 9.16Q33.65 9.29 33.76 9.45L33.76 9.45L33.76 9.45Q33.94 9.68 34.12 9.89L34.12 9.89L34.12 9.89Q34.30 10.10 34.50 10.29L34.50 10.29L34.50 10.29Q34.75 10.53 35.14 10.83L35.14 10.83L35.14 10.83Q35.53 11.12 35.90 11.20L35.90 11.20L35.90 11.20Q35.94 11.20 36.00 11.21L36.00 11.21L36.00 11.21Q36.07 11.21 36.16 11.21L36.16 11.21L36.16 11.21Q36.36 11.21 36.45 11.25L36.45 11.25L36.45 11.25Q36.50 11.25 36.56 11.34L36.56 11.34L36.56 11.34Q36.71 11.58 36.39 11.62L36.39 11.62L36.39 11.62Q35.79 11.68 35.21 11.35L35.21 11.35L35.21 11.35Q34.92 11.18 34.67 11.00L34.67 11.00L34.67 11.00Q34.43 10.81 34.23 10.62L34.23 10.62L34.19 10.58L34.19 10.58Q34.07 10.46 33.96 10.35L33.96 10.35L33.96 10.35Q33.86 10.23 33.77 10.12L33.77 10.12L33.77 10.12Q33.54 9.84 33.40 9.63L33.40 9.63L33.40 9.63Q33.29 9.46 33.16 9.31L33.16 9.31L33.16 9.31Q33.04 9.16 32.94 9.00L32.94 9.00L32.94 9.00Q32.78 8.74 32.62 8.47L32.62 8.47L32.62 8.47Q32.46 8.20 32.28 7.90L32.28 7.90L32.28 7.90Q32.17 7.71 31.90 7.58L31.90 7.58L31.90 7.58Q31.64 7.46 31.43 7.54L31.43 7.54L31.43 7.54Q31.09 7.68 31.09 8.13L31.09 8.13L31.09 8.13Q31.09 8.37 31.08 8.60L31.08 8.60L31.08 8.60Q31.07 8.83 31.07 9.05L31.07 9.05L31.07 9.49L31.07 9.49Q31.07 9.70 30.86 9.70L30.86 9.70L30.86 9.70Q30.64 9.70 30.64 9.49L30.64 9.49L30.64 9.49Q30.64 9.13 30.65 8.80L30.65 8.80L30.65 8.80Q30.65 8.48 30.67 8.18L30.67 8.18L30.67 8.18Q30.68 7.93 30.66 7.68L30.66 7.68L30.66 7.68Q30.64 7.42 30.64 7.17L30.64 7.17L30.64 7.17Q30.64 6.92 30.65 6.67L30.65 6.67L30.65 6.67Q30.66 6.41 30.67 6.15L30.67 6.15L30.69 5.76L30.69 5.76Q30.70 5.59 30.72 5.54L30.72 5.54L30.72 5.54Q30.75 5.49 30.83 5.46L30.83 5.46L30.83 5.46Q30.92 5.43 31.06 5.41L31.06 5.41L31.06 5.41Q31.19 5.40 31.28 5.39L31.28 5.39L31.28 5.39Q31.38 5.39 31.46 5.39L31.46 5.39L31.46 5.39Q31.54 5.38 31.64 5.38L31.64 5.38L31.64 5.38Q31.74 5.39 31.86 5.40L31.86 5.40L31.86 5.40Q31.92 5.41 31.97 5.41L31.97 5.41L31.97 5.41Q32.02 5.41 32.05 5.41L32.05 5.41L32.05 5.41Q32.25 5.43 32.44 5.42L32.44 5.42L32.44 5.42Q32.63 5.42 32.82 5.46L32.82 5.46L32.82 5.46Q33.02 5.49 33.16 5.55L33.16 5.55L33.16 5.55Q33.31 5.61 33.41 5.68ZM31.46 7.16L31.46 7.16L31.46 7.16Q31.67 7.17 31.86 7.17L31.86 7.17L31.86 7.17Q32.05 7.17 32.23 7.16L32.23 7.16L32.23 7.16Q32.35 7.14 32.51 7.12L32.51 7.12L32.51 7.12Q32.66 7.10 32.85 7.06L32.85 7.06L32.85 7.06Q33.24 6.99 33.35 6.71L33.35 6.71L33.35 6.71Q33.41 6.56 33.35 6.36L33.35 6.36L33.35 6.36Q33.17 5.93 32.68 5.86L32.68 5.86L32.68 5.86Q32.40 5.82 32.10 5.83L32.10 5.83L32.10 5.83Q31.80 5.84 31.51 5.84L31.51 5.84L31.51 5.84Q31.36 5.85 31.28 5.87L31.28 5.87L31.28 5.87Q31.20 5.89 31.17 5.92L31.17 5.92L31.17 5.92Q31.11 5.98 31.12 6.23L31.12 6.23L31.12 6.23Q31.14 6.40 31.11 6.57L31.11 6.57L31.11 6.57Q31.08 6.74 31.08 6.90L31.08 6.90L31.08 6.90Q31.06 7.03 31.15 7.11L31.15 7.11L31.15 7.11Q31.21 7.16 31.46 7.16ZM39.25 5.42L39.25 5.42L39.25 5.42Q39.46 5.41 39.46 5.63L39.46 5.63L39.46 5.63Q39.46 5.91 39.45 6.19L39.45 6.19L39.45 6.19Q39.45 6.46 39.42 6.75L39.42 6.75L39.42 6.75Q39.38 7.01 39.41 7.27L39.41 7.27L39.41 7.27Q39.44 7.53 39.44 7.79L39.44 7.79L39.44 7.84L39.42 8.31L39.42 8.31Q39.40 8.46 39.38 8.57L39.38 8.57L39.38 8.57Q39.36 8.69 39.35 8.76L39.35 8.76L39.33 8.79L39.32 8.84L39.32 8.85L39.32 8.85Q39.30 8.93 39.25 9.01L39.25 9.01L39.25 9.01Q39.19 9.10 39.13 9.18L39.13 9.18L39.13 9.18Q39.06 9.26 38.99 9.32L38.99 9.32L38.99 9.32Q38.91 9.39 38.85 9.45L38.85 9.45L38.85 9.45Q38.73 9.55 38.60 9.61L38.60 9.61L38.60 9.61Q38.46 9.67 38.31 9.70L38.31 9.70L38.31 9.70Q38.16 9.73 38.00 9.74L38.00 9.74L38.00 9.74Q37.85 9.75 37.71 9.75L37.71 9.75L37.71 9.75Q37.45 9.75 37.21 9.69L37.21 9.69L37.21 9.69Q36.98 9.63 36.75 9.50L36.75 9.50L36.75 9.50Q36.74 9.48 36.74 9.47L36.74 9.47L36.74 9.47Q36.72 9.47 36.70 9.45L36.70 9.45L36.70 9.45Q36.69 9.44 36.67 9.43L36.67 9.43L36.67 9.43Q36.65 9.41 36.64 9.40L36.64 9.40L36.64 9.40Q36.63 9.39 36.61 9.37L36.61 9.37L36.61 9.37Q36.27 9.01 36.18 8.47L36.18 8.47L36.18 8.47Q36.13 8.20 36.12 7.95L36.12 7.95L36.12 7.95Q36.11 7.69 36.12 7.44L36.12 7.44L36.12 7.44Q36.13 7.38 36.13 7.32L36.13 7.32L36.13 7.32Q36.14 7.27 36.15 7.21L36.15 7.21L36.15 7.21Q36.16 7.12 36.15 7.05L36.15 7.05L36.15 7.05Q36.15 6.97 36.14 6.90L36.14 6.90L36.14 6.90Q36.10 6.36 36.12 5.63L36.12 5.63L36.12 5.63Q36.13 5.48 36.30 5.42L36.30 5.42L36.30 5.42Q36.44 5.38 36.53 5.45L36.53 5.45L36.53 5.45Q36.59 5.50 36.59 5.57L36.59 5.57L36.59 5.57Q36.59 5.67 36.59 5.82L36.59 5.82L36.59 5.82Q36.59 5.97 36.58 6.17L36.58 6.17L36.58 6.17Q36.58 6.34 36.57 6.51L36.57 6.51L36.57 6.51Q36.55 6.68 36.55 6.84L36.55 6.84L36.55 6.84Q36.55 7.05 36.54 7.24L36.54 7.24L36.54 7.24Q36.52 7.44 36.52 7.64L36.52 7.64L36.52 7.64Q36.52 8.02 36.65 8.50L36.65 8.50L36.65 8.50Q36.66 8.56 36.68 8.61L36.68 8.61L36.68 8.61Q36.70 8.66 36.71 8.72L36.71 8.72L36.71 8.72Q36.81 9.04 37.02 9.16L37.02 9.16L37.02 9.16Q37.18 9.26 37.61 9.28L37.61 9.28L37.61 9.28Q37.67 9.29 37.72 9.30L37.72 9.30L37.72 9.30Q37.78 9.31 37.84 9.31L37.84 9.31L37.84 9.31L37.85 9.31L37.85 9.31Q38.18 9.31 38.42 9.19L38.42 9.19L38.42 9.19Q38.67 9.08 38.84 8.79L38.84 8.79L38.84 8.79Q38.98 8.56 38.98 8.08L38.98 8.08L38.98 8.08Q38.98 7.99 38.98 7.93L38.98 7.93L38.98 7.93Q38.98 7.86 38.99 7.82L38.99 7.82L38.99 7.82Q39.05 7.21 38.97 6.55L38.97 6.55L38.97 6.55Q38.96 6.46 38.99 6.22L38.99 6.22L38.99 6.22Q39.01 6.13 39.01 6.05L39.01 6.05L39.01 6.05Q39.02 5.97 39.02 5.92L39.02 5.92L39.02 5.92Q39.02 5.63 39.06 5.52L39.06 5.52L39.06 5.52Q39.12 5.42 39.25 5.42ZM41.31 9.29L41.31 9.29L41.31 9.29Q41.30 8.87 41.31 8.46L41.31 8.46L41.31 8.46Q41.31 8.04 41.31 7.62L41.31 7.62L41.31 7.38L41.31 7.38Q41.31 7.20 41.30 7.01L41.30 7.01L41.30 7.01Q41.29 6.82 41.30 6.64L41.30 6.64L41.30 6.64Q41.31 6.43 41.31 6.23L41.31 6.23L41.31 6.23Q41.31 6.03 41.32 5.82L41.32 5.82L41.32 5.82Q41.32 5.58 41.43 5.48L41.43 5.48L41.43 5.48Q41.52 5.41 41.75 5.41L41.75 5.41L41.75 5.41Q41.86 5.41 41.95 5.40L41.95 5.40L41.95 5.40Q42.03 5.40 42.10 5.40L42.10 5.40L42.10 5.40Q42.36 5.39 42.63 5.40L42.63 5.40L42.63 5.40Q42.90 5.41 43.16 5.41L43.16 5.41L43.16 5.41Q43.31 5.40 43.45 5.40L43.45 5.40L43.45 5.40Q43.59 5.39 43.73 5.41L43.73 5.41L44.08 5.43L44.08 5.43Q44.14 5.43 44.18 5.43L44.18 5.43L44.18 5.43Q44.23 5.43 44.26 5.45L44.26 5.45L44.26 5.45Q44.41 5.52 44.40 5.66L44.40 5.66L44.40 5.66Q44.39 5.72 44.35 5.76L44.35 5.76L44.35 5.76Q44.31 5.80 44.26 5.82L44.26 5.82L44.26 5.82Q44.21 5.84 44.15 5.84L44.15 5.84L44.15 5.84Q44.10 5.85 44.06 5.85L44.06 5.85L44.06 5.85Q43.64 5.85 43.23 5.83L43.23 5.83L43.23 5.83Q43.19 5.82 43.13 5.82L43.13 5.82L43.13 5.82Q43.07 5.82 42.99 5.82L42.99 5.82L42.59 5.82L42.59 5.82Q42.44 5.82 42.31 5.83L42.31 5.83L42.31 5.83Q42.19 5.83 42.11 5.83L42.11 5.83L42.11 5.83Q41.99 5.84 41.92 5.86L41.92 5.86L41.92 5.86Q41.84 5.89 41.81 5.94L41.81 5.94L41.81 5.94Q41.75 6.02 41.77 6.15L41.77 6.15L41.77 6.15Q41.77 6.20 41.77 6.24L41.77 6.24L41.77 6.24Q41.77 6.28 41.76 6.32L41.76 6.32L41.76 6.32Q41.75 6.40 41.74 6.49L41.74 6.49L41.74 6.49Q41.73 6.58 41.74 6.69L41.74 6.69L41.74 6.69Q41.74 6.88 41.89 7.01L41.89 7.01L41.89 7.01Q42.01 7.12 42.33 7.10L42.33 7.10L42.33 7.10Q42.48 7.10 42.62 7.08L42.62 7.08L42.62 7.08Q42.76 7.06 42.90 7.07L42.90 7.07L42.90 7.07Q42.96 7.07 43.06 7.07L43.06 7.07L43.06 7.07Q43.16 7.08 43.30 7.07L43.30 7.07L43.30 7.07Q43.57 7.06 43.67 7.16L43.67 7.16L43.67 7.16Q43.70 7.21 43.70 7.32L43.70 7.32L43.70 7.32Q43.67 7.44 43.50 7.47L43.50 7.47L43.50 7.47Q43.35 7.50 43.25 7.50L43.25 7.50L43.25 7.50Q43.13 7.51 43.01 7.50L43.01 7.50L43.01 7.50Q42.89 7.50 42.77 7.51L42.77 7.51L42.77 7.51Q42.62 7.52 42.46 7.51L42.46 7.51L42.46 7.51Q42.30 7.51 42.13 7.49L42.13 7.49L42.13 7.49Q42.11 7.49 42.08 7.49L42.08 7.49L42.08 7.49Q42.05 7.49 42.03 7.49L42.03 7.49L42.03 7.49L42.03 7.49Q41.95 7.47 41.88 7.52L41.88 7.52L41.88 7.52Q41.75 7.59 41.74 7.78L41.74 7.78L41.74 7.78Q41.73 7.96 41.74 8.09L41.74 8.09L41.74 8.09Q41.75 8.16 41.75 8.22L41.75 8.22L41.75 8.22Q41.75 8.29 41.75 8.33L41.75 8.33L41.75 8.33Q41.73 8.44 41.72 8.53L41.72 8.53L41.72 8.53Q41.71 8.63 41.70 8.74L41.70 8.74L41.70 8.74Q41.68 9.00 41.77 9.13L41.77 9.13L41.77 9.13Q41.88 9.28 42.17 9.28L42.17 9.28L42.17 9.28Q42.40 9.28 42.63 9.27L42.63 9.27L42.63 9.27Q42.86 9.26 43.09 9.25L43.09 9.25L43.09 9.25Q43.31 9.24 43.53 9.26L43.53 9.26L43.53 9.26Q43.75 9.28 43.97 9.28L43.97 9.28L43.97 9.28Q44.05 9.28 44.19 9.28L44.19 9.28L44.19 9.28Q44.32 9.28 44.40 9.32L44.40 9.32L44.40 9.32Q44.47 9.36 44.47 9.44L44.47 9.44L44.47 9.44Q44.55 9.69 44.26 9.70L44.26 9.70L44.26 9.70Q43.81 9.72 43.38 9.71L43.38 9.71L43.38 9.71Q42.94 9.71 42.51 9.71L42.51 9.71L42.51 9.71Q42.48 9.71 42.45 9.72L42.45 9.72L42.45 9.72Q42.43 9.72 42.41 9.72L42.41 9.72L42.41 9.72Q42.25 9.72 42.14 9.72L42.14 9.72L42.14 9.72Q42.03 9.72 41.95 9.71L41.95 9.71L41.95 9.71Q41.90 9.71 41.84 9.71L41.84 9.71L41.84 9.71Q41.77 9.71 41.69 9.70L41.69 9.70L41.69 9.70Q41.62 9.69 41.58 9.69L41.58 9.69L41.58 9.69Q41.54 9.68 41.51 9.67L41.51 9.67L41.51 9.67Q41.31 9.61 41.31 9.29ZM49.58 5.56L49.58 5.56L49.58 5.56Q49.65 5.54 49.81 5.58L49.81 5.58L49.81 5.58Q49.96 5.62 50.00 5.68L50.00 5.68L50.00 5.68Q50.00 5.69 50.00 5.69L50.00 5.69L50.00 5.69Q50.03 5.89 50.03 6.28L50.03 6.28L50.03 6.79L50.03 6.79Q50.03 7 50.04 7.19L50.04 7.19L50.04 7.19Q50.05 7.38 50.03 7.58L50.03 7.58L50.03 7.58Q50.02 7.78 50.00 7.97L50.00 7.97L50.00 7.97Q49.99 8.16 50.00 8.35L50.00 8.35L50.00 8.35Q50.01 8.52 50.03 8.68L50.03 8.68L50.03 8.68Q50.04 8.84 50.03 9.00L50.03 9.00L50.00 9.32L50.00 9.32Q49.99 9.55 49.96 9.60L49.96 9.60L49.96 9.60Q49.88 9.71 49.79 9.71L49.79 9.71L49.79 9.71Q49.56 9.69 49.55 9.39L49.55 9.39L49.55 9.39Q49.53 8.95 49.56 8.51L49.56 8.51L49.56 8.51Q49.58 8.07 49.55 7.62L49.55 7.62L49.53 7.32L49.53 7.32Q49.51 7.10 49.34 7.08L49.34 7.08L49.34 7.08Q49.27 7.08 49.23 7.10L49.23 7.10L49.23 7.10Q49.18 7.13 49.14 7.18L49.14 7.18L49.14 7.18Q49.11 7.23 49.09 7.28L49.09 7.28L49.09 7.28Q49.07 7.34 49.05 7.39L49.05 7.39L49.05 7.39Q48.99 7.53 48.95 7.64L48.95 7.64L48.95 7.64Q48.90 7.75 48.87 7.83L48.87 7.83L48.87 7.83Q48.81 7.97 48.72 8.12L48.72 8.12L48.72 8.12Q48.63 8.26 48.56 8.40L48.56 8.40L48.56 8.40Q48.48 8.55 48.41 8.69L48.41 8.69L48.41 8.69Q48.34 8.82 48.27 8.96L48.27 8.96L48.27 8.96Q48.22 9.04 48.02 9.03L48.02 9.03L48.02 9.03Q47.87 9.03 47.80 8.95L47.80 8.95L47.80 8.95Q47.75 8.89 47.69 8.77L47.69 8.77L47.69 8.77Q47.63 8.66 47.56 8.49L47.56 8.49L47.56 8.49Q47.50 8.37 47.46 8.29L47.46 8.29L47.46 8.29Q47.41 8.20 47.38 8.15L47.38 8.15L47.38 8.15Q47.35 8.10 47.30 8.00L47.30 8.00L47.30 8.00Q47.25 7.90 47.17 7.74L47.17 7.74L46.99 7.35L46.99 7.35Q46.96 7.28 46.93 7.25L46.93 7.25L46.93 7.25Q46.91 7.21 46.90 7.20L46.90 7.20L46.90 7.20Q46.80 7.07 46.67 7.10L46.67 7.10L46.67 7.10Q46.50 7.12 46.50 7.40L46.50 7.40L46.50 7.40Q46.50 7.84 46.50 8.23L46.50 8.23L46.50 8.23Q46.51 8.61 46.53 8.96L46.53 8.96L46.53 8.96Q46.53 9.01 46.53 9.10L46.53 9.10L46.53 9.10Q46.53 9.18 46.52 9.30L46.52 9.30L46.52 9.30Q46.50 9.55 46.46 9.61L46.46 9.61L46.46 9.61Q46.40 9.71 46.26 9.70L46.26 9.70L46.26 9.70Q46.07 9.69 46.07 9.43L46.07 9.43L46.07 9.43Q46.07 9.13 46.06 8.82L46.06 8.82L46.06 8.82Q46.05 8.51 46.05 8.18L46.05 8.18L46.05 8.18Q46.04 8.03 46.04 7.90L46.04 7.90L46.04 7.90Q46.05 7.77 46.06 7.68L46.06 7.68L46.06 7.68Q46.08 7.51 46.08 7.38L46.08 7.38L46.08 7.38Q46.09 7.25 46.08 7.16L46.08 7.16L46.08 7.16Q46.07 7.05 46.06 6.93L46.06 6.93L46.06 6.93Q46.05 6.80 46.03 6.66L46.03 6.66L46.03 6.66Q46.01 6.46 46.03 6.18L46.03 6.18L46.03 6.18Q46.06 5.89 46.12 5.70L46.12 5.70L46.12 5.70Q46.14 5.62 46.16 5.58L46.16 5.58L46.16 5.58Q46.35 5.38 46.53 5.63L46.53 5.63L46.53 5.63Q46.61 5.73 46.68 5.84L46.68 5.84L46.68 5.84Q46.74 5.95 46.82 6.06L46.82 6.06L46.82 6.06Q46.93 6.22 47.01 6.41L47.01 6.41L47.01 6.41Q47.09 6.60 47.17 6.77L47.17 6.77L47.17 6.77Q47.26 6.95 47.32 7.09L47.32 7.09L47.32 7.09Q47.39 7.22 47.44 7.30L47.44 7.30L47.47 7.34L47.47 7.34Q47.54 7.46 47.60 7.58L47.60 7.58L47.60 7.58Q47.65 7.70 47.71 7.81L47.71 7.81L47.71 7.81Q47.86 8.13 48.02 8.14L48.02 8.14L48.02 8.14Q48.17 8.14 48.24 8.00L48.24 8.00L48.24 8.00Q48.28 7.93 48.31 7.86L48.31 7.86L48.31 7.86Q48.34 7.79 48.36 7.73L48.36 7.73L48.36 7.73Q48.41 7.62 48.47 7.49L48.47 7.49L48.47 7.49Q48.54 7.36 48.61 7.23L48.61 7.23L48.61 7.23Q48.75 6.99 48.90 6.75L48.90 6.75L48.90 6.75Q49.05 6.51 49.18 6.24L49.18 6.24L49.18 6.24Q49.21 6.16 49.27 6.06L49.27 6.06L49.27 6.06Q49.32 5.97 49.38 5.87L49.38 5.87L49.51 5.67L49.51 5.67Q49.52 5.65 49.54 5.63L49.54 5.63L49.54 5.63Q49.55 5.60 49.58 5.56ZM51.92 9.29L51.92 9.29L51.92 9.29Q51.91 8.87 51.92 8.46L51.92 8.46L51.92 8.46Q51.92 8.04 51.92 7.62L51.92 7.62L51.92 7.38L51.92 7.38Q51.92 7.20 51.91 7.01L51.91 7.01L51.91 7.01Q51.90 6.82 51.91 6.64L51.91 6.64L51.91 6.64Q51.92 6.43 51.92 6.23L51.92 6.23L51.92 6.23Q51.92 6.03 51.93 5.82L51.93 5.82L51.93 5.82Q51.93 5.58 52.04 5.48L52.04 5.48L52.04 5.48Q52.13 5.41 52.36 5.41L52.36 5.41L52.36 5.41Q52.47 5.41 52.56 5.40L52.56 5.40L52.56 5.40Q52.64 5.40 52.71 5.40L52.71 5.40L52.71 5.40Q52.97 5.39 53.24 5.40L53.24 5.40L53.24 5.40Q53.50 5.41 53.77 5.41L53.77 5.41L53.77 5.41Q53.92 5.40 54.06 5.40L54.06 5.40L54.06 5.40Q54.20 5.39 54.34 5.41L54.34 5.41L54.69 5.43L54.69 5.43Q54.75 5.43 54.79 5.43L54.79 5.43L54.79 5.43Q54.84 5.43 54.87 5.45L54.87 5.45L54.87 5.45Q55.02 5.52 55.01 5.66L55.01 5.66L55.01 5.66Q55.00 5.72 54.96 5.76L54.96 5.76L54.96 5.76Q54.92 5.80 54.87 5.82L54.87 5.82L54.87 5.82Q54.82 5.84 54.76 5.84L54.76 5.84L54.76 5.84Q54.71 5.85 54.67 5.85L54.67 5.85L54.67 5.85Q54.25 5.85 53.84 5.83L53.84 5.83L53.84 5.83Q53.80 5.82 53.74 5.82L53.74 5.82L53.74 5.82Q53.68 5.82 53.60 5.82L53.60 5.82L53.20 5.82L53.20 5.82Q53.05 5.82 52.92 5.83L52.92 5.83L52.92 5.83Q52.80 5.83 52.72 5.83L52.72 5.83L52.72 5.83Q52.60 5.84 52.53 5.86L52.53 5.86L52.53 5.86Q52.45 5.89 52.42 5.94L52.42 5.94L52.42 5.94Q52.36 6.02 52.38 6.15L52.38 6.15L52.38 6.15Q52.38 6.20 52.38 6.24L52.38 6.24L52.38 6.24Q52.38 6.28 52.37 6.32L52.37 6.32L52.37 6.32Q52.36 6.40 52.35 6.49L52.35 6.49L52.35 6.49Q52.34 6.58 52.35 6.69L52.35 6.69L52.35 6.69Q52.35 6.88 52.50 7.01L52.50 7.01L52.50 7.01Q52.62 7.12 52.94 7.10L52.94 7.10L52.94 7.10Q53.09 7.10 53.23 7.08L53.23 7.08L53.23 7.08Q53.37 7.06 53.51 7.07L53.51 7.07L53.51 7.07Q53.57 7.07 53.67 7.07L53.67 7.07L53.67 7.07Q53.77 7.08 53.91 7.07L53.91 7.07L53.91 7.07Q54.18 7.06 54.28 7.16L54.28 7.16L54.28 7.16Q54.31 7.21 54.30 7.32L54.30 7.32L54.30 7.32Q54.28 7.44 54.11 7.47L54.11 7.47L54.11 7.47Q53.96 7.50 53.86 7.50L53.86 7.50L53.86 7.50Q53.74 7.51 53.62 7.50L53.62 7.50L53.62 7.50Q53.50 7.50 53.38 7.51L53.38 7.51L53.38 7.51Q53.22 7.52 53.07 7.51L53.07 7.51L53.07 7.51Q52.91 7.51 52.74 7.49L52.74 7.49L52.74 7.49Q52.72 7.49 52.69 7.49L52.69 7.49L52.69 7.49Q52.66 7.49 52.64 7.49L52.64 7.49L52.64 7.49L52.64 7.49Q52.56 7.47 52.49 7.52L52.49 7.52L52.49 7.52Q52.36 7.59 52.35 7.78L52.35 7.78L52.35 7.78Q52.34 7.96 52.35 8.09L52.35 8.09L52.35 8.09Q52.36 8.16 52.36 8.22L52.36 8.22L52.36 8.22Q52.36 8.29 52.36 8.33L52.36 8.33L52.36 8.33Q52.34 8.44 52.33 8.53L52.33 8.53L52.33 8.53Q52.32 8.63 52.31 8.74L52.31 8.74L52.31 8.74Q52.29 9.00 52.38 9.13L52.38 9.13L52.38 9.13Q52.49 9.28 52.78 9.28L52.78 9.28L52.78 9.28Q53.01 9.28 53.24 9.27L53.24 9.27L53.24 9.27Q53.47 9.26 53.70 9.25L53.70 9.25L53.70 9.25Q53.92 9.24 54.14 9.26L54.14 9.26L54.14 9.26Q54.36 9.28 54.58 9.28L54.58 9.28L54.58 9.28Q54.66 9.28 54.80 9.28L54.80 9.28L54.80 9.28Q54.93 9.28 55.01 9.32L55.01 9.32L55.01 9.32Q55.08 9.36 55.08 9.44L55.08 9.44L55.08 9.44Q55.16 9.69 54.87 9.70L54.87 9.70L54.87 9.70Q54.42 9.72 53.99 9.71L53.99 9.71L53.99 9.71Q53.55 9.71 53.12 9.71L53.12 9.71L53.12 9.71Q53.09 9.71 53.06 9.72L53.06 9.72L53.06 9.72Q53.04 9.72 53.02 9.72L53.02 9.72L53.02 9.72Q52.86 9.72 52.75 9.72L52.75 9.72L52.75 9.72Q52.64 9.72 52.56 9.71L52.56 9.71L52.56 9.71Q52.51 9.71 52.45 9.71L52.45 9.71L52.45 9.71Q52.38 9.71 52.30 9.70L52.30 9.70L52.30 9.70Q52.23 9.69 52.19 9.69L52.19 9.69L52.19 9.69Q52.14 9.68 52.12 9.67L52.12 9.67L52.12 9.67Q51.92 9.61 51.92 9.29ZM59.33 5.67L59.33 5.67L59.33 5.67Q59.47 5.82 59.56 5.99L59.56 5.99L59.56 5.99Q59.64 6.16 59.73 6.34L59.73 6.34L59.73 6.34Q59.83 6.54 59.79 6.74L59.79 6.74L59.79 6.74Q59.75 6.94 59.57 7.13L59.57 7.13L59.57 7.13Q59.42 7.28 59.09 7.37L59.09 7.37L59.09 7.37Q58.97 7.40 58.83 7.44L58.83 7.44L58.83 7.44Q58.69 7.48 58.63 7.60L58.63 7.60L58.63 7.60Q58.59 7.72 58.65 7.84L58.65 7.84L58.65 7.84Q58.72 7.97 58.76 8.05L58.76 8.05L58.76 8.05Q58.80 8.13 58.83 8.18L58.83 8.18L58.83 8.18Q58.86 8.24 58.92 8.33L58.92 8.33L58.92 8.33Q58.97 8.42 59.05 8.52L59.05 8.52L59.05 8.52Q59.21 8.74 59.38 8.93L59.38 8.93L59.38 8.93Q59.55 9.13 59.73 9.30L59.73 9.30L59.77 9.34L59.77 9.34Q59.92 9.49 59.77 9.63L59.77 9.63L59.77 9.63Q59.62 9.79 59.47 9.64L59.47 9.64L59.47 9.64Q59.36 9.52 59.27 9.43L59.27 9.43L59.27 9.43Q59.18 9.34 59.10 9.26L59.10 9.26L59.10 9.26Q58.94 9.05 58.80 8.83L58.80 8.83L58.80 8.83Q58.69 8.67 58.59 8.53L58.59 8.53L58.59 8.53Q58.48 8.39 58.39 8.23L58.39 8.23L58.39 8.23Q58.11 7.74 57.71 7.58L57.71 7.58L57.71 7.58Q57.28 7.42 57.08 7.70L57.08 7.70L57.08 7.70Q57.02 7.80 57.02 7.92L57.02 7.92L57.02 9.40L57.02 9.49L57.02 9.49Q57.02 9.69 56.81 9.70L56.81 9.70L56.81 9.70Q56.59 9.69 56.59 9.44L56.59 9.44L56.59 9.44Q56.59 9.28 56.60 9.12L56.60 9.12L56.60 9.12Q56.62 8.95 56.62 8.76L56.62 8.76L56.62 8.76Q56.63 8.63 56.62 8.49L56.62 8.49L56.62 8.49Q56.61 8.35 56.61 8.22L56.61 8.22L56.61 8.22Q56.61 8.09 56.62 7.96L56.62 7.96L56.62 7.96Q56.62 7.83 56.62 7.70L56.62 7.70L56.62 7.70Q56.63 7.40 56.60 7.07L56.60 7.07L56.60 7.07Q56.60 6.84 56.61 6.61L56.61 6.61L56.61 6.61Q56.62 6.38 56.62 6.14L56.62 6.14L56.62 6.14Q56.61 6.02 56.61 5.86L56.61 5.86L56.61 5.86Q56.61 5.71 56.65 5.58L56.65 5.58L56.65 5.58Q56.77 5.42 57.23 5.42L57.23 5.42L57.44 5.42L57.44 5.42Q57.69 5.42 57.94 5.44L57.94 5.44L57.94 5.44Q58.19 5.46 58.43 5.45L58.43 5.45L58.43 5.45Q59.00 5.42 59.33 5.67ZM57.41 7.15L57.41 7.15L57.41 7.15Q57.67 7.16 57.87 7.16L57.87 7.16L57.87 7.16Q58.06 7.16 58.20 7.14L58.20 7.14L58.20 7.14Q58.33 7.13 58.49 7.11L58.49 7.11L58.49 7.11Q58.65 7.09 58.84 7.05L58.84 7.05L58.84 7.05Q59.23 6.97 59.35 6.69L59.35 6.69L59.35 6.69Q59.40 6.59 59.38 6.47L59.38 6.47L59.38 6.47Q59.37 6.34 59.31 6.24L59.31 6.24L59.31 6.24Q59.24 6.14 59.14 6.07L59.14 6.07L59.14 6.07Q59.04 6.00 58.93 5.94L58.93 5.94L58.93 5.94Q58.81 5.89 58.70 5.87L58.70 5.87L58.70 5.87Q58.41 5.82 58.13 5.83L58.13 5.83L58.13 5.83Q57.85 5.84 57.56 5.82L57.56 5.82L57.56 5.82Q57.50 5.82 57.45 5.82L57.45 5.82L57.45 5.82Q57.40 5.82 57.35 5.82L57.35 5.82L57.35 5.82Q57.20 5.81 57.13 5.89L57.13 5.89L57.13 5.89Q57.07 5.96 57.08 6.08L57.08 6.08L57.08 6.08Q57.09 6.12 57.09 6.23L57.09 6.23L57.09 6.23Q57.08 6.33 57.06 6.43L57.06 6.43L57.06 6.43Q57.05 6.52 57.04 6.62L57.04 6.62L57.04 6.62Q57.00 6.88 57.10 7.01L57.10 7.01L57.10 7.01Q57.19 7.14 57.41 7.15Z"></path></g><!----><g data-v-423bf9ae="" id="01b2f238-cd9a-4259-a1d3-63c4013c796e" transform="matrix(1.8955800602926123,0,0,1.8955800602926123,238.2570974269079,-1.924239107346061)" stroke="none" fill="black"><path d="M28.953 12.623s-3.641-8.842 5.35-11.591c2.451 8.322-3.791 10.774-5.35 11.591zM29.691 34.727s4.375-1.477 5.418 2.943c-4.088.92-5.074-2.166-5.418-2.943zM16.695 22.716s-9.272-1.514-6.936-10.451c8.225 2.24 7.058 8.724 6.936 10.451z"></path><path d="M32.41 28.414c-4.193.706-6.717 3.079-6.719 3.08.77-3.909 1.76-6.55 2.206-7.626 3.055-.57 10.352-2.229 10.271-12.682-10.406.188-11.143 8.994-11.102 11.904-1.237 1.697-2.196 3.707-2.94 5.83-1.283-3.52-1.49-7-1.508-8.667 1.955-1.983 6.456-6.933 1.053-14.563-6.805 4.924-4.248 11.207-2.566 13.9C20.464 28.407 23.324 32 23.324 32h.002c-.266 1-.492 1.779-.686 2.774-.004-.005-2.012-3.212-5.094-5.116-1.158-2.195-4.041-6.902-11.471-4.588 2.193 6.79 7.732 6.328 10.385 5.678.002.002 4.678 2.908 5.686 6.851-.699 5.218-.551 9.435-.551 9.435 0 1.934 3.195 2.151 3.195-.449-.318-4.706-.063-8.839.424-12.265 2.44-3.273 7.975-4.317 7.975-4.317 6.025 4.43 11.188-1.902 11.188-1.902-1.391-.936-6.172-4.957-11.967.313z"></path></g><!----><g data-v-423bf9ae="" id="1fd9f69a-0ed2-4084-acc8-41757cfd587d" fill="black" transform="matrix(5.234960241531459,0,0,5.234960241531459,71.58310260475642,168.5053563891071)"><path d="M2.98 9.08L2.98 9.08L2.98 9.08Q2.86 9.23 2.76 9.34L2.76 9.34L2.76 9.34Q2.65 9.45 2.54 9.53L2.54 9.53L2.54 9.53Q2.42 9.60 2.28 9.66L2.28 9.66L2.28 9.66Q2.14 9.71 1.96 9.73L1.96 9.73L1.96 9.73Q1.87 9.74 1.78 9.74L1.78 9.74L1.78 9.74Q1.68 9.75 1.57 9.73L1.57 9.73L1.57 9.73Q1.42 9.72 1.28 9.72L1.28 9.72L1.28 9.72Q1.13 9.72 0.98 9.69L0.98 9.69L0.98 9.69Q0.66 9.61 0.44 9.46L0.44 9.46L0.44 9.46Q0.22 9.31 0.10 9.07L0.10 9.07L0.10 9.07Q-0.05 8.74 0.27 8.73L0.27 8.73L0.27 8.73Q0.33 8.73 0.40 8.81L0.40 8.81L0.40 8.81Q0.47 8.89 0.51 8.93L0.51 8.93L0.51 8.93Q0.66 9.07 0.68 9.08L0.68 9.08L0.68 9.08L0.68 9.09L0.68 9.09Q1.02 9.32 1.57 9.32L1.57 9.32L1.58 9.32L1.59 9.32L1.59 9.32Q1.82 9.32 2.18 9.23L2.18 9.23L2.18 9.23Q2.54 9.14 2.65 8.87L2.65 8.87L2.65 8.87Q2.71 8.70 2.65 8.51L2.65 8.51L2.65 8.50L2.65 8.50Q2.48 8.14 1.99 8.02L1.99 8.02L1.15 7.80L1.15 7.80Q0.97 7.76 0.72 7.63L0.72 7.63L0.72 7.63Q0.59 7.56 0.49 7.51L0.49 7.51L0.49 7.51Q0.40 7.45 0.33 7.40L0.33 7.40L0.33 7.40Q0.05 7.19 0.01 6.99L0.01 6.99L0.01 6.99Q0 6.95 0 6.89L0 6.89L0 6.89Q0 6.83 0 6.74L0 6.74L0 6.74Q0 6.64 0.01 6.55L0.01 6.55L0.01 6.55Q0.03 6.46 0.04 6.36L0.04 6.36L0.04 6.36Q0.08 6.04 0.31 5.80L0.31 5.80L0.31 5.80Q0.41 5.69 0.56 5.62L0.56 5.62L0.56 5.62Q0.70 5.55 0.84 5.49L0.84 5.49L0.84 5.49Q1.03 5.40 1.24 5.40L1.24 5.40L1.24 5.40Q1.45 5.39 1.65 5.40L1.65 5.40L1.65 5.40Q2.32 5.42 2.70 5.87L2.70 5.87L2.70 5.87Q2.87 6.08 2.83 6.22L2.83 6.22L2.78 6.26L2.78 6.26Q2.67 6.32 2.52 6.19L2.52 6.19L2.52 6.19Q2.48 6.16 2.45 6.13L2.45 6.13L2.45 6.13Q2.41 6.09 2.38 6.06L2.38 6.06L2.38 6.06Q2.34 6.02 2.29 5.98L2.29 5.98L2.29 5.98Q2.24 5.95 2.17 5.91L2.17 5.91L2.15 5.90L2.13 5.90L2.13 5.90Q1.88 5.82 1.62 5.81L1.62 5.81L1.62 5.81Q1.35 5.80 1.07 5.86L1.07 5.86L1.07 5.86Q0.74 5.93 0.56 6.14L0.56 6.14L0.56 6.14Q0.38 6.34 0.38 6.67L0.38 6.67L0.38 6.69L0.39 6.70L0.39 6.70Q0.42 7.12 1.05 7.30L1.05 7.30L1.24 7.36L1.75 7.53L1.75 7.53Q1.87 7.57 1.98 7.62L1.98 7.62L1.98 7.62Q2.10 7.67 2.23 7.72L2.23 7.72L2.23 7.72Q2.42 7.81 2.58 7.90L2.58 7.90L2.58 7.90Q2.75 7.98 2.88 8.07L2.88 8.07L2.88 8.07Q2.98 8.13 3.03 8.22L3.03 8.22L3.03 8.22Q3.08 8.31 3.10 8.41L3.10 8.41L3.10 8.41Q3.12 8.51 3.11 8.62L3.11 8.62L3.11 8.62Q3.11 8.73 3.09 8.82L3.09 8.82L3.09 8.82Q3.08 8.89 3.05 8.96L3.05 8.96L3.05 8.96Q3.01 9.03 2.98 9.08ZM4.82 9.29L4.82 9.29L4.82 9.29Q4.81 8.87 4.82 8.46L4.82 8.46L4.82 8.46Q4.82 8.04 4.82 7.62L4.82 7.62L4.82 7.38L4.82 7.38Q4.82 7.20 4.81 7.01L4.81 7.01L4.81 7.01Q4.80 6.82 4.81 6.64L4.81 6.64L4.81 6.64Q4.82 6.43 4.82 6.23L4.82 6.23L4.82 6.23Q4.82 6.03 4.83 5.82L4.83 5.82L4.83 5.82Q4.83 5.58 4.94 5.48L4.94 5.48L4.94 5.48Q5.03 5.41 5.26 5.41L5.26 5.41L5.26 5.41Q5.37 5.41 5.46 5.40L5.46 5.40L5.46 5.40Q5.54 5.40 5.61 5.40L5.61 5.40L5.61 5.40Q5.87 5.39 6.14 5.40L6.14 5.40L6.14 5.40Q6.41 5.41 6.67 5.41L6.67 5.41L6.67 5.41Q6.82 5.40 6.96 5.40L6.96 5.40L6.96 5.40Q7.10 5.39 7.24 5.41L7.24 5.41L7.59 5.43L7.59 5.43Q7.65 5.43 7.69 5.43L7.69 5.43L7.69 5.43Q7.74 5.43 7.77 5.45L7.77 5.45L7.77 5.45Q7.92 5.52 7.91 5.66L7.91 5.66L7.91 5.66Q7.90 5.72 7.86 5.76L7.86 5.76L7.86 5.76Q7.82 5.80 7.77 5.82L7.77 5.82L7.77 5.82Q7.72 5.84 7.66 5.84L7.66 5.84L7.66 5.84Q7.61 5.85 7.57 5.85L7.57 5.85L7.57 5.85Q7.15 5.85 6.74 5.83L6.74 5.83L6.74 5.83Q6.70 5.82 6.64 5.82L6.64 5.82L6.64 5.82Q6.58 5.82 6.50 5.82L6.50 5.82L6.10 5.82L6.10 5.82Q5.95 5.82 5.82 5.83L5.82 5.83L5.82 5.83Q5.70 5.83 5.62 5.83L5.62 5.83L5.62 5.83Q5.50 5.84 5.43 5.86L5.43 5.86L5.43 5.86Q5.35 5.89 5.32 5.94L5.32 5.94L5.32 5.94Q5.26 6.02 5.28 6.15L5.28 6.15L5.28 6.15Q5.28 6.20 5.28 6.24L5.28 6.24L5.28 6.24Q5.28 6.28 5.27 6.32L5.27 6.32L5.27 6.32Q5.26 6.40 5.25 6.49L5.25 6.49L5.25 6.49Q5.24 6.58 5.25 6.69L5.25 6.69L5.25 6.69Q5.25 6.88 5.40 7.01L5.40 7.01L5.40 7.01Q5.52 7.12 5.84 7.10L5.84 7.10L5.84 7.10Q5.99 7.10 6.13 7.08L6.13 7.08L6.13 7.08Q6.27 7.06 6.41 7.07L6.41 7.07L6.41 7.07Q6.47 7.07 6.57 7.07L6.57 7.07L6.57 7.07Q6.67 7.08 6.81 7.07L6.81 7.07L6.81 7.07Q7.08 7.06 7.18 7.16L7.18 7.16L7.18 7.16Q7.21 7.21 7.21 7.32L7.21 7.32L7.21 7.32Q7.18 7.44 7.01 7.47L7.01 7.47L7.01 7.47Q6.86 7.50 6.76 7.50L6.76 7.50L6.76 7.50Q6.64 7.51 6.52 7.50L6.52 7.50L6.52 7.50Q6.40 7.50 6.28 7.51L6.28 7.51L6.28 7.51Q6.13 7.52 5.97 7.51L5.97 7.51L5.97 7.51Q5.81 7.51 5.64 7.49L5.64 7.49L5.64 7.49Q5.62 7.49 5.59 7.49L5.59 7.49L5.59 7.49Q5.56 7.49 5.54 7.49L5.54 7.49L5.54 7.49L5.54 7.49Q5.46 7.47 5.39 7.52L5.39 7.52L5.39 7.52Q5.26 7.59 5.25 7.78L5.25 7.78L5.25 7.78Q5.24 7.96 5.25 8.09L5.25 8.09L5.25 8.09Q5.26 8.16 5.26 8.22L5.26 8.22L5.26 8.22Q5.26 8.29 5.26 8.33L5.26 8.33L5.26 8.33Q5.24 8.44 5.23 8.53L5.23 8.53L5.23 8.53Q5.22 8.63 5.21 8.74L5.21 8.74L5.21 8.74Q5.19 9.00 5.28 9.13L5.28 9.13L5.28 9.13Q5.39 9.28 5.68 9.28L5.68 9.28L5.68 9.28Q5.91 9.28 6.14 9.27L6.14 9.27L6.14 9.27Q6.37 9.26 6.60 9.25L6.60 9.25L6.60 9.25Q6.82 9.24 7.04 9.26L7.04 9.26L7.04 9.26Q7.26 9.28 7.48 9.28L7.48 9.28L7.48 9.28Q7.56 9.28 7.70 9.28L7.70 9.28L7.70 9.28Q7.83 9.28 7.91 9.32L7.91 9.32L7.91 9.32Q7.98 9.36 7.98 9.44L7.98 9.44L7.98 9.44Q8.06 9.69 7.77 9.70L7.77 9.70L7.77 9.70Q7.32 9.72 6.89 9.71L6.89 9.71L6.89 9.71Q6.45 9.71 6.02 9.71L6.02 9.71L6.02 9.71Q5.99 9.71 5.96 9.72L5.96 9.72L5.96 9.72Q5.94 9.72 5.92 9.72L5.92 9.72L5.92 9.72Q5.76 9.72 5.65 9.72L5.65 9.72L5.65 9.72Q5.54 9.72 5.46 9.71L5.46 9.71L5.46 9.71Q5.41 9.71 5.35 9.71L5.35 9.71L5.35 9.71Q5.28 9.71 5.20 9.70L5.20 9.70L5.20 9.70Q5.13 9.69 5.09 9.69L5.09 9.69L5.09 9.69Q5.04 9.68 5.02 9.67L5.02 9.67L5.02 9.67Q4.82 9.61 4.82 9.29ZM9.52 9.29L9.52 9.29L9.52 9.29Q9.52 8.87 9.52 8.46L9.52 8.46L9.52 8.46Q9.52 8.04 9.52 7.62L9.52 7.62L9.52 7.38L9.52 7.38Q9.52 7.20 9.51 7.01L9.51 7.01L9.51 7.01Q9.50 6.82 9.52 6.64L9.52 6.64L9.52 6.64Q9.52 6.43 9.52 6.23L9.52 6.23L9.52 6.23Q9.52 6.03 9.53 5.82L9.53 5.82L9.53 5.82Q9.53 5.58 9.65 5.48L9.65 5.48L9.65 5.48Q9.73 5.41 9.96 5.41L9.96 5.41L9.96 5.41Q10.08 5.41 10.16 5.40L10.16 5.40L10.16 5.40Q10.25 5.40 10.31 5.40L10.31 5.40L10.31 5.40Q10.58 5.39 10.84 5.40L10.84 5.40L10.84 5.40Q11.11 5.41 11.38 5.41L11.38 5.41L11.38 5.41Q11.52 5.40 11.66 5.40L11.66 5.40L11.66 5.40Q11.81 5.39 11.94 5.41L11.94 5.41L12.29 5.43L12.29 5.43Q12.35 5.43 12.40 5.43L12.40 5.43L12.40 5.43Q12.44 5.43 12.48 5.45L12.48 5.45L12.48 5.45Q12.62 5.52 12.61 5.66L12.61 5.66L12.61 5.66Q12.61 5.72 12.56 5.76L12.56 5.76L12.56 5.76Q12.52 5.80 12.47 5.82L12.47 5.82L12.47 5.82Q12.42 5.84 12.37 5.84L12.37 5.84L12.37 5.84Q12.31 5.85 12.27 5.85L12.27 5.85L12.27 5.85Q11.85 5.85 11.44 5.83L11.44 5.83L11.44 5.83Q11.40 5.82 11.34 5.82L11.34 5.82L11.34 5.82Q11.28 5.82 11.20 5.82L11.20 5.82L10.81 5.82L10.81 5.82Q10.65 5.82 10.53 5.83L10.53 5.83L10.53 5.83Q10.40 5.83 10.32 5.83L10.32 5.83L10.32 5.83Q10.21 5.84 10.13 5.86L10.13 5.86L10.13 5.86Q10.06 5.89 10.02 5.94L10.02 5.94L10.02 5.94Q9.97 6.02 9.98 6.15L9.98 6.15L9.98 6.15Q9.98 6.20 9.98 6.24L9.98 6.24L9.98 6.24Q9.98 6.28 9.97 6.32L9.97 6.32L9.97 6.32Q9.96 6.40 9.95 6.49L9.95 6.49L9.95 6.49Q9.95 6.58 9.95 6.69L9.95 6.69L9.95 6.69Q9.95 6.88 10.10 7.01L10.10 7.01L10.10 7.01Q10.23 7.12 10.55 7.10L10.55 7.10L10.55 7.10Q10.69 7.10 10.83 7.08L10.83 7.08L10.83 7.08Q10.97 7.06 11.12 7.07L11.12 7.07L11.12 7.07Q11.18 7.07 11.28 7.07L11.28 7.07L11.28 7.07Q11.38 7.08 11.51 7.07L11.51 7.07L11.51 7.07Q11.79 7.06 11.88 7.16L11.88 7.16L11.88 7.16Q11.92 7.21 11.91 7.32L11.91 7.32L11.91 7.32Q11.89 7.44 11.72 7.47L11.72 7.47L11.72 7.47Q11.56 7.50 11.46 7.50L11.46 7.50L11.46 7.50Q11.34 7.51 11.22 7.50L11.22 7.50L11.22 7.50Q11.10 7.50 10.98 7.51L10.98 7.51L10.98 7.51Q10.83 7.52 10.67 7.51L10.67 7.51L10.67 7.51Q10.51 7.51 10.34 7.49L10.34 7.49L10.34 7.49Q10.32 7.49 10.29 7.49L10.29 7.49L10.29 7.49Q10.27 7.49 10.25 7.49L10.25 7.49L10.24 7.49L10.24 7.49Q10.17 7.47 10.09 7.52L10.09 7.52L10.09 7.52Q9.97 7.59 9.95 7.78L9.95 7.78L9.95 7.78Q9.94 7.96 9.95 8.09L9.95 8.09L9.95 8.09Q9.96 8.16 9.96 8.22L9.96 8.22L9.96 8.22Q9.97 8.29 9.96 8.33L9.96 8.33L9.96 8.33Q9.95 8.44 9.94 8.53L9.94 8.53L9.94 8.53Q9.93 8.63 9.91 8.74L9.91 8.74L9.91 8.74Q9.89 9.00 9.98 9.13L9.98 9.13L9.98 9.13Q10.10 9.28 10.38 9.28L10.38 9.28L10.38 9.28Q10.61 9.28 10.84 9.27L10.84 9.27L10.84 9.27Q11.07 9.26 11.31 9.25L11.31 9.25L11.31 9.25Q11.52 9.24 11.74 9.26L11.74 9.26L11.74 9.26Q11.96 9.28 12.18 9.28L12.18 9.28L12.18 9.28Q12.26 9.28 12.40 9.28L12.40 9.28L12.40 9.28Q12.54 9.28 12.61 9.32L12.61 9.32L12.61 9.32Q12.68 9.36 12.69 9.44L12.69 9.44L12.69 9.44Q12.76 9.69 12.48 9.70L12.48 9.70L12.48 9.70Q12.02 9.72 11.59 9.71L11.59 9.71L11.59 9.71Q11.16 9.71 10.72 9.71L10.72 9.71L10.72 9.71Q10.69 9.71 10.67 9.72L10.67 9.72L10.67 9.72Q10.64 9.72 10.62 9.72L10.62 9.72L10.62 9.72Q10.47 9.72 10.35 9.72L10.35 9.72L10.35 9.72Q10.24 9.72 10.17 9.71L10.17 9.71L10.17 9.71Q10.12 9.71 10.05 9.71L10.05 9.71L10.05 9.71Q9.99 9.71 9.91 9.70L9.91 9.70L9.91 9.70Q9.84 9.69 9.79 9.69L9.79 9.69L9.79 9.69Q9.75 9.68 9.73 9.67L9.73 9.67L9.73 9.67Q9.52 9.61 9.52 9.29ZM14.23 5.50L14.23 5.50L14.23 5.50Q14.57 5.21 14.62 5.67L14.62 5.67L14.62 5.67Q14.63 5.76 14.63 5.87L14.63 5.87L14.63 5.87Q14.63 5.97 14.62 6.08L14.62 6.08L14.62 6.08Q14.62 6.21 14.61 6.32L14.61 6.32L14.61 6.32Q14.61 6.44 14.61 6.56L14.61 6.56L14.61 6.56Q14.62 6.90 14.79 6.96L14.79 6.96L14.79 6.96Q14.94 7.02 15.12 6.82L15.12 6.82L15.12 6.82Q15.24 6.69 15.38 6.54L15.38 6.54L15.38 6.54Q15.52 6.39 15.68 6.25L15.68 6.25L15.68 6.25Q15.82 6.14 15.95 6.02L15.95 6.02L15.95 6.02Q16.08 5.89 16.21 5.77L16.21 5.77L16.21 5.77Q16.24 5.74 16.29 5.70L16.29 5.70L16.29 5.70Q16.35 5.65 16.44 5.58L16.44 5.58L16.44 5.58Q16.60 5.46 16.69 5.43L16.69 5.43L16.69 5.43Q16.84 5.41 16.91 5.51L16.91 5.51L16.91 5.51Q16.97 5.63 16.86 5.74L16.86 5.74L16.86 5.74Q16.77 5.87 16.69 5.96L16.69 5.96L16.69 5.96Q16.62 6.04 16.57 6.09L16.57 6.09L16.57 6.09Q16.47 6.19 16.22 6.38L16.22 6.38L16.22 6.38Q16.11 6.46 16.00 6.56L16.00 6.56L16.00 6.56Q15.88 6.65 15.78 6.75L15.78 6.75L15.78 6.75Q15.61 6.94 15.59 7.10L15.59 7.10L15.59 7.10Q15.59 7.18 15.61 7.28L15.61 7.28L15.61 7.28Q15.63 7.38 15.70 7.50L15.70 7.50L15.70 7.50Q15.76 7.62 15.83 7.74L15.83 7.74L15.83 7.74Q15.90 7.86 15.96 7.98L15.96 7.98L15.96 7.98Q16.00 8.05 16.02 8.11L16.02 8.11L16.02 8.11Q16.05 8.16 16.06 8.20L16.06 8.20L16.06 8.20L16.06 8.20Q16.22 8.50 16.45 8.78L16.45 8.78L16.45 8.78Q16.69 9.06 16.97 9.34L16.97 9.34L16.97 9.34Q17.12 9.48 16.97 9.63L16.97 9.63L16.97 9.63Q16.82 9.79 16.67 9.64L16.67 9.64L16.67 9.64Q16.15 9.14 15.89 8.74L15.89 8.74L15.89 8.74Q15.73 8.49 15.60 8.22L15.60 8.22L15.60 8.22Q15.47 7.95 15.35 7.68L15.35 7.68L15.35 7.68Q15.24 7.46 15.09 7.45L15.09 7.45L15.09 7.45Q14.97 7.45 14.79 7.67L14.79 7.67L14.79 7.67Q14.71 7.77 14.68 7.87L14.68 7.87L14.68 7.87Q14.64 7.97 14.63 8.08L14.63 8.08L14.63 8.08Q14.62 8.24 14.65 8.40L14.65 8.40L14.65 8.40Q14.68 8.57 14.66 8.72L14.66 8.72L14.66 8.72Q14.66 8.76 14.66 8.78L14.66 8.78L14.66 8.78Q14.63 8.97 14.62 9.14L14.62 9.14L14.62 9.14Q14.62 9.32 14.62 9.48L14.62 9.48L14.62 9.48Q14.62 9.68 14.40 9.70L14.40 9.70L14.40 9.70Q14.20 9.69 14.20 9.49L14.20 9.49L14.20 9.49Q14.20 9.16 14.19 8.84L14.19 8.84L14.19 8.84Q14.18 8.51 14.16 8.18L14.16 8.18L14.16 8.18Q14.15 7.94 14.18 7.69L14.18 7.69L14.18 7.69Q14.22 7.44 14.22 7.20L14.22 7.20L14.22 7.20Q14.22 7.11 14.22 7.01L14.22 7.01L14.22 7.01Q14.23 6.92 14.23 6.82L14.23 6.82L14.23 6.82Q14.23 6.47 14.23 6.33L14.23 6.33L14.15 5.91L14.15 5.91Q14.11 5.65 14.23 5.50ZM24.67 5.75L24.67 5.75L24.67 5.75Q24.58 5.86 24.36 5.84L24.36 5.84L24.01 5.82L24.01 5.82Q23.91 5.82 23.82 5.81L23.82 5.81L23.82 5.81Q23.72 5.80 23.62 5.80L23.62 5.80L23.62 5.80Q23.41 5.80 23.32 5.89L23.32 5.89L23.32 5.89Q23.24 5.98 23.24 6.19L23.24 6.19L23.24 6.19Q23.24 6.28 23.25 6.37L23.25 6.37L23.25 6.37Q23.26 6.47 23.26 6.56L23.26 6.56L23.26 6.56Q23.27 6.79 23.27 6.96L23.27 6.96L23.27 6.96Q23.28 7.12 23.28 7.24L23.28 7.24L23.28 7.24Q23.28 7.59 23.24 7.94L23.24 7.94L23.24 7.94Q23.21 8.10 23.24 8.26L23.24 8.26L23.24 8.26Q23.26 8.43 23.26 8.59L23.26 8.59L23.26 8.59Q23.27 8.76 23.27 8.89L23.27 8.89L23.27 8.89Q23.28 9.02 23.28 9.11L23.28 9.11L23.28 9.11Q23.28 9.15 23.28 9.20L23.28 9.20L23.28 9.20Q23.28 9.26 23.27 9.35L23.27 9.35L23.27 9.35Q23.26 9.54 23.24 9.58L23.24 9.58L23.24 9.58Q23.15 9.73 23.01 9.69L23.01 9.69L23.01 9.69Q22.83 9.65 22.83 9.43L22.83 9.43L22.83 9.43Q22.83 9.22 22.84 9.01L22.84 9.01L22.84 9.01Q22.86 8.80 22.87 8.60L22.87 8.60L22.87 8.60Q22.89 8.36 22.87 8.11L22.87 8.11L22.87 8.11Q22.85 7.87 22.85 7.62L22.85 7.62L22.85 7.62Q22.85 7.40 22.86 7.17L22.86 7.17L22.86 7.17Q22.88 6.94 22.89 6.71L22.89 6.71L22.89 6.71Q22.89 6.27 22.74 6.08L22.74 6.08L22.74 6.08Q22.67 5.99 22.56 5.94L22.56 5.94L22.56 5.94Q22.46 5.89 22.33 5.87L22.33 5.87L22.33 5.87Q22.20 5.86 22.08 5.85L22.08 5.85L22.08 5.85Q21.97 5.84 21.86 5.84L21.86 5.84L21.86 5.84Q21.78 5.84 21.65 5.84L21.65 5.84L21.65 5.84Q21.53 5.84 21.46 5.80L21.46 5.80L21.46 5.80Q21.40 5.77 21.39 5.67L21.39 5.67L21.39 5.67Q21.38 5.59 21.41 5.54L21.41 5.54L21.41 5.54Q21.46 5.46 21.65 5.43L21.65 5.43L21.65 5.43Q21.67 5.43 21.72 5.43L21.72 5.43L21.72 5.43Q22.01 5.42 22.28 5.45L22.28 5.45L22.28 5.45Q22.55 5.48 22.84 5.46L22.84 5.46L22.84 5.46Q22.96 5.46 23.07 5.44L23.07 5.44L23.07 5.44Q23.18 5.43 23.30 5.43L23.30 5.43L23.30 5.43Q23.53 5.43 23.76 5.43L23.76 5.43L23.76 5.43Q23.99 5.43 24.21 5.42L24.21 5.42L24.21 5.42Q24.33 5.42 24.41 5.43L24.41 5.43L24.41 5.43Q24.50 5.43 24.56 5.46L24.56 5.46L24.56 5.46Q24.77 5.61 24.67 5.75ZM27.90 7.01L27.90 7.01L27.90 7.01Q28.15 7.01 28.40 7.02L28.40 7.02L28.40 7.02Q28.64 7.03 28.89 7.07L28.89 7.07L28.89 7.07Q29.08 7.10 29.18 6.99L29.18 6.99L29.18 6.99Q29.26 6.90 29.25 6.78L29.25 6.78L29.25 6.78Q29.25 6.66 29.25 6.55L29.25 6.55L29.25 6.55Q29.26 6.38 29.26 6.25L29.26 6.25L29.26 6.25Q29.26 6.13 29.26 6.04L29.26 6.04L29.26 6.04Q29.26 6.00 29.26 5.93L29.26 5.93L29.26 5.93Q29.26 5.87 29.27 5.79L29.27 5.79L29.27 5.79Q29.27 5.72 29.28 5.65L29.28 5.65L29.28 5.65Q29.29 5.58 29.31 5.54L29.31 5.54L29.31 5.54Q29.37 5.40 29.54 5.41L29.54 5.41L29.54 5.41Q29.72 5.43 29.72 5.72L29.72 5.72L29.72 5.72Q29.71 5.89 29.70 6.06L29.70 6.06L29.70 6.06Q29.68 6.23 29.70 6.40L29.70 6.40L29.70 6.41L29.70 6.41Q29.70 6.68 29.71 6.95L29.71 6.95L29.71 6.95Q29.72 7.23 29.74 7.49L29.74 7.49L29.74 7.49Q29.75 7.66 29.74 7.82L29.74 7.82L29.74 7.82Q29.72 7.99 29.72 8.16L29.72 8.16L29.72 8.16Q29.72 8.44 29.72 8.73L29.72 8.73L29.72 8.73Q29.72 9.01 29.72 9.30L29.72 9.30L29.72 9.30Q29.72 9.55 29.67 9.63L29.67 9.63L29.67 9.63Q29.64 9.67 29.56 9.69L29.56 9.69L29.56 9.69Q29.31 9.75 29.28 9.47L29.28 9.47L29.28 9.47Q29.24 9.13 29.25 8.77L29.25 8.77L29.25 8.77Q29.26 8.42 29.25 8.06L29.25 8.06L29.25 8.06Q29.24 7.93 29.22 7.77L29.22 7.77L29.22 7.77Q29.20 7.62 29.09 7.52L29.09 7.52L29.09 7.52Q28.98 7.44 28.73 7.44L28.73 7.44L28.73 7.44Q28.61 7.44 28.49 7.44L28.49 7.44L28.49 7.44Q28.37 7.45 28.25 7.44L28.25 7.44L27.86 7.44L27.86 7.44Q27.73 7.45 27.61 7.44L27.61 7.44L27.61 7.44Q27.49 7.43 27.37 7.42L27.37 7.42L27.37 7.42Q27.11 7.40 26.98 7.49L26.98 7.49L26.98 7.49Q26.82 7.63 26.82 7.95L26.82 7.95L26.82 7.95Q26.82 8.16 26.83 8.38L26.83 8.38L26.83 8.38Q26.84 8.59 26.84 8.80L26.84 8.80L26.84 8.80Q26.84 8.97 26.83 9.10L26.83 9.10L26.83 9.10Q26.82 9.22 26.82 9.31L26.82 9.31L26.82 9.31Q26.82 9.41 26.81 9.47L26.81 9.47L26.81 9.47Q26.80 9.54 26.79 9.59L26.79 9.59L26.79 9.59Q26.71 9.73 26.55 9.69L26.55 9.69L26.55 9.69Q26.39 9.67 26.39 9.44L26.39 9.44L26.39 9.44Q26.39 9.21 26.39 9.00L26.39 9.00L26.39 9.00Q26.39 8.78 26.39 8.55L26.39 8.55L26.39 8.55Q26.40 8.34 26.39 8.12L26.39 8.12L26.39 8.12Q26.39 7.91 26.39 7.69L26.39 7.69L26.39 7.69Q26.39 7.34 26.39 6.99L26.39 6.99L26.39 6.99Q26.40 6.64 26.41 6.30L26.41 6.30L26.41 6.30Q26.41 6.24 26.40 6.15L26.40 6.15L26.40 6.15Q26.39 6.05 26.39 5.91L26.39 5.91L26.39 5.91Q26.37 5.61 26.41 5.54L26.41 5.54L26.41 5.54Q26.50 5.41 26.61 5.41L26.61 5.41L26.61 5.41Q26.82 5.42 26.84 5.74L26.84 5.74L26.84 5.74Q26.84 5.82 26.85 5.88L26.85 5.88L26.85 5.88Q26.85 5.94 26.85 5.99L26.85 5.99L26.85 5.99Q26.85 6.02 26.85 6.08L26.85 6.08L26.85 6.08Q26.85 6.15 26.84 6.23L26.84 6.23L26.84 6.23Q26.82 6.33 26.81 6.43L26.81 6.43L26.81 6.43Q26.80 6.54 26.80 6.63L26.80 6.63L26.80 6.63Q26.78 6.85 26.88 6.93L26.88 6.93L26.88 6.93Q26.98 7.01 27.15 6.98L27.15 6.98L27.15 6.98Q27.25 6.97 27.32 6.97L27.32 6.97L27.32 6.97Q27.38 6.97 27.43 6.97L27.43 6.97L27.43 6.97Q27.55 6.98 27.67 6.99L27.67 6.99L27.67 6.99Q27.78 7.01 27.90 7.01ZM31.62 9.29L31.62 9.29L31.62 9.29Q31.62 8.87 31.62 8.46L31.62 8.46L31.62 8.46Q31.62 8.04 31.62 7.62L31.62 7.62L31.62 7.38L31.62 7.38Q31.62 7.20 31.61 7.01L31.61 7.01L31.61 7.01Q31.60 6.82 31.62 6.64L31.62 6.64L31.62 6.64Q31.62 6.43 31.62 6.23L31.62 6.23L31.62 6.23Q31.62 6.03 31.63 5.82L31.63 5.82L31.63 5.82Q31.63 5.58 31.75 5.48L31.75 5.48L31.75 5.48Q31.83 5.41 32.06 5.41L32.06 5.41L32.06 5.41Q32.18 5.41 32.26 5.40L32.26 5.40L32.26 5.40Q32.35 5.40 32.41 5.40L32.41 5.40L32.41 5.40Q32.68 5.39 32.94 5.40L32.94 5.40L32.94 5.40Q33.21 5.41 33.48 5.41L33.48 5.41L33.48 5.41Q33.62 5.40 33.76 5.40L33.76 5.40L33.76 5.40Q33.91 5.39 34.04 5.41L34.04 5.41L34.39 5.43L34.39 5.43Q34.45 5.43 34.50 5.43L34.50 5.43L34.50 5.43Q34.54 5.43 34.58 5.45L34.58 5.45L34.58 5.45Q34.72 5.52 34.71 5.66L34.71 5.66L34.71 5.66Q34.71 5.72 34.67 5.76L34.67 5.76L34.67 5.76Q34.62 5.80 34.57 5.82L34.57 5.82L34.57 5.82Q34.52 5.84 34.47 5.84L34.47 5.84L34.47 5.84Q34.41 5.85 34.37 5.85L34.37 5.85L34.37 5.85Q33.95 5.85 33.54 5.83L33.54 5.83L33.54 5.83Q33.50 5.82 33.44 5.82L33.44 5.82L33.44 5.82Q33.38 5.82 33.30 5.82L33.30 5.82L32.91 5.82L32.91 5.82Q32.75 5.82 32.63 5.83L32.63 5.83L32.63 5.83Q32.50 5.83 32.42 5.83L32.42 5.83L32.42 5.83Q32.31 5.84 32.23 5.86L32.23 5.86L32.23 5.86Q32.16 5.89 32.12 5.94L32.12 5.94L32.12 5.94Q32.07 6.02 32.08 6.15L32.08 6.15L32.08 6.15Q32.08 6.20 32.08 6.24L32.08 6.24L32.08 6.24Q32.08 6.28 32.07 6.32L32.07 6.32L32.07 6.32Q32.06 6.40 32.05 6.49L32.05 6.49L32.05 6.49Q32.05 6.58 32.05 6.69L32.05 6.69L32.05 6.69Q32.05 6.88 32.20 7.01L32.20 7.01L32.20 7.01Q32.33 7.12 32.65 7.10L32.65 7.10L32.65 7.10Q32.79 7.10 32.93 7.08L32.93 7.08L32.93 7.08Q33.07 7.06 33.22 7.07L33.22 7.07L33.22 7.07Q33.28 7.07 33.38 7.07L33.38 7.07L33.38 7.07Q33.48 7.08 33.61 7.07L33.61 7.07L33.61 7.07Q33.89 7.06 33.98 7.16L33.98 7.16L33.98 7.16Q34.02 7.21 34.01 7.32L34.01 7.32L34.01 7.32Q33.99 7.44 33.82 7.47L33.82 7.47L33.82 7.47Q33.66 7.50 33.56 7.50L33.56 7.50L33.56 7.50Q33.44 7.51 33.32 7.50L33.32 7.50L33.32 7.50Q33.20 7.50 33.08 7.51L33.08 7.51L33.08 7.51Q32.93 7.52 32.77 7.51L32.77 7.51L32.77 7.51Q32.61 7.51 32.44 7.49L32.44 7.49L32.44 7.49Q32.42 7.49 32.40 7.49L32.40 7.49L32.40 7.49Q32.37 7.49 32.35 7.49L32.35 7.49L32.34 7.49L32.34 7.49Q32.27 7.47 32.19 7.52L32.19 7.52L32.19 7.52Q32.07 7.59 32.05 7.78L32.05 7.78L32.05 7.78Q32.04 7.96 32.05 8.09L32.05 8.09L32.05 8.09Q32.06 8.16 32.06 8.22L32.06 8.22L32.06 8.22Q32.07 8.29 32.06 8.33L32.06 8.33L32.06 8.33Q32.05 8.44 32.04 8.53L32.04 8.53L32.04 8.53Q32.03 8.63 32.01 8.74L32.01 8.74L32.01 8.74Q31.99 9.00 32.08 9.13L32.08 9.13L32.08 9.13Q32.20 9.28 32.48 9.28L32.48 9.28L32.48 9.28Q32.71 9.28 32.94 9.27L32.94 9.27L32.94 9.27Q33.17 9.26 33.41 9.25L33.41 9.25L33.41 9.25Q33.62 9.24 33.84 9.26L33.84 9.26L33.84 9.26Q34.06 9.28 34.28 9.28L34.28 9.28L34.28 9.28Q34.36 9.28 34.50 9.28L34.50 9.28L34.50 9.28Q34.64 9.28 34.71 9.32L34.71 9.32L34.71 9.32Q34.78 9.36 34.79 9.44L34.79 9.44L34.79 9.44Q34.86 9.69 34.58 9.70L34.58 9.70L34.58 9.70Q34.13 9.72 33.69 9.71L33.69 9.71L33.69 9.71Q33.26 9.71 32.82 9.71L32.82 9.71L32.82 9.71Q32.79 9.71 32.77 9.72L32.77 9.72L32.77 9.72Q32.74 9.72 32.72 9.72L32.72 9.72L32.72 9.72Q32.57 9.72 32.45 9.72L32.45 9.72L32.45 9.72Q32.34 9.72 32.27 9.71L32.27 9.71L32.27 9.71Q32.22 9.71 32.15 9.71L32.15 9.71L32.15 9.71Q32.09 9.71 32.01 9.70L32.01 9.70L32.01 9.70Q31.94 9.69 31.89 9.69L31.89 9.69L31.89 9.69Q31.85 9.68 31.83 9.67L31.83 9.67L31.83 9.67Q31.62 9.61 31.62 9.29ZM41.72 9.06L41.72 9.06L41.72 9.06Q42.04 8.88 42.10 9.19L42.10 9.19L42.10 9.19Q42.12 9.32 41.96 9.44L41.96 9.44L41.96 9.44Q41.88 9.50 41.82 9.53L41.82 9.53L41.82 9.53Q41.75 9.57 41.70 9.59L41.70 9.59L41.70 9.59Q41.54 9.66 41.42 9.69L41.42 9.69L41.42 9.69Q41.29 9.72 41.19 9.73L41.19 9.73L41.19 9.73Q41.02 9.75 40.82 9.75L40.82 9.75L40.82 9.75Q40.62 9.75 40.40 9.71L40.40 9.71L40.40 9.71Q39.96 9.65 39.68 9.41L39.68 9.41L39.68 9.41Q39.43 9.19 39.27 8.89L39.27 8.89L39.27 8.89Q39.10 8.59 39.00 8.29L39.00 8.29L38.99 8.24L38.99 8.24Q38.92 8.05 38.94 7.80L38.94 7.80L38.94 7.80Q38.96 7.56 38.95 7.35L38.95 7.35L38.95 7.35Q38.95 7.18 38.96 7.06L38.96 7.06L38.96 7.06Q38.96 6.93 38.99 6.84L38.99 6.84L38.99 6.84Q39.04 6.67 39.21 6.38L39.21 6.38L39.21 6.38Q39.40 6.05 39.63 5.81L39.63 5.81L39.63 5.81Q39.86 5.57 40.26 5.49L40.26 5.49L40.26 5.49Q40.36 5.48 40.61 5.41L40.61 5.41L40.61 5.41Q40.69 5.39 40.78 5.37L40.78 5.37L40.78 5.37Q40.87 5.36 40.99 5.37L40.99 5.37L40.99 5.37Q41.08 5.37 41.20 5.39L41.20 5.39L41.20 5.39Q41.32 5.41 41.47 5.44L41.47 5.44L41.47 5.44Q41.58 5.48 41.81 5.58L41.81 5.58L41.81 5.58Q42.02 5.67 42.06 5.82L42.06 5.82L42.06 5.82Q42.08 5.88 42.05 5.94L42.05 5.94L42.05 5.94Q41.99 6.04 41.90 6.06L41.90 6.06L41.90 6.06Q41.86 6.08 41.78 6.06L41.78 6.06L41.78 6.06Q41.71 6.05 41.61 6.00L41.61 6.00L41.61 6.00Q41.47 5.93 41.36 5.88L41.36 5.88L41.36 5.88Q41.24 5.83 41.12 5.81L41.12 5.81L41.12 5.81Q41.00 5.78 40.88 5.79L40.88 5.79L40.88 5.79Q40.75 5.80 40.60 5.84L40.60 5.84L40.60 5.84Q40.24 5.95 40.10 6.02L40.10 6.02L40.10 6.02Q39.95 6.10 39.74 6.41L39.74 6.41L39.74 6.41Q39.58 6.65 39.49 6.91L39.49 6.91L39.49 6.91Q39.41 7.18 39.40 7.45L39.40 7.45L39.40 7.45Q39.38 7.73 39.44 8.00L39.44 8.00L39.44 8.00Q39.50 8.28 39.62 8.53L39.62 8.53L39.62 8.54L39.63 8.54L39.63 8.54Q39.92 9.08 40.47 9.22L40.47 9.22L40.47 9.22Q40.87 9.32 41.08 9.26L41.08 9.26L41.08 9.26Q41.15 9.26 41.20 9.24L41.20 9.24L41.20 9.24Q41.25 9.23 41.32 9.21L41.32 9.21L41.32 9.21Q41.55 9.17 41.72 9.06ZM45.19 7.01L45.19 7.01L45.19 7.01Q45.43 7.01 45.68 7.02L45.68 7.02L45.68 7.02Q45.92 7.03 46.17 7.07L46.17 7.07L46.17 7.07Q46.36 7.10 46.46 6.99L46.46 6.99L46.46 6.99Q46.54 6.90 46.54 6.78L46.54 6.78L46.54 6.78Q46.53 6.66 46.53 6.55L46.53 6.55L46.53 6.55Q46.54 6.38 46.54 6.25L46.54 6.25L46.54 6.25Q46.54 6.13 46.54 6.04L46.54 6.04L46.54 6.04Q46.54 6.00 46.54 5.93L46.54 5.93L46.54 5.93Q46.55 5.87 46.55 5.79L46.55 5.79L46.55 5.79Q46.55 5.72 46.56 5.65L46.56 5.65L46.56 5.65Q46.57 5.58 46.59 5.54L46.59 5.54L46.59 5.54Q46.66 5.40 46.82 5.41L46.82 5.41L46.82 5.41Q47.00 5.43 47.00 5.72L47.00 5.72L47.00 5.72Q46.99 5.89 46.98 6.06L46.98 6.06L46.98 6.06Q46.96 6.23 46.98 6.40L46.98 6.40L46.98 6.41L46.98 6.41Q46.98 6.68 46.99 6.95L46.99 6.95L46.99 6.95Q47.00 7.23 47.02 7.49L47.02 7.49L47.02 7.49Q47.03 7.66 47.02 7.82L47.02 7.82L47.02 7.82Q47.00 7.99 47.00 8.16L47.00 8.16L47.00 8.16Q47.00 8.44 47.00 8.73L47.00 8.73L47.00 8.73Q47.00 9.01 47.00 9.30L47.00 9.30L47.00 9.30Q47.00 9.55 46.95 9.63L46.95 9.63L46.95 9.63Q46.92 9.67 46.84 9.69L46.84 9.69L46.84 9.69Q46.59 9.75 46.56 9.47L46.56 9.47L46.56 9.47Q46.53 9.13 46.54 8.77L46.54 8.77L46.54 8.77Q46.55 8.42 46.53 8.06L46.53 8.06L46.53 8.06Q46.53 7.93 46.50 7.77L46.50 7.77L46.50 7.77Q46.48 7.62 46.37 7.52L46.37 7.52L46.37 7.52Q46.27 7.44 46.01 7.44L46.01 7.44L46.01 7.44Q45.89 7.44 45.77 7.44L45.77 7.44L45.77 7.44Q45.65 7.45 45.53 7.44L45.53 7.44L45.14 7.44L45.14 7.44Q45.01 7.45 44.90 7.44L44.90 7.44L44.90 7.44Q44.78 7.43 44.65 7.42L44.65 7.42L44.65 7.42Q44.39 7.40 44.26 7.49L44.26 7.49L44.26 7.49Q44.11 7.63 44.11 7.95L44.11 7.95L44.11 7.95Q44.11 8.16 44.11 8.38L44.11 8.38L44.11 8.38Q44.12 8.59 44.12 8.80L44.12 8.80L44.12 8.80Q44.12 8.97 44.11 9.10L44.11 9.10L44.11 9.10Q44.11 9.22 44.11 9.31L44.11 9.31L44.11 9.31Q44.10 9.41 44.09 9.47L44.09 9.47L44.09 9.47Q44.08 9.54 44.07 9.59L44.07 9.59L44.07 9.59Q44.00 9.73 43.83 9.69L43.83 9.69L43.83 9.69Q43.67 9.67 43.67 9.44L43.67 9.44L43.67 9.44Q43.67 9.21 43.67 9.00L43.67 9.00L43.67 9.00Q43.67 8.78 43.67 8.55L43.67 8.55L43.67 8.55Q43.68 8.34 43.67 8.12L43.67 8.12L43.67 8.12Q43.67 7.91 43.67 7.69L43.67 7.69L43.67 7.69Q43.67 7.34 43.67 6.99L43.67 6.99L43.67 6.99Q43.68 6.64 43.69 6.30L43.69 6.30L43.69 6.30Q43.69 6.24 43.68 6.15L43.68 6.15L43.68 6.15Q43.67 6.05 43.67 5.91L43.67 5.91L43.67 5.91Q43.65 5.61 43.69 5.54L43.69 5.54L43.69 5.54Q43.78 5.41 43.89 5.41L43.89 5.41L43.89 5.41Q44.10 5.42 44.12 5.74L44.12 5.74L44.12 5.74Q44.13 5.82 44.13 5.88L44.13 5.88L44.13 5.88Q44.13 5.94 44.13 5.99L44.13 5.99L44.13 5.99Q44.13 6.02 44.13 6.08L44.13 6.08L44.13 6.08Q44.13 6.15 44.12 6.23L44.12 6.23L44.12 6.23Q44.11 6.33 44.09 6.43L44.09 6.43L44.09 6.43Q44.08 6.54 44.08 6.63L44.08 6.63L44.08 6.63Q44.06 6.85 44.16 6.93L44.16 6.93L44.16 6.93Q44.26 7.01 44.43 6.98L44.43 6.98L44.43 6.98Q44.53 6.97 44.60 6.97L44.60 6.97L44.60 6.97Q44.67 6.97 44.71 6.97L44.71 6.97L44.71 6.97Q44.83 6.98 44.95 6.99L44.95 6.99L44.95 6.99Q45.06 7.01 45.19 7.01ZM50.55 5.58L50.55 5.58L50.55 5.58Q50.60 5.56 50.67 5.55L50.67 5.55L50.67 5.55Q50.74 5.55 50.81 5.56L50.81 5.56L50.81 5.56Q50.88 5.58 50.94 5.61L50.94 5.61L50.94 5.61Q51.00 5.65 51.02 5.69L51.02 5.69L51.02 5.69Q51.28 6.21 51.47 6.73L51.47 6.73L51.47 6.73Q51.67 7.25 51.93 7.76L51.93 7.76L51.93 7.76Q52.13 8.15 52.29 8.58L52.29 8.58L52.29 8.58Q52.46 9.00 52.68 9.43L52.68 9.43L52.69 9.46L52.70 9.47L52.70 9.47Q52.81 9.67 52.89 9.81L52.89 9.81L52.89 9.81Q52.98 9.95 53.03 10.02L53.03 10.02L53.03 10.02Q53.52 10.67 54.03 10.96L54.03 10.96L54.03 10.96Q54.54 11.25 55.17 11.21L55.17 11.21L55.17 11.20L55.17 11.20L55.17 11.20Q55.38 11.20 55.41 11.40L55.41 11.40L55.41 11.40Q55.41 11.61 55.21 11.62L55.21 11.62L55.21 11.62Q54.35 11.68 53.68 11.25L53.68 11.25L53.68 11.25Q53.20 10.94 52.86 10.48L52.86 10.48L52.86 10.48Q52.53 10.01 52.29 9.53L52.29 9.53L52.29 9.53Q52.22 9.37 52.14 9.21L52.14 9.21L52.14 9.21Q52.07 9.05 51.97 8.91L51.97 8.91L51.97 8.91Q51.90 8.78 51.80 8.70L51.80 8.70L51.80 8.70Q51.71 8.61 51.61 8.56L51.61 8.56L51.61 8.56Q51.51 8.51 51.38 8.48L51.38 8.48L51.38 8.48Q51.26 8.46 51.11 8.46L51.11 8.46L51.11 8.46Q50.98 8.46 50.81 8.48L50.81 8.48L50.81 8.48Q50.63 8.50 50.42 8.51L50.42 8.51L50.29 8.52L50.29 8.52Q50.13 8.53 49.95 8.56L49.95 8.56L49.95 8.56Q49.78 8.59 49.66 8.70L49.66 8.70L49.66 8.70Q49.61 8.74 49.56 8.81L49.56 8.81L49.56 8.81Q49.52 8.88 49.49 8.98L49.49 8.98L49.49 8.98Q49.45 9.06 49.42 9.16L49.42 9.16L49.42 9.16Q49.39 9.26 49.36 9.37L49.36 9.37L49.36 9.37Q49.33 9.43 49.27 9.61L49.27 9.61L49.27 9.61Q49.10 9.82 48.99 9.78L48.99 9.78L48.99 9.78Q48.93 9.75 48.91 9.64L48.91 9.64L48.91 9.64Q48.90 9.54 48.91 9.45L48.91 9.45L48.91 9.45Q48.91 9.36 48.95 9.26L48.95 9.26L48.95 9.26Q49.07 8.89 49.23 8.52L49.23 8.52L49.23 8.52Q49.40 8.15 49.57 7.78L49.57 7.78L49.57 7.78Q49.70 7.49 49.83 7.21L49.83 7.21L49.83 7.21Q49.96 6.92 50.08 6.62L50.08 6.62L50.08 6.62Q50.13 6.48 50.19 6.34L50.19 6.34L50.19 6.34Q50.24 6.20 50.30 6.06L50.30 6.06L50.41 5.81L50.41 5.81Q50.50 5.63 50.55 5.58ZM50.76 6.49L50.76 6.49L50.76 6.49Q50.63 6.49 50.57 6.60L50.57 6.60L50.57 6.60Q50.52 6.64 50.47 6.75L50.47 6.75L50.47 6.75Q50.41 6.84 50.36 6.96L50.36 6.96L50.36 6.96Q50.32 7.08 50.27 7.21L50.27 7.21L50.27 7.21Q50.18 7.49 50.15 7.67L50.15 7.67L50.15 7.67Q50.10 8.00 50.26 8.09L50.26 8.09L50.26 8.09Q50.31 8.12 50.35 8.12L50.35 8.12L50.35 8.12Q50.43 8.13 50.53 8.13L50.53 8.13L50.53 8.13Q50.64 8.13 50.78 8.13L50.78 8.13L50.78 8.13Q50.89 8.13 51.05 8.13L51.05 8.13L51.05 8.13Q51.21 8.12 51.32 8.09L51.32 8.09L51.42 8.06L51.45 7.96L51.45 7.96Q51.48 7.84 51.43 7.67L51.43 7.67L51.43 7.67Q51.39 7.51 51.28 7.28L51.28 7.28L51.28 7.28Q51.17 7.05 51.09 6.88L51.09 6.88L51.09 6.88Q51.01 6.71 50.96 6.60L50.96 6.60L50.96 6.60Q50.88 6.48 50.76 6.49ZM57.37 9.34L57.37 9.34L57.37 9.34Q57.46 9.40 57.46 9.50L57.46 9.50L57.46 9.50Q57.46 9.72 57.19 9.72L57.19 9.72L57.19 9.72Q56.70 9.72 56.21 9.71L56.21 9.71L56.21 9.71Q55.71 9.69 55.22 9.73L55.22 9.73L55.22 9.73Q54.83 9.75 54.75 9.52L54.75 9.52L54.75 9.52Q54.71 9.41 54.71 9.19L54.71 9.19L54.71 9.19Q54.71 9.08 54.72 8.99L54.72 8.99L54.72 8.99Q54.72 8.91 54.72 8.85L54.72 8.85L54.72 8.85Q54.73 8.70 54.74 8.53L54.74 8.53L54.74 8.53Q54.75 8.37 54.74 8.22L54.74 8.22L54.74 8.22Q54.73 7.89 54.71 7.58L54.71 7.58L54.71 7.58Q54.70 7.27 54.71 6.94L54.71 6.94L54.71 6.94Q54.71 6.78 54.72 6.63L54.72 6.63L54.72 6.63Q54.73 6.47 54.73 6.31L54.73 6.31L54.73 6.31Q54.74 6.11 54.73 5.94L54.73 5.94L54.73 5.94Q54.73 5.78 54.71 5.64L54.71 5.64L54.71 5.64Q54.70 5.46 54.89 5.42L54.89 5.42L54.89 5.42Q55.15 5.37 55.17 5.74L55.17 5.74L55.17 5.74Q55.19 5.89 55.19 6.04L55.19 6.04L55.19 6.04Q55.20 6.19 55.21 6.32L55.21 6.32L55.21 6.50L55.19 6.76L55.19 6.76Q55.17 6.87 55.16 6.98L55.16 6.98L55.16 6.98Q55.15 7.09 55.15 7.19L55.15 7.19L55.15 7.19Q55.13 7.45 55.13 7.65L55.13 7.65L55.13 7.65Q55.13 7.84 55.14 7.97L55.14 7.97L55.14 7.97Q55.15 8.13 55.16 8.31L55.16 8.31L55.16 8.31Q55.16 8.49 55.15 8.69L55.15 8.69L55.15 8.69Q55.13 8.99 55.23 9.08L55.23 9.08L55.23 9.08Q55.30 9.17 55.55 9.19L55.55 9.19L55.55 9.19Q55.67 9.21 55.79 9.21L55.79 9.21L55.79 9.21Q55.91 9.22 56.03 9.24L56.03 9.24L56.03 9.24Q56.22 9.26 56.41 9.24L56.41 9.24L56.41 9.24Q56.60 9.22 56.79 9.25L56.79 9.25L56.79 9.25Q56.92 9.26 57.09 9.27L57.09 9.27L57.09 9.27Q57.26 9.28 57.37 9.34ZM61.59 9.34L61.59 9.34L61.59 9.34Q61.67 9.40 61.67 9.50L61.67 9.50L61.67 9.50Q61.68 9.72 61.41 9.72L61.41 9.72L61.41 9.72Q60.92 9.72 60.42 9.71L60.42 9.71L60.42 9.71Q59.93 9.69 59.44 9.73L59.44 9.73L59.44 9.73Q59.05 9.75 58.97 9.52L58.97 9.52L58.97 9.52Q58.93 9.41 58.93 9.19L58.93 9.19L58.93 9.19Q58.93 9.08 58.94 8.99L58.94 8.99L58.94 8.99Q58.94 8.91 58.94 8.85L58.94 8.85L58.94 8.85Q58.95 8.70 58.96 8.53L58.96 8.53L58.96 8.53Q58.97 8.37 58.96 8.22L58.96 8.22L58.96 8.22Q58.95 7.89 58.93 7.58L58.93 7.58L58.93 7.58Q58.92 7.27 58.93 6.94L58.93 6.94L58.93 6.94Q58.93 6.78 58.94 6.63L58.94 6.63L58.94 6.63Q58.95 6.47 58.95 6.31L58.95 6.31L58.95 6.31Q58.95 6.11 58.95 5.94L58.95 5.94L58.95 5.94Q58.95 5.78 58.93 5.64L58.93 5.64L58.93 5.64Q58.92 5.46 59.10 5.42L59.10 5.42L59.10 5.42Q59.37 5.37 59.39 5.74L59.39 5.74L59.39 5.74Q59.40 5.89 59.41 6.04L59.41 6.04L59.41 6.04Q59.42 6.19 59.43 6.32L59.43 6.32L59.43 6.50L59.40 6.76L59.40 6.76Q59.39 6.87 59.38 6.98L59.38 6.98L59.38 6.98Q59.37 7.09 59.36 7.19L59.36 7.19L59.36 7.19Q59.35 7.45 59.35 7.65L59.35 7.65L59.35 7.65Q59.35 7.84 59.36 7.97L59.36 7.97L59.36 7.97Q59.37 8.13 59.37 8.31L59.37 8.31L59.37 8.31Q59.38 8.49 59.36 8.69L59.36 8.69L59.36 8.69Q59.35 8.99 59.45 9.08L59.45 9.08L59.45 9.08Q59.52 9.17 59.77 9.19L59.77 9.19L59.77 9.19Q59.89 9.21 60.01 9.21L60.01 9.21L60.01 9.21Q60.13 9.22 60.25 9.24L60.25 9.24L60.25 9.24Q60.44 9.26 60.63 9.24L60.63 9.24L60.63 9.24Q60.82 9.22 61.01 9.25L61.01 9.25L61.01 9.25Q61.13 9.26 61.31 9.27L61.31 9.27L61.31 9.27Q61.48 9.28 61.59 9.34ZM63.14 9.29L63.14 9.29L63.14 9.29Q63.14 8.87 63.14 8.46L63.14 8.46L63.14 8.46Q63.14 8.04 63.14 7.62L63.14 7.62L63.14 7.38L63.14 7.38Q63.14 7.20 63.13 7.01L63.13 7.01L63.13 7.01Q63.12 6.82 63.14 6.64L63.14 6.64L63.14 6.64Q63.14 6.43 63.14 6.23L63.14 6.23L63.14 6.23Q63.14 6.03 63.15 5.82L63.15 5.82L63.15 5.82Q63.15 5.58 63.27 5.48L63.27 5.48L63.27 5.48Q63.36 5.41 63.58 5.41L63.58 5.41L63.58 5.41Q63.70 5.41 63.78 5.40L63.78 5.40L63.78 5.40Q63.87 5.40 63.93 5.40L63.93 5.40L63.93 5.40Q64.20 5.39 64.46 5.40L64.46 5.40L64.46 5.40Q64.73 5.41 65.00 5.41L65.00 5.41L65.00 5.41Q65.14 5.40 65.28 5.40L65.28 5.40L65.28 5.40Q65.43 5.39 65.56 5.41L65.56 5.41L65.91 5.43L65.91 5.43Q65.97 5.43 66.02 5.43L66.02 5.43L66.02 5.43Q66.06 5.43 66.10 5.45L66.10 5.45L66.10 5.45Q66.24 5.52 66.23 5.66L66.23 5.66L66.23 5.66Q66.23 5.72 66.19 5.76L66.19 5.76L66.19 5.76Q66.14 5.80 66.09 5.82L66.09 5.82L66.09 5.82Q66.04 5.84 65.99 5.84L65.99 5.84L65.99 5.84Q65.93 5.85 65.89 5.85L65.89 5.85L65.89 5.85Q65.47 5.85 65.06 5.83L65.06 5.83L65.06 5.83Q65.02 5.82 64.96 5.82L64.96 5.82L64.96 5.82Q64.90 5.82 64.83 5.82L64.83 5.82L64.43 5.82L64.43 5.82Q64.27 5.82 64.15 5.83L64.15 5.83L64.15 5.83Q64.03 5.83 63.94 5.83L63.94 5.83L63.94 5.83Q63.83 5.84 63.75 5.86L63.75 5.86L63.75 5.86Q63.68 5.89 63.64 5.94L63.64 5.94L63.64 5.94Q63.59 6.02 63.60 6.15L63.60 6.15L63.60 6.15Q63.60 6.20 63.60 6.24L63.60 6.24L63.60 6.24Q63.60 6.28 63.59 6.32L63.59 6.32L63.59 6.32Q63.58 6.40 63.57 6.49L63.57 6.49L63.57 6.49Q63.57 6.58 63.57 6.69L63.57 6.69L63.57 6.69Q63.57 6.88 63.72 7.01L63.72 7.01L63.72 7.01Q63.85 7.12 64.17 7.10L64.17 7.10L64.17 7.10Q64.31 7.10 64.45 7.08L64.45 7.08L64.45 7.08Q64.59 7.06 64.74 7.07L64.74 7.07L64.74 7.07Q64.80 7.07 64.90 7.07L64.90 7.07L64.90 7.07Q65.00 7.08 65.13 7.07L65.13 7.07L65.13 7.07Q65.41 7.06 65.50 7.16L65.50 7.16L65.50 7.16Q65.54 7.21 65.53 7.32L65.53 7.32L65.53 7.32Q65.51 7.44 65.34 7.47L65.34 7.47L65.34 7.47Q65.18 7.50 65.08 7.50L65.08 7.50L65.08 7.50Q64.96 7.51 64.84 7.50L64.84 7.50L64.84 7.50Q64.72 7.50 64.60 7.51L64.60 7.51L64.60 7.51Q64.45 7.52 64.29 7.51L64.29 7.51L64.29 7.51Q64.13 7.51 63.96 7.49L63.96 7.49L63.96 7.49Q63.94 7.49 63.92 7.49L63.92 7.49L63.92 7.49Q63.89 7.49 63.87 7.49L63.87 7.49L63.86 7.49L63.86 7.49Q63.79 7.47 63.71 7.52L63.71 7.52L63.71 7.52Q63.59 7.59 63.57 7.78L63.57 7.78L63.57 7.78Q63.56 7.96 63.57 8.09L63.57 8.09L63.57 8.09Q63.58 8.16 63.58 8.22L63.58 8.22L63.58 8.22Q63.59 8.29 63.58 8.33L63.58 8.33L63.58 8.33Q63.57 8.44 63.56 8.53L63.56 8.53L63.56 8.53Q63.55 8.63 63.53 8.74L63.53 8.74L63.53 8.74Q63.51 9.00 63.60 9.13L63.60 9.13L63.60 9.13Q63.72 9.28 64.00 9.28L64.00 9.28L64.00 9.28Q64.23 9.28 64.46 9.27L64.46 9.27L64.46 9.27Q64.70 9.26 64.93 9.25L64.93 9.25L64.93 9.25Q65.14 9.24 65.36 9.26L65.36 9.26L65.36 9.26Q65.58 9.28 65.80 9.28L65.80 9.28L65.80 9.28Q65.88 9.28 66.02 9.28L66.02 9.28L66.02 9.28Q66.16 9.28 66.23 9.32L66.23 9.32L66.23 9.32Q66.30 9.36 66.31 9.44L66.31 9.44L66.31 9.44Q66.38 9.69 66.10 9.70L66.10 9.70L66.10 9.70Q65.65 9.72 65.21 9.71L65.21 9.71L65.21 9.71Q64.78 9.71 64.34 9.71L64.34 9.71L64.34 9.71Q64.31 9.71 64.29 9.72L64.29 9.72L64.29 9.72Q64.26 9.72 64.24 9.72L64.24 9.72L64.24 9.72Q64.09 9.72 63.97 9.72L63.97 9.72L63.97 9.72Q63.86 9.72 63.79 9.71L63.79 9.71L63.79 9.71Q63.74 9.71 63.67 9.71L63.67 9.71L63.67 9.71Q63.61 9.71 63.53 9.70L63.53 9.70L63.53 9.70Q63.46 9.69 63.41 9.69L63.41 9.69L63.41 9.69Q63.37 9.68 63.35 9.67L63.35 9.67L63.35 9.67Q63.14 9.61 63.14 9.29ZM68.24 9.56L68.24 9.56L68.24 9.56Q68.21 9.68 68.02 9.70L68.02 9.70L68.02 9.70Q67.83 9.69 67.83 9.49L67.83 9.49L67.83 9.49Q67.83 8.96 67.81 8.41L67.81 8.41L67.81 8.41Q67.79 7.87 67.84 7.33L67.84 7.33L67.84 7.33L67.84 7.33Q67.84 7.17 67.84 7.02L67.84 7.02L67.84 7.02Q67.85 6.87 67.83 6.73L67.83 6.73L67.78 6.21L67.78 6.21Q67.76 5.99 67.85 5.74L67.85 5.74L67.85 5.74Q67.92 5.56 68.03 5.52L68.03 5.52L68.03 5.52Q68.13 5.50 68.23 5.62L68.23 5.62L68.23 5.62Q68.33 5.72 68.37 5.80L68.37 5.80L68.37 5.80Q68.46 5.93 68.55 6.03L68.55 6.03L68.55 6.03Q68.65 6.13 68.74 6.22L68.74 6.22L68.74 6.22Q68.81 6.31 68.89 6.37L68.89 6.37L68.89 6.37Q68.97 6.44 69.04 6.52L69.04 6.52L69.04 6.52Q69.11 6.59 69.19 6.70L69.19 6.70L69.19 6.70Q69.28 6.80 69.37 6.95L69.37 6.95L69.67 7.41L69.67 7.41Q69.71 7.46 69.74 7.52L69.74 7.52L69.74 7.52Q69.78 7.58 69.84 7.66L69.84 7.66L69.84 7.67L69.84 7.67Q69.99 7.86 70.14 8.03L70.14 8.03L70.14 8.03Q70.22 8.11 70.29 8.19L70.29 8.19L70.29 8.19Q70.37 8.26 70.45 8.33L70.45 8.33L70.45 8.33Q70.53 8.42 70.63 8.39L70.63 8.39L70.63 8.39Q70.79 8.35 70.78 8.07L70.78 8.07L70.78 8.07Q70.78 8.00 70.77 7.93L70.77 7.93L70.77 7.93Q70.76 7.85 70.76 7.78L70.76 7.78L70.76 7.78Q70.75 7.72 70.75 7.67L70.75 7.67L70.75 7.67Q70.74 7.62 70.74 7.56L70.74 7.56L70.74 7.56Q70.74 7.53 70.73 7.50L70.73 7.50L70.73 7.50Q70.73 7.46 70.73 7.42L70.73 7.42L70.73 7.42Q70.76 6.82 70.69 6.30L70.69 6.30L70.69 6.30Q70.68 6.27 70.68 6.19L70.68 6.19L70.68 6.19Q70.68 6.11 70.70 5.99L70.70 5.99L70.70 5.99Q70.70 5.84 70.74 5.67L70.74 5.67L70.74 5.67Q70.76 5.42 70.96 5.42L70.96 5.42L70.96 5.42Q71.18 5.42 71.18 5.68L71.18 5.68L71.18 5.68Q71.18 5.89 71.19 6.11L71.19 6.11L71.19 6.11Q71.20 6.32 71.20 6.54L71.20 6.54L71.20 6.54Q71.21 6.85 71.19 7.16L71.19 7.16L71.19 7.16Q71.17 7.48 71.18 7.79L71.18 7.79L71.18 7.79Q71.20 8.00 71.19 8.21L71.19 8.21L71.19 8.21Q71.19 8.42 71.18 8.62L71.18 8.62L71.18 8.62Q71.18 8.74 71.19 8.85L71.19 8.85L71.19 8.85Q71.19 8.96 71.19 9.06L71.19 9.06L71.19 9.34L71.19 9.34Q71.18 9.38 71.18 9.42L71.18 9.42L71.18 9.42Q71.18 9.46 71.18 9.50L71.18 9.50L71.18 9.50Q71.17 9.50 71.17 9.51L71.17 9.51L71.17 9.51Q71.17 9.52 71.16 9.52L71.16 9.52L71.16 9.52Q71.09 9.62 70.93 9.62L70.93 9.62L70.93 9.62Q70.75 9.63 70.65 9.50L70.65 9.50L70.65 9.50Q70.55 9.37 70.46 9.22L70.46 9.22L70.46 9.22Q70.38 9.07 70.27 8.93L70.27 8.93L70.27 8.93Q70.15 8.76 70.00 8.58L70.00 8.58L70.00 8.58Q69.86 8.39 69.68 8.18L69.68 8.18L69.68 8.18Q69.61 8.10 69.49 7.90L69.49 7.90L69.25 7.52L69.25 7.52Q69.16 7.38 69.07 7.24L69.07 7.24L69.07 7.24Q68.98 7.10 68.89 6.97L68.89 6.97L68.89 6.97Q68.84 6.92 68.80 6.87L68.80 6.87L68.80 6.87Q68.75 6.81 68.69 6.77L68.69 6.77L68.69 6.77Q68.64 6.73 68.57 6.71L68.57 6.71L68.57 6.71Q68.50 6.69 68.43 6.71L68.43 6.71L68.43 6.71Q68.25 6.76 68.26 7.08L68.26 7.08L68.26 7.08Q68.27 7.31 68.27 7.52L68.27 7.52L68.27 7.52Q68.28 7.72 68.29 7.90L68.29 7.90L68.29 7.90Q68.30 8.05 68.29 8.19L68.29 8.19L68.29 8.19Q68.27 8.33 68.27 8.47L68.27 8.47L68.27 9.00L68.27 9.00Q68.27 9.17 68.26 9.31L68.26 9.31L68.26 9.31Q68.25 9.45 68.24 9.56ZM76.69 9.26L76.69 9.26L76.69 9.26Q76.18 9.71 75.47 9.75L75.47 9.75L75.47 9.75Q74.78 9.78 74.16 9.53L74.16 9.53L74.16 9.52L74.14 9.52L74.14 9.52Q74.04 9.49 73.85 9.33L73.85 9.33L73.85 9.33Q73.66 9.17 73.60 9.08L73.60 9.08L73.60 9.08Q73.50 8.95 73.42 8.78L73.42 8.78L73.42 8.78Q73.34 8.61 73.26 8.45L73.26 8.45L73.26 8.45Q73.11 8.16 73.10 7.95L73.10 7.95L73.10 7.95Q73.09 7.85 73.09 7.71L73.09 7.71L73.09 7.71Q73.10 7.58 73.11 7.41L73.11 7.41L73.11 7.41Q73.17 6.66 73.58 6.02L73.58 6.02L73.58 6.02Q73.62 5.97 73.71 5.89L73.71 5.89L73.71 5.89Q73.81 5.81 73.96 5.73L73.96 5.73L73.96 5.73Q74.27 5.56 74.49 5.49L74.49 5.49L74.49 5.49Q74.63 5.44 74.81 5.42L74.81 5.42L74.81 5.42Q75.22 5.37 75.65 5.42L75.65 5.42L75.65 5.42Q76.08 5.48 76.45 5.69L76.45 5.69L76.45 5.69Q76.51 5.72 76.57 5.77L76.57 5.77L76.57 5.77Q76.64 5.82 76.73 5.89L76.73 5.89L76.73 5.89Q76.90 6.02 76.92 6.15L76.92 6.15L76.92 6.15Q76.92 6.21 76.88 6.27L76.88 6.27L76.88 6.27Q76.80 6.36 76.73 6.36L76.73 6.36L76.73 6.36Q76.65 6.36 76.56 6.30L76.56 6.30L76.56 6.30Q76.46 6.23 76.41 6.19L76.41 6.19L76.41 6.19Q76.29 6.12 76.22 6.07L76.22 6.07L76.22 6.07Q76.15 6.02 76.13 6.01L76.13 6.01L76.13 6.01Q75.78 5.82 75.28 5.82L75.28 5.82L75.28 5.82Q75.17 5.82 75.03 5.83L75.03 5.83L75.03 5.83Q74.89 5.84 74.74 5.87L74.74 5.87L74.72 5.87L74.71 5.88L74.71 5.88Q73.84 6.13 73.58 7.06L73.58 7.06L73.58 7.06Q73.49 7.40 73.54 7.70L73.54 7.70L73.54 7.70Q73.60 8.00 73.68 8.31L73.68 8.31L73.68 8.31Q73.81 8.79 74.11 9.00L74.11 9.00L74.11 9.00Q74.41 9.21 74.87 9.30L74.87 9.30L74.87 9.30L74.87 9.30Q75.00 9.32 75.10 9.32L75.10 9.32L75.10 9.32Q75.21 9.32 75.31 9.30L75.31 9.30L75.31 9.30Q75.41 9.28 75.52 9.26L75.52 9.26L75.52 9.26Q75.63 9.24 75.75 9.23L75.75 9.23L75.75 9.23Q76.23 9.17 76.44 8.88L76.44 8.88L76.44 8.87L76.44 8.87Q76.59 8.64 76.56 8.22L76.56 8.22L76.56 8.22Q76.56 8.00 76.41 7.87L76.41 7.87L76.41 7.87Q76.22 7.70 75.89 7.71L75.89 7.71L75.35 7.73L75.35 7.73Q75.26 7.74 75.19 7.74L75.19 7.74L75.19 7.74Q75.12 7.75 75.07 7.75L75.07 7.75L75.07 7.75Q74.81 7.71 74.84 7.51L74.84 7.51L74.84 7.51Q74.86 7.38 75.03 7.33L75.03 7.33L75.03 7.33Q75.34 7.31 75.64 7.33L75.64 7.33L75.64 7.33Q75.93 7.35 76.25 7.33L76.25 7.33L76.54 7.31L76.54 7.31Q76.74 7.29 76.84 7.38L76.84 7.38L76.84 7.38Q76.95 7.46 76.95 7.66L76.95 7.66L76.95 7.66Q76.97 7.87 76.97 7.98L76.97 7.98L76.97 7.98Q76.97 8.16 76.98 8.36L76.98 8.36L76.98 8.36Q76.99 8.57 76.95 8.74L76.95 8.74L76.95 8.74Q76.90 9.00 76.69 9.26ZM78.74 9.29L78.74 9.29L78.74 9.29Q78.73 8.87 78.73 8.46L78.73 8.46L78.73 8.46Q78.74 8.04 78.74 7.62L78.74 7.62L78.74 7.38L78.74 7.38Q78.74 7.20 78.73 7.01L78.73 7.01L78.73 7.01Q78.72 6.82 78.73 6.64L78.73 6.64L78.73 6.64Q78.74 6.43 78.74 6.23L78.74 6.23L78.74 6.23Q78.74 6.03 78.74 5.82L78.74 5.82L78.74 5.82Q78.74 5.58 78.86 5.48L78.86 5.48L78.86 5.48Q78.95 5.41 79.17 5.41L79.17 5.41L79.17 5.41Q79.29 5.41 79.38 5.40L79.38 5.40L79.38 5.40Q79.46 5.40 79.52 5.40L79.52 5.40L79.52 5.40Q79.79 5.39 80.06 5.40L80.06 5.40L80.06 5.40Q80.32 5.41 80.59 5.41L80.59 5.41L80.59 5.41Q80.73 5.40 80.88 5.40L80.88 5.40L80.88 5.40Q81.02 5.39 81.16 5.41L81.16 5.41L81.50 5.43L81.50 5.43Q81.57 5.43 81.61 5.43L81.61 5.43L81.61 5.43Q81.66 5.43 81.69 5.45L81.69 5.45L81.69 5.45Q81.83 5.52 81.83 5.66L81.83 5.66L81.83 5.66Q81.82 5.72 81.78 5.76L81.78 5.76L81.78 5.76Q81.74 5.80 81.69 5.82L81.69 5.82L81.69 5.82Q81.63 5.84 81.58 5.84L81.58 5.84L81.58 5.84Q81.53 5.85 81.48 5.85L81.48 5.85L81.48 5.85Q81.07 5.85 80.66 5.83L80.66 5.83L80.66 5.83Q80.62 5.82 80.55 5.82L80.55 5.82L80.55 5.82Q80.49 5.82 80.42 5.82L80.42 5.82L80.02 5.82L80.02 5.82Q79.86 5.82 79.74 5.83L79.74 5.83L79.74 5.83Q79.62 5.83 79.54 5.83L79.54 5.83L79.54 5.83Q79.42 5.84 79.34 5.86L79.34 5.86L79.34 5.86Q79.27 5.89 79.24 5.94L79.24 5.94L79.24 5.94Q79.18 6.02 79.19 6.15L79.19 6.15L79.19 6.15Q79.19 6.20 79.19 6.24L79.19 6.24L79.19 6.24Q79.19 6.28 79.19 6.32L79.19 6.32L79.19 6.32Q79.17 6.40 79.17 6.49L79.17 6.49L79.17 6.49Q79.16 6.58 79.17 6.69L79.17 6.69L79.17 6.69Q79.17 6.88 79.32 7.01L79.32 7.01L79.32 7.01Q79.44 7.12 79.76 7.10L79.76 7.10L79.76 7.10Q79.91 7.10 80.05 7.08L80.05 7.08L80.05 7.08Q80.19 7.06 80.33 7.07L80.33 7.07L80.33 7.07Q80.39 7.07 80.49 7.07L80.49 7.07L80.49 7.07Q80.59 7.08 80.73 7.07L80.73 7.07L80.73 7.07Q81.00 7.06 81.09 7.16L81.09 7.16L81.09 7.16Q81.13 7.21 81.12 7.32L81.12 7.32L81.12 7.32Q81.10 7.44 80.93 7.47L80.93 7.47L80.93 7.47Q80.77 7.50 80.68 7.50L80.68 7.50L80.68 7.50Q80.55 7.51 80.44 7.50L80.44 7.50L80.44 7.50Q80.32 7.50 80.19 7.51L80.19 7.51L80.19 7.51Q80.04 7.52 79.88 7.51L79.88 7.51L79.88 7.51Q79.73 7.51 79.56 7.49L79.56 7.49L79.56 7.49Q79.54 7.49 79.51 7.49L79.51 7.49L79.51 7.49Q79.48 7.49 79.46 7.49L79.46 7.49L79.45 7.49L79.45 7.49Q79.38 7.47 79.30 7.52L79.30 7.52L79.30 7.52Q79.18 7.59 79.17 7.78L79.17 7.78L79.17 7.78Q79.15 7.96 79.17 8.09L79.17 8.09L79.17 8.09Q79.17 8.16 79.18 8.22L79.18 8.22L79.18 8.22Q79.18 8.29 79.17 8.33L79.17 8.33L79.17 8.33Q79.16 8.44 79.15 8.53L79.15 8.53L79.15 8.53Q79.14 8.63 79.13 8.74L79.13 8.74L79.13 8.74Q79.11 9.00 79.19 9.13L79.19 9.13L79.19 9.13Q79.31 9.28 79.60 9.28L79.60 9.28L79.60 9.28Q79.82 9.28 80.06 9.27L80.06 9.27L80.06 9.27Q80.29 9.26 80.52 9.25L80.52 9.25L80.52 9.25Q80.73 9.24 80.95 9.26L80.95 9.26L80.95 9.26Q81.18 9.28 81.40 9.28L81.40 9.28L81.40 9.28Q81.48 9.28 81.61 9.28L81.61 9.28L81.61 9.28Q81.75 9.28 81.83 9.32L81.83 9.32L81.83 9.32Q81.89 9.36 81.90 9.44L81.90 9.44L81.90 9.44Q81.98 9.69 81.69 9.70L81.69 9.70L81.69 9.70Q81.24 9.72 80.80 9.71L80.80 9.71L80.80 9.71Q80.37 9.71 79.93 9.71L79.93 9.71L79.93 9.71Q79.91 9.71 79.88 9.72L79.88 9.72L79.88 9.72Q79.86 9.72 79.84 9.72L79.84 9.72L79.84 9.72Q79.68 9.72 79.57 9.72L79.57 9.72L79.57 9.72Q79.45 9.72 79.38 9.71L79.38 9.71L79.38 9.71Q79.33 9.71 79.27 9.71L79.27 9.71L79.27 9.71Q79.20 9.71 79.12 9.70L79.12 9.70L79.12 9.70Q79.05 9.69 79.01 9.69L79.01 9.69L79.01 9.69Q78.96 9.68 78.94 9.67L78.94 9.67L78.94 9.67Q78.74 9.61 78.74 9.29Z"></path></g></svg>