<svg data-v-423bf9ae="" xmlns="http://www.w3.org/2000/svg" viewBox="0 0 805.5443206089703 207" class="iconAboveSlogan"><!----><!----><!----><g data-v-423bf9ae="" id="13bc5291-96ae-4d4b-96a6-f5543c05ebab" fill="white" transform="matrix(13.577733526672345,0,0,13.577733526672345,0.045261009984017164,30.372701292413495)"><path d="M2.67 9.34L2.67 9.34L2.67 9.34Q2.75 9.40 2.75 9.50L2.75 9.50L2.75 9.50Q2.75 9.72 2.48 9.72L2.48 9.72L2.48 9.72Q1.99 9.72 1.50 9.71L1.50 9.71L1.50 9.71Q1.00 9.69 0.51 9.73L0.51 9.73L0.51 9.73Q0.12 9.75 0.04 9.52L0.04 9.52L0.04 9.52Q0 9.41 0 9.19L0 9.19L0 9.19Q0.01 9.08 0.01 8.99L0.01 8.99L0.01 8.99Q0.01 8.91 0.01 8.85L0.01 8.85L0.01 8.85Q0.02 8.70 0.03 8.53L0.03 8.53L0.03 8.53Q0.04 8.37 0.03 8.22L0.03 8.22L0.03 8.22Q0.02 7.89 0.01 7.58L0.01 7.58L0.01 7.58Q-0.01 7.27 0 6.94L0 6.94L0 6.94Q0.01 6.78 0.01 6.63L0.01 6.63L0.01 6.63Q0.02 6.47 0.02 6.31L0.02 6.31L0.02 6.31Q0.03 6.11 0.02 5.94L0.02 5.94L0.02 5.94Q0.02 5.78 0.01 5.64L0.01 5.64L0.01 5.64Q-0.01 5.46 0.18 5.42L0.18 5.42L0.18 5.42Q0.44 5.37 0.46 5.74L0.46 5.74L0.46 5.74Q0.48 5.89 0.49 6.04L0.49 6.04L0.49 6.04Q0.49 6.19 0.51 6.32L0.51 6.32L0.51 6.50L0.48 6.76L0.48 6.76Q0.46 6.87 0.45 6.98L0.45 6.98L0.45 6.98Q0.44 7.09 0.44 7.19L0.44 7.19L0.44 7.19Q0.42 7.45 0.42 7.65L0.42 7.65L0.42 7.65Q0.42 7.84 0.43 7.97L0.43 7.97L0.43 7.97Q0.44 8.13 0.45 8.31L0.45 8.31L0.45 8.31Q0.45 8.49 0.44 8.69L0.44 8.69L0.44 8.69Q0.42 8.99 0.52 9.08L0.52 9.08L0.52 9.08Q0.59 9.17 0.84 9.19L0.84 9.19L0.84 9.19Q0.96 9.21 1.08 9.21L1.08 9.21L1.08 9.21Q1.20 9.22 1.33 9.24L1.33 9.24L1.33 9.24Q1.51 9.26 1.70 9.24L1.70 9.24L1.70 9.24Q1.89 9.22 2.08 9.25L2.08 9.25L2.08 9.25Q2.21 9.26 2.38 9.27L2.38 9.27L2.38 9.27Q2.56 9.28 2.67 9.34ZM5.63 9.69L5.63 9.69L5.63 9.69Q5.49 9.65 5.35 9.58L5.35 9.58L5.35 9.58Q5.21 9.52 5.08 9.43L5.08 9.43L5.08 9.43Q4.94 9.34 4.83 9.24L4.83 9.24L4.83 9.24Q4.71 9.13 4.63 9.01L4.63 9.01L4.63 9.01Q4.52 8.84 4.47 8.66L4.47 8.66L4.47 8.66Q4.42 8.48 4.33 8.29L4.33 8.29L4.33 8.29Q4.27 8.13 4.26 7.96L4.26 7.96L4.26 7.96Q4.25 7.88 4.24 7.79L4.24 7.79L4.24 7.79Q4.23 7.70 4.23 7.62L4.23 7.62L4.23 7.62Q4.22 7.54 4.22 7.48L4.22 7.48L4.22 7.48Q4.22 7.42 4.22 7.38L4.22 7.38L4.22 7.38Q4.22 7.25 4.23 7.11L4.23 7.11L4.23 7.11Q4.25 6.97 4.29 6.82L4.29 6.82L4.29 6.82Q4.29 6.77 4.33 6.69L4.33 6.69L4.33 6.69Q4.40 6.49 4.50 6.31L4.50 6.31L4.50 6.31Q4.61 6.13 4.74 5.97L4.74 5.97L4.74 5.97Q5.01 5.67 5.49 5.43L5.49 5.43L5.49 5.43Q5.71 5.34 5.95 5.35L5.95 5.35L5.95 5.35Q6.10 5.36 6.25 5.39L6.25 5.39L6.25 5.39Q6.37 5.41 6.46 5.42L6.46 5.42L6.46 5.42Q6.56 5.43 6.62 5.44L6.62 5.44L6.62 5.44Q7.15 5.50 7.55 5.91L7.55 5.91L7.55 5.91Q7.64 6.00 7.72 6.10L7.72 6.10L7.72 6.10Q7.80 6.21 7.88 6.33L7.88 6.33L7.91 6.38L7.91 6.38Q7.92 6.41 7.92 6.42L7.92 6.42L7.92 6.42Q7.93 6.43 7.94 6.45L7.94 6.45L7.94 6.45Q8.05 6.72 8.15 7.13L8.15 7.13L8.15 7.13Q8.24 7.51 8.18 7.83L8.18 7.83L8.18 7.83Q8.13 8.02 8.07 8.19L8.07 8.19L8.07 8.19Q8.01 8.36 7.96 8.53L7.96 8.53L7.96 8.53Q7.70 9.45 6.76 9.69L6.76 9.69L6.71 9.70L6.71 9.70Q6.65 9.71 6.57 9.73L6.57 9.73L6.57 9.73Q6.49 9.74 6.38 9.75L6.38 9.75L6.38 9.75Q6.20 9.78 6.01 9.76L6.01 9.76L6.01 9.76Q5.82 9.75 5.63 9.69ZM6.32 5.78L6.32 5.78L6.32 5.78Q5.95 5.78 5.65 5.87L5.65 5.87L5.65 5.87Q5.35 5.95 5.11 6.19L5.11 6.19L5.11 6.19Q4.79 6.52 4.70 6.92L4.70 6.92L4.70 6.92Q4.61 7.32 4.70 7.81L4.70 7.81L4.76 8.15L4.76 8.15Q4.78 8.24 4.79 8.30L4.79 8.30L4.79 8.30Q4.81 8.36 4.81 8.37L4.81 8.37L4.81 8.37Q4.85 8.52 4.98 8.66L4.98 8.66L4.98 8.66Q5.10 8.80 5.20 8.90L5.20 8.90L5.20 8.90Q5.26 8.96 5.31 9.02L5.31 9.02L5.31 9.02Q5.37 9.08 5.43 9.13L5.43 9.13L5.43 9.13Q5.53 9.21 5.77 9.29L5.77 9.29L5.78 9.29L5.78 9.29Q5.91 9.32 6.07 9.31L6.07 9.31L6.07 9.31Q6.23 9.30 6.43 9.26L6.43 9.26L6.43 9.26Q6.52 9.23 6.62 9.22L6.62 9.22L6.62 9.22Q6.72 9.21 6.82 9.18L6.82 9.18L6.82 9.18Q7.08 9.12 7.25 8.91L7.25 8.91L7.25 8.91L7.25 8.90L7.25 8.90Q7.36 8.77 7.44 8.57L7.44 8.57L7.44 8.57Q7.51 8.37 7.54 8.32L7.54 8.32L7.54 8.32Q7.88 7.65 7.64 6.87L7.64 6.87L7.64 6.86L7.64 6.86Q7.61 6.79 7.58 6.72L7.58 6.72L7.58 6.72Q7.55 6.65 7.51 6.58L7.51 6.58L7.51 6.58Q7.24 6.18 6.87 6.00L6.87 6.00L6.87 6.00Q6.86 6.00 6.81 5.97L6.81 5.97L6.81 5.97Q6.76 5.94 6.67 5.89L6.67 5.89L6.67 5.89Q6.55 5.81 6.32 5.78L6.32 5.78ZM13.15 5.42L13.15 5.42L13.15 5.42Q13.36 5.41 13.36 5.63L13.36 5.63L13.36 5.63Q13.36 5.91 13.35 6.19L13.35 6.19L13.35 6.19Q13.35 6.46 13.32 6.75L13.32 6.75L13.32 6.75Q13.28 7.01 13.31 7.27L13.31 7.27L13.31 7.27Q13.34 7.53 13.34 7.79L13.34 7.79L13.34 7.84L13.32 8.31L13.32 8.31Q13.30 8.46 13.28 8.57L13.28 8.57L13.28 8.57Q13.26 8.69 13.25 8.76L13.25 8.76L13.23 8.79L13.22 8.84L13.22 8.85L13.22 8.85Q13.20 8.93 13.15 9.01L13.15 9.01L13.15 9.01Q13.09 9.10 13.03 9.18L13.03 9.18L13.03 9.18Q12.96 9.26 12.89 9.32L12.89 9.32L12.89 9.32Q12.81 9.39 12.75 9.45L12.75 9.45L12.75 9.45Q12.63 9.55 12.50 9.61L12.50 9.61L12.50 9.61Q12.36 9.67 12.21 9.70L12.21 9.70L12.21 9.70Q12.06 9.73 11.90 9.74L11.90 9.74L11.90 9.74Q11.75 9.75 11.61 9.75L11.61 9.75L11.61 9.75Q11.35 9.75 11.12 9.69L11.12 9.69L11.12 9.69Q10.88 9.63 10.65 9.50L10.65 9.50L10.65 9.50Q10.64 9.48 10.64 9.47L10.64 9.47L10.64 9.47Q10.62 9.47 10.60 9.45L10.60 9.45L10.60 9.45Q10.59 9.44 10.58 9.43L10.58 9.43L10.58 9.43Q10.55 9.41 10.54 9.40L10.54 9.40L10.54 9.40Q10.53 9.39 10.51 9.37L10.51 9.37L10.51 9.37Q10.17 9.01 10.08 8.47L10.08 8.47L10.08 8.47Q10.04 8.20 10.02 7.95L10.02 7.95L10.02 7.95Q10.01 7.69 10.02 7.44L10.02 7.44L10.02 7.44Q10.03 7.38 10.04 7.32L10.04 7.32L10.04 7.32Q10.04 7.27 10.05 7.21L10.05 7.21L10.05 7.21Q10.06 7.12 10.05 7.05L10.05 7.05L10.05 7.05Q10.05 6.97 10.04 6.90L10.04 6.90L10.04 6.90Q10.00 6.36 10.02 5.63L10.02 5.63L10.02 5.63Q10.03 5.48 10.20 5.42L10.20 5.42L10.20 5.42Q10.34 5.38 10.43 5.45L10.43 5.45L10.43 5.45Q10.49 5.50 10.49 5.57L10.49 5.57L10.49 5.57Q10.49 5.67 10.49 5.82L10.49 5.82L10.49 5.82Q10.49 5.97 10.48 6.17L10.48 6.17L10.48 6.17Q10.48 6.34 10.47 6.51L10.47 6.51L10.47 6.51Q10.45 6.68 10.45 6.84L10.45 6.84L10.45 6.84Q10.45 7.05 10.44 7.24L10.44 7.24L10.44 7.24Q10.42 7.44 10.42 7.64L10.42 7.64L10.42 7.64Q10.42 8.02 10.55 8.50L10.55 8.50L10.55 8.50Q10.56 8.56 10.58 8.61L10.58 8.61L10.58 8.61Q10.60 8.66 10.61 8.72L10.61 8.72L10.61 8.72Q10.71 9.04 10.92 9.16L10.92 9.16L10.92 9.16Q11.08 9.26 11.51 9.28L11.51 9.28L11.51 9.28Q11.57 9.29 11.62 9.30L11.62 9.30L11.62 9.30Q11.68 9.31 11.74 9.31L11.74 9.31L11.74 9.31L11.75 9.31L11.75 9.31Q12.08 9.31 12.33 9.19L12.33 9.19L12.33 9.19Q12.57 9.08 12.74 8.79L12.74 8.79L12.74 8.79Q12.88 8.56 12.88 8.08L12.88 8.08L12.88 8.08Q12.88 7.99 12.88 7.93L12.88 7.93L12.88 7.93Q12.88 7.86 12.89 7.82L12.89 7.82L12.89 7.82Q12.95 7.21 12.87 6.55L12.87 6.55L12.87 6.55Q12.86 6.46 12.89 6.22L12.89 6.22L12.89 6.22Q12.91 6.13 12.91 6.05L12.91 6.05L12.91 6.05Q12.92 5.97 12.92 5.92L12.92 5.92L12.92 5.92Q12.92 5.63 12.96 5.52L12.96 5.52L12.96 5.52Q13.02 5.42 13.15 5.42ZM15.44 9.70L15.44 9.70L15.44 9.70Q15.22 9.67 15.22 9.44L15.22 9.44L15.22 9.44Q15.21 9.07 15.21 8.72L15.21 8.72L15.21 8.72Q15.21 8.36 15.21 7.99L15.21 7.99L15.21 7.99Q15.21 7.79 15.23 7.58L15.23 7.58L15.23 7.58Q15.24 7.43 15.24 7.30L15.24 7.30L15.24 7.30Q15.24 7.17 15.24 7.06L15.24 7.06L15.24 7.06Q15.23 6.99 15.22 6.90L15.22 6.90L15.22 6.90Q15.22 6.80 15.21 6.67L15.21 6.67L15.21 6.67Q15.21 6.60 15.21 6.51L15.21 6.51L15.21 6.51Q15.22 6.41 15.22 6.28L15.22 6.28L15.22 6.28Q15.23 6.19 15.23 6.11L15.23 6.11L15.23 6.11Q15.24 6.04 15.24 5.99L15.24 5.99L15.24 5.84L15.24 5.83L15.24 5.78L15.24 5.78Q15.22 5.61 15.24 5.54L15.24 5.54L15.24 5.54Q15.26 5.49 15.33 5.44L15.33 5.44L15.33 5.44Q15.60 5.30 15.66 5.61L15.66 5.61L15.66 5.61Q15.72 5.84 15.73 6.07L15.73 6.07L15.73 6.07Q15.74 6.29 15.72 6.51L15.72 6.51L15.72 6.51L15.72 6.51Q15.70 6.73 15.71 6.94L15.71 6.94L15.71 6.94Q15.72 7.15 15.70 7.36L15.70 7.36L15.70 7.36Q15.67 7.55 15.66 7.68L15.66 7.68L15.66 7.68Q15.65 7.82 15.64 7.92L15.64 7.92L15.64 7.92Q15.63 8.05 15.63 8.20L15.63 8.20L15.63 8.20Q15.63 8.35 15.63 8.51L15.63 8.51L15.63 8.51Q15.64 8.54 15.64 8.59L15.64 8.59L15.64 8.59Q15.64 8.63 15.64 8.70L15.64 8.70L15.64 8.70Q15.64 8.80 15.64 8.91L15.64 8.91L15.64 8.91Q15.64 9.02 15.65 9.13L15.65 9.13L15.65 9.13Q15.65 9.20 15.65 9.27L15.65 9.27L15.65 9.27Q15.65 9.33 15.65 9.40L15.65 9.40L15.65 9.40Q15.65 9.54 15.64 9.55L15.64 9.55L15.64 9.55Q15.61 9.68 15.44 9.70ZM20.54 9.08L20.54 9.08L20.54 9.08Q20.42 9.23 20.31 9.34L20.31 9.34L20.31 9.34Q20.21 9.45 20.09 9.53L20.09 9.53L20.09 9.53Q19.97 9.60 19.83 9.66L19.83 9.66L19.83 9.66Q19.69 9.71 19.52 9.73L19.52 9.73L19.52 9.73Q19.43 9.74 19.33 9.74L19.33 9.74L19.33 9.74Q19.24 9.75 19.13 9.73L19.13 9.73L19.13 9.73Q18.98 9.72 18.83 9.72L18.83 9.72L18.83 9.72Q18.69 9.72 18.54 9.69L18.54 9.69L18.54 9.69Q18.21 9.61 17.99 9.46L17.99 9.46L17.99 9.46Q17.77 9.31 17.66 9.07L17.66 9.07L17.66 9.07Q17.51 8.74 17.83 8.73L17.83 8.73L17.83 8.73Q17.88 8.73 17.95 8.81L17.95 8.81L17.95 8.81Q18.03 8.89 18.07 8.93L18.07 8.93L18.07 8.93Q18.21 9.07 18.23 9.08L18.23 9.08L18.24 9.08L18.24 9.09L18.24 9.09Q18.57 9.32 19.13 9.32L19.13 9.32L19.13 9.32L19.14 9.32L19.14 9.32Q19.37 9.32 19.74 9.23L19.74 9.23L19.74 9.23Q20.09 9.14 20.21 8.87L20.21 8.87L20.21 8.87Q20.27 8.70 20.21 8.51L20.21 8.51L20.21 8.50L20.21 8.50Q20.04 8.14 19.54 8.02L19.54 8.02L18.70 7.80L18.70 7.80Q18.53 7.76 18.27 7.63L18.27 7.63L18.27 7.63Q18.14 7.56 18.05 7.51L18.05 7.51L18.05 7.51Q17.95 7.45 17.89 7.40L17.89 7.40L17.89 7.40Q17.61 7.19 17.56 6.99L17.56 6.99L17.56 6.99Q17.55 6.95 17.55 6.89L17.55 6.89L17.55 6.89Q17.55 6.83 17.55 6.74L17.55 6.74L17.55 6.74Q17.55 6.64 17.57 6.55L17.57 6.55L17.57 6.55Q17.58 6.46 17.60 6.36L17.60 6.36L17.60 6.36Q17.64 6.04 17.86 5.80L17.86 5.80L17.86 5.80Q17.96 5.69 18.11 5.62L18.11 5.62L18.11 5.62Q18.26 5.55 18.40 5.49L18.40 5.49L18.40 5.49Q18.59 5.40 18.80 5.40L18.80 5.40L18.80 5.40Q19.00 5.39 19.21 5.40L19.21 5.40L19.21 5.40Q19.88 5.42 20.25 5.87L20.25 5.87L20.25 5.87Q20.43 6.08 20.38 6.22L20.38 6.22L20.34 6.26L20.34 6.26Q20.23 6.32 20.08 6.19L20.08 6.19L20.08 6.19Q20.04 6.16 20.00 6.13L20.00 6.13L20.00 6.13Q19.97 6.09 19.93 6.06L19.93 6.06L19.93 6.06Q19.90 6.02 19.84 5.98L19.84 5.98L19.84 5.98Q19.79 5.95 19.72 5.91L19.72 5.91L19.71 5.90L19.69 5.90L19.69 5.90Q19.43 5.82 19.17 5.81L19.17 5.81L19.17 5.81Q18.91 5.80 18.63 5.86L18.63 5.86L18.63 5.86Q18.29 5.93 18.12 6.14L18.12 6.14L18.12 6.14Q17.94 6.34 17.94 6.67L17.94 6.67L17.94 6.69L17.94 6.70L17.94 6.70Q17.97 7.12 18.60 7.30L18.60 7.30L18.80 7.36L19.30 7.53L19.30 7.53Q19.42 7.57 19.54 7.62L19.54 7.62L19.54 7.62Q19.65 7.67 19.78 7.72L19.78 7.72L19.78 7.72Q19.97 7.81 20.14 7.90L20.14 7.90L20.14 7.90Q20.30 7.98 20.44 8.07L20.44 8.07L20.44 8.07Q20.54 8.13 20.59 8.22L20.59 8.22L20.59 8.22Q20.64 8.31 20.65 8.41L20.65 8.41L20.65 8.41Q20.67 8.51 20.67 8.62L20.67 8.62L20.67 8.62Q20.67 8.73 20.64 8.82L20.64 8.82L20.64 8.82Q20.63 8.89 20.60 8.96L20.60 8.96L20.60 8.96Q20.57 9.03 20.54 9.08ZM28.55 9.26L28.55 9.26L28.55 9.26Q28.05 9.71 27.34 9.75L27.34 9.75L27.34 9.75Q26.65 9.78 26.03 9.53L26.03 9.53L26.02 9.52L26.01 9.52L26.01 9.52Q25.91 9.49 25.72 9.33L25.72 9.33L25.72 9.33Q25.53 9.17 25.47 9.08L25.47 9.08L25.47 9.08Q25.37 8.95 25.29 8.78L25.29 8.78L25.29 8.78Q25.21 8.61 25.13 8.45L25.13 8.45L25.13 8.45Q24.98 8.16 24.96 7.95L24.96 7.95L24.96 7.95Q24.96 7.85 24.96 7.71L24.96 7.71L24.96 7.71Q24.96 7.58 24.98 7.41L24.98 7.41L24.98 7.41Q25.04 6.66 25.45 6.02L25.45 6.02L25.45 6.02Q25.48 5.97 25.58 5.89L25.58 5.89L25.58 5.89Q25.68 5.81 25.83 5.73L25.83 5.73L25.83 5.73Q26.14 5.56 26.36 5.49L26.36 5.49L26.36 5.49Q26.50 5.44 26.68 5.42L26.68 5.42L26.68 5.42Q27.09 5.37 27.52 5.42L27.52 5.42L27.52 5.42Q27.95 5.48 28.32 5.69L28.32 5.69L28.32 5.69Q28.38 5.72 28.44 5.77L28.44 5.77L28.44 5.77Q28.51 5.82 28.59 5.89L28.59 5.89L28.59 5.89Q28.77 6.02 28.79 6.15L28.79 6.15L28.79 6.15Q28.79 6.21 28.75 6.27L28.75 6.27L28.75 6.27Q28.67 6.36 28.60 6.36L28.60 6.36L28.60 6.36Q28.52 6.36 28.42 6.30L28.42 6.30L28.42 6.30Q28.33 6.23 28.27 6.19L28.27 6.19L28.27 6.19Q28.16 6.12 28.09 6.07L28.09 6.07L28.09 6.07Q28.01 6.02 28 6.01L28 6.01L28 6.01Q27.65 5.82 27.15 5.82L27.15 5.82L27.15 5.82Q27.04 5.82 26.90 5.83L26.90 5.83L26.90 5.83Q26.76 5.84 26.61 5.87L26.61 5.87L26.59 5.87L26.58 5.88L26.58 5.88Q25.71 6.13 25.45 7.06L25.45 7.06L25.45 7.06Q25.36 7.40 25.41 7.70L25.41 7.70L25.41 7.70Q25.46 8.00 25.55 8.31L25.55 8.31L25.55 8.31Q25.68 8.79 25.98 9.00L25.98 9.00L25.98 9.00Q26.28 9.21 26.74 9.30L26.74 9.30L26.74 9.30L26.74 9.30Q26.87 9.32 26.97 9.32L26.97 9.32L26.97 9.32Q27.08 9.32 27.18 9.30L27.18 9.30L27.18 9.30Q27.28 9.28 27.39 9.26L27.39 9.26L27.39 9.26Q27.49 9.24 27.62 9.23L27.62 9.23L27.62 9.23Q28.10 9.17 28.31 8.88L28.31 8.88L28.31 8.87L28.31 8.87Q28.46 8.64 28.43 8.22L28.43 8.22L28.43 8.22Q28.42 8.00 28.27 7.87L28.27 7.87L28.27 7.87Q28.09 7.70 27.76 7.71L27.76 7.71L27.21 7.73L27.21 7.73Q27.13 7.74 27.06 7.74L27.06 7.74L27.06 7.74Q26.99 7.75 26.93 7.75L26.93 7.75L26.93 7.75Q26.67 7.71 26.71 7.51L26.71 7.51L26.71 7.51Q26.73 7.38 26.90 7.33L26.90 7.33L26.90 7.33Q27.21 7.31 27.50 7.33L27.50 7.33L27.50 7.33Q27.80 7.35 28.12 7.33L28.12 7.33L28.41 7.31L28.41 7.31Q28.61 7.29 28.70 7.38L28.70 7.38L28.70 7.38Q28.81 7.46 28.82 7.66L28.82 7.66L28.82 7.66Q28.84 7.87 28.84 7.98L28.84 7.98L28.84 7.98Q28.84 8.16 28.85 8.36L28.85 8.36L28.85 8.36Q28.85 8.57 28.82 8.74L28.82 8.74L28.82 8.74Q28.77 9.00 28.55 9.26ZM33.31 5.67L33.31 5.67L33.31 5.67Q33.46 5.82 33.54 5.99L33.54 5.99L33.54 5.99Q33.63 6.16 33.71 6.34L33.71 6.34L33.71 6.34Q33.81 6.54 33.77 6.74L33.77 6.74L33.77 6.74Q33.74 6.94 33.55 7.13L33.55 7.13L33.55 7.13Q33.41 7.28 33.07 7.37L33.07 7.37L33.07 7.37Q32.95 7.40 32.81 7.44L32.81 7.44L32.81 7.44Q32.67 7.48 32.61 7.60L32.61 7.60L32.61 7.60Q32.57 7.72 32.63 7.84L32.63 7.84L32.63 7.84Q32.70 7.97 32.74 8.05L32.74 8.05L32.74 8.05Q32.79 8.13 32.81 8.18L32.81 8.18L32.81 8.18Q32.85 8.24 32.90 8.33L32.90 8.33L32.90 8.33Q32.96 8.42 33.03 8.52L33.03 8.52L33.03 8.52Q33.19 8.74 33.36 8.93L33.36 8.93L33.36 8.93Q33.54 9.13 33.71 9.30L33.71 9.30L33.75 9.34L33.75 9.34Q33.90 9.49 33.76 9.63L33.76 9.63L33.76 9.63Q33.60 9.79 33.46 9.64L33.46 9.64L33.46 9.64Q33.34 9.52 33.25 9.43L33.25 9.43L33.25 9.43Q33.16 9.34 33.09 9.26L33.09 9.26L33.09 9.26Q32.92 9.05 32.78 8.83L32.78 8.83L32.78 8.83Q32.68 8.67 32.57 8.53L32.57 8.53L32.57 8.53Q32.46 8.39 32.37 8.23L32.37 8.23L32.37 8.23Q32.09 7.74 31.69 7.58L31.69 7.58L31.69 7.58Q31.26 7.42 31.06 7.70L31.06 7.70L31.06 7.70Q31.00 7.80 31.00 7.92L31.00 7.92L31.00 9.40L31.00 9.49L31.00 9.49Q31.00 9.69 30.79 9.70L30.79 9.70L30.79 9.70Q30.58 9.69 30.58 9.44L30.58 9.44L30.58 9.44Q30.58 9.28 30.59 9.12L30.59 9.12L30.59 9.12Q30.60 8.95 30.60 8.76L30.60 8.76L30.60 8.76Q30.61 8.63 30.60 8.49L30.60 8.49L30.60 8.49Q30.59 8.35 30.59 8.22L30.59 8.22L30.59 8.22Q30.59 8.09 30.60 7.96L30.60 7.96L30.60 7.96Q30.60 7.83 30.60 7.70L30.60 7.70L30.60 7.70Q30.61 7.40 30.58 7.07L30.58 7.07L30.58 7.07Q30.58 6.84 30.59 6.61L30.59 6.61L30.59 6.61Q30.60 6.38 30.60 6.14L30.60 6.14L30.60 6.14Q30.59 6.02 30.59 5.86L30.59 5.86L30.59 5.86Q30.59 5.71 30.63 5.58L30.63 5.58L30.63 5.58Q30.75 5.42 31.21 5.42L31.21 5.42L31.42 5.42L31.42 5.42Q31.67 5.42 31.92 5.44L31.92 5.44L31.92 5.44Q32.17 5.46 32.42 5.45L32.42 5.45L32.42 5.45Q32.98 5.42 33.31 5.67ZM31.39 7.15L31.39 7.15L31.39 7.15Q31.65 7.16 31.85 7.16L31.85 7.16L31.85 7.16Q32.05 7.16 32.18 7.14L32.18 7.14L32.18 7.14Q32.31 7.13 32.47 7.11L32.47 7.11L32.47 7.11Q32.63 7.09 32.83 7.05L32.83 7.05L32.83 7.05Q33.22 6.97 33.33 6.69L33.33 6.69L33.33 6.69Q33.38 6.59 33.37 6.47L33.37 6.47L33.37 6.47Q33.35 6.34 33.29 6.24L33.29 6.24L33.29 6.24Q33.22 6.14 33.12 6.07L33.12 6.07L33.12 6.07Q33.02 6.00 32.91 5.94L32.91 5.94L32.91 5.94Q32.79 5.89 32.68 5.87L32.68 5.87L32.68 5.87Q32.40 5.82 32.11 5.83L32.11 5.83L32.11 5.83Q31.83 5.84 31.54 5.82L31.54 5.82L31.54 5.82Q31.49 5.82 31.44 5.82L31.44 5.82L31.44 5.82Q31.38 5.82 31.33 5.82L31.33 5.82L31.33 5.82Q31.19 5.81 31.11 5.89L31.11 5.89L31.11 5.89Q31.05 5.96 31.06 6.08L31.06 6.08L31.06 6.08Q31.07 6.12 31.07 6.23L31.07 6.23L31.07 6.23Q31.06 6.33 31.05 6.43L31.05 6.43L31.05 6.43Q31.03 6.52 31.02 6.62L31.02 6.62L31.02 6.62Q30.98 6.88 31.08 7.01L31.08 7.01L31.08 7.01Q31.17 7.14 31.39 7.15ZM38.73 5.42L38.73 5.42L38.73 5.42Q38.94 5.41 38.94 5.63L38.94 5.63L38.94 5.63Q38.94 5.91 38.93 6.19L38.93 6.19L38.93 6.19Q38.93 6.46 38.90 6.75L38.90 6.75L38.90 6.75Q38.86 7.01 38.89 7.27L38.89 7.27L38.89 7.27Q38.92 7.53 38.92 7.79L38.92 7.79L38.92 7.84L38.90 8.31L38.90 8.31Q38.88 8.46 38.86 8.57L38.86 8.57L38.86 8.57Q38.84 8.69 38.83 8.76L38.83 8.76L38.81 8.79L38.80 8.84L38.80 8.85L38.80 8.85Q38.78 8.93 38.73 9.01L38.73 9.01L38.73 9.01Q38.67 9.10 38.61 9.18L38.61 9.18L38.61 9.18Q38.54 9.26 38.47 9.32L38.47 9.32L38.47 9.32Q38.39 9.39 38.33 9.45L38.33 9.45L38.33 9.45Q38.21 9.55 38.08 9.61L38.08 9.61L38.08 9.61Q37.94 9.67 37.79 9.70L37.79 9.70L37.79 9.70Q37.64 9.73 37.48 9.74L37.48 9.74L37.48 9.74Q37.33 9.75 37.19 9.75L37.19 9.75L37.19 9.75Q36.93 9.75 36.70 9.69L36.70 9.69L36.70 9.69Q36.46 9.63 36.23 9.50L36.23 9.50L36.23 9.50Q36.22 9.48 36.22 9.47L36.22 9.47L36.22 9.47Q36.20 9.47 36.18 9.45L36.18 9.45L36.18 9.45Q36.17 9.44 36.16 9.43L36.16 9.43L36.16 9.43Q36.13 9.41 36.12 9.40L36.12 9.40L36.12 9.40Q36.11 9.39 36.09 9.37L36.09 9.37L36.09 9.37Q35.75 9.01 35.66 8.47L35.66 8.47L35.66 8.47Q35.62 8.20 35.60 7.95L35.60 7.95L35.60 7.95Q35.59 7.69 35.60 7.44L35.60 7.44L35.60 7.44Q35.61 7.38 35.62 7.32L35.62 7.32L35.62 7.32Q35.62 7.27 35.63 7.21L35.63 7.21L35.63 7.21Q35.64 7.12 35.63 7.05L35.63 7.05L35.63 7.05Q35.63 6.97 35.62 6.90L35.62 6.90L35.62 6.90Q35.58 6.36 35.60 5.63L35.60 5.63L35.60 5.63Q35.61 5.48 35.78 5.42L35.78 5.42L35.78 5.42Q35.92 5.38 36.01 5.45L36.01 5.45L36.01 5.45Q36.07 5.50 36.07 5.57L36.07 5.57L36.07 5.57Q36.07 5.67 36.07 5.82L36.07 5.82L36.07 5.82Q36.07 5.97 36.06 6.17L36.06 6.17L36.06 6.17Q36.06 6.34 36.05 6.51L36.05 6.51L36.05 6.51Q36.03 6.68 36.03 6.84L36.03 6.84L36.03 6.84Q36.03 7.05 36.02 7.24L36.02 7.24L36.02 7.24Q36.00 7.44 36.00 7.64L36.00 7.64L36.00 7.64Q36.00 8.02 36.13 8.50L36.13 8.50L36.13 8.50Q36.14 8.56 36.16 8.61L36.16 8.61L36.16 8.61Q36.18 8.66 36.19 8.72L36.19 8.72L36.19 8.72Q36.29 9.04 36.50 9.16L36.50 9.16L36.50 9.16Q36.66 9.26 37.09 9.28L37.09 9.28L37.09 9.28Q37.15 9.29 37.20 9.30L37.20 9.30L37.20 9.30Q37.26 9.31 37.32 9.31L37.32 9.31L37.32 9.31L37.33 9.31L37.33 9.31Q37.66 9.31 37.91 9.19L37.91 9.19L37.91 9.19Q38.15 9.08 38.32 8.79L38.32 8.79L38.32 8.79Q38.46 8.56 38.46 8.08L38.46 8.08L38.46 8.08Q38.46 7.99 38.46 7.93L38.46 7.93L38.46 7.93Q38.46 7.86 38.47 7.82L38.47 7.82L38.47 7.82Q38.53 7.21 38.45 6.55L38.45 6.55L38.45 6.55Q38.44 6.46 38.47 6.22L38.47 6.22L38.47 6.22Q38.49 6.13 38.49 6.05L38.49 6.05L38.49 6.05Q38.50 5.97 38.50 5.92L38.50 5.92L38.50 5.92Q38.50 5.63 38.54 5.52L38.54 5.52L38.54 5.52Q38.60 5.42 38.73 5.42ZM40.79 9.29L40.79 9.29L40.79 9.29Q40.78 8.87 40.79 8.46L40.79 8.46L40.79 8.46Q40.79 8.04 40.79 7.62L40.79 7.62L40.79 7.38L40.79 7.38Q40.79 7.20 40.78 7.01L40.78 7.01L40.78 7.01Q40.77 6.82 40.78 6.64L40.78 6.64L40.78 6.64Q40.79 6.43 40.79 6.23L40.79 6.23L40.79 6.23Q40.79 6.03 40.80 5.82L40.80 5.82L40.80 5.82Q40.80 5.58 40.91 5.48L40.91 5.48L40.91 5.48Q41.00 5.41 41.23 5.41L41.23 5.41L41.23 5.41Q41.34 5.41 41.43 5.40L41.43 5.40L41.43 5.40Q41.51 5.40 41.58 5.40L41.58 5.40L41.58 5.40Q41.84 5.39 42.11 5.40L42.11 5.40L42.11 5.40Q42.38 5.41 42.64 5.41L42.64 5.41L42.64 5.41Q42.79 5.40 42.93 5.40L42.93 5.40L42.93 5.40Q43.07 5.39 43.21 5.41L43.21 5.41L43.56 5.43L43.56 5.43Q43.62 5.43 43.66 5.43L43.66 5.43L43.66 5.43Q43.71 5.43 43.74 5.45L43.74 5.45L43.74 5.45Q43.89 5.52 43.88 5.66L43.88 5.66L43.88 5.66Q43.87 5.72 43.83 5.76L43.83 5.76L43.83 5.76Q43.79 5.80 43.74 5.82L43.74 5.82L43.74 5.82Q43.69 5.84 43.63 5.84L43.63 5.84L43.63 5.84Q43.58 5.85 43.54 5.85L43.54 5.85L43.54 5.85Q43.12 5.85 42.71 5.83L42.71 5.83L42.71 5.83Q42.67 5.82 42.61 5.82L42.61 5.82L42.61 5.82Q42.55 5.82 42.47 5.82L42.47 5.82L42.08 5.82L42.08 5.82Q41.92 5.82 41.79 5.83L41.79 5.83L41.79 5.83Q41.67 5.83 41.59 5.83L41.59 5.83L41.59 5.83Q41.47 5.84 41.40 5.86L41.40 5.86L41.40 5.86Q41.32 5.89 41.29 5.94L41.29 5.94L41.29 5.94Q41.23 6.02 41.25 6.15L41.25 6.15L41.25 6.15Q41.25 6.20 41.25 6.24L41.25 6.24L41.25 6.24Q41.25 6.28 41.24 6.32L41.24 6.32L41.24 6.32Q41.23 6.40 41.22 6.49L41.22 6.49L41.22 6.49Q41.21 6.58 41.22 6.69L41.22 6.69L41.22 6.69Q41.22 6.88 41.37 7.01L41.37 7.01L41.37 7.01Q41.49 7.12 41.82 7.10L41.82 7.10L41.82 7.10Q41.96 7.10 42.10 7.08L42.10 7.08L42.10 7.08Q42.24 7.06 42.38 7.07L42.38 7.07L42.38 7.07Q42.44 7.07 42.54 7.07L42.54 7.07L42.54 7.07Q42.64 7.08 42.78 7.07L42.78 7.07L42.78 7.07Q43.05 7.06 43.15 7.16L43.15 7.16L43.15 7.16Q43.18 7.21 43.18 7.32L43.18 7.32L43.18 7.32Q43.16 7.44 42.98 7.47L42.98 7.47L42.98 7.47Q42.83 7.50 42.73 7.50L42.73 7.50L42.73 7.50Q42.61 7.51 42.49 7.50L42.49 7.50L42.49 7.50Q42.37 7.50 42.25 7.51L42.25 7.51L42.25 7.51Q42.10 7.52 41.94 7.51L41.94 7.51L41.94 7.51Q41.78 7.51 41.61 7.49L41.61 7.49L41.61 7.49Q41.59 7.49 41.56 7.49L41.56 7.49L41.56 7.49Q41.54 7.49 41.51 7.49L41.51 7.49L41.51 7.49L41.51 7.49Q41.43 7.47 41.36 7.52L41.36 7.52L41.36 7.52Q41.23 7.59 41.22 7.78L41.22 7.78L41.22 7.78Q41.21 7.96 41.22 8.09L41.22 8.09L41.22 8.09Q41.23 8.16 41.23 8.22L41.23 8.22L41.23 8.22Q41.23 8.29 41.23 8.33L41.23 8.33L41.23 8.33Q41.21 8.44 41.20 8.53L41.20 8.53L41.20 8.53Q41.19 8.63 41.18 8.74L41.18 8.74L41.18 8.74Q41.16 9.00 41.25 9.13L41.25 9.13L41.25 9.13Q41.36 9.28 41.65 9.28L41.65 9.28L41.65 9.28Q41.88 9.28 42.11 9.27L42.11 9.27L42.11 9.27Q42.34 9.26 42.57 9.25L42.57 9.25L42.57 9.25Q42.79 9.24 43.01 9.26L43.01 9.26L43.01 9.26Q43.23 9.28 43.45 9.28L43.45 9.28L43.45 9.28Q43.53 9.28 43.67 9.28L43.67 9.28L43.67 9.28Q43.80 9.28 43.88 9.32L43.88 9.32L43.88 9.32Q43.95 9.36 43.96 9.44L43.96 9.44L43.96 9.44Q44.03 9.69 43.74 9.70L43.74 9.70L43.74 9.70Q43.29 9.72 42.86 9.71L42.86 9.71L42.86 9.71Q42.42 9.71 41.99 9.71L41.99 9.71L41.99 9.71Q41.96 9.71 41.94 9.72L41.94 9.72L41.94 9.72Q41.91 9.72 41.89 9.72L41.89 9.72L41.89 9.72Q41.73 9.72 41.62 9.72L41.62 9.72L41.62 9.72Q41.51 9.72 41.43 9.71L41.43 9.71L41.43 9.71Q41.38 9.71 41.32 9.71L41.32 9.71L41.32 9.71Q41.25 9.71 41.17 9.70L41.17 9.70L41.17 9.70Q41.10 9.69 41.06 9.69L41.06 9.69L41.06 9.69Q41.02 9.68 41.00 9.67L41.00 9.67L41.00 9.67Q40.79 9.61 40.79 9.29ZM49.06 5.56L49.06 5.56L49.06 5.56Q49.13 5.54 49.29 5.58L49.29 5.58L49.29 5.58Q49.44 5.62 49.48 5.68L49.48 5.68L49.48 5.68Q49.48 5.69 49.49 5.69L49.49 5.69L49.49 5.69Q49.51 5.89 49.51 6.28L49.51 6.28L49.51 6.79L49.51 6.79Q49.51 7 49.52 7.19L49.52 7.19L49.52 7.19Q49.53 7.38 49.51 7.58L49.51 7.58L49.51 7.58Q49.50 7.78 49.49 7.97L49.49 7.97L49.49 7.97Q49.47 8.16 49.49 8.35L49.49 8.35L49.49 8.35Q49.49 8.52 49.51 8.68L49.51 8.68L49.51 8.68Q49.52 8.84 49.51 9.00L49.51 9.00L49.49 9.32L49.49 9.32Q49.47 9.55 49.44 9.60L49.44 9.60L49.44 9.60Q49.36 9.71 49.27 9.71L49.27 9.71L49.27 9.71Q49.04 9.69 49.03 9.39L49.03 9.39L49.03 9.39Q49.01 8.95 49.04 8.51L49.04 8.51L49.04 8.51Q49.06 8.07 49.03 7.62L49.03 7.62L49.01 7.32L49.01 7.32Q48.99 7.10 48.82 7.08L48.82 7.08L48.82 7.08Q48.75 7.08 48.71 7.10L48.71 7.10L48.71 7.10Q48.66 7.13 48.62 7.18L48.62 7.18L48.62 7.18Q48.59 7.23 48.57 7.28L48.57 7.28L48.57 7.28Q48.55 7.34 48.53 7.39L48.53 7.39L48.53 7.39Q48.47 7.53 48.43 7.64L48.43 7.64L48.43 7.64Q48.38 7.75 48.35 7.83L48.35 7.83L48.35 7.83Q48.29 7.97 48.20 8.12L48.20 8.12L48.20 8.12Q48.11 8.26 48.04 8.40L48.04 8.40L48.04 8.40Q47.96 8.55 47.89 8.69L47.89 8.69L47.89 8.69Q47.82 8.82 47.75 8.96L47.75 8.96L47.75 8.96Q47.70 9.04 47.50 9.03L47.50 9.03L47.50 9.03Q47.35 9.03 47.28 8.95L47.28 8.95L47.28 8.95Q47.23 8.89 47.17 8.77L47.17 8.77L47.17 8.77Q47.11 8.66 47.04 8.49L47.04 8.49L47.04 8.49Q46.98 8.37 46.94 8.29L46.94 8.29L46.94 8.29Q46.89 8.20 46.86 8.15L46.86 8.15L46.86 8.15Q46.83 8.10 46.78 8.00L46.78 8.00L46.78 8.00Q46.73 7.90 46.66 7.74L46.66 7.74L46.47 7.35L46.47 7.35Q46.44 7.28 46.41 7.25L46.41 7.25L46.41 7.25Q46.39 7.21 46.38 7.20L46.38 7.20L46.38 7.20Q46.28 7.07 46.15 7.10L46.15 7.10L46.15 7.10Q45.98 7.12 45.98 7.40L45.98 7.40L45.98 7.40Q45.98 7.84 45.99 8.23L45.99 8.23L45.99 8.23Q45.99 8.61 46.01 8.96L46.01 8.96L46.01 8.96Q46.01 9.01 46.01 9.10L46.01 9.10L46.01 9.10Q46.01 9.18 46.00 9.30L46.00 9.30L46.00 9.30Q45.99 9.55 45.94 9.61L45.94 9.61L45.94 9.61Q45.88 9.71 45.74 9.70L45.74 9.70L45.74 9.70Q45.55 9.69 45.55 9.43L45.55 9.43L45.55 9.43Q45.55 9.13 45.54 8.82L45.54 8.82L45.54 8.82Q45.53 8.51 45.53 8.18L45.53 8.18L45.53 8.18Q45.52 8.03 45.52 7.90L45.52 7.90L45.52 7.90Q45.53 7.77 45.54 7.68L45.54 7.68L45.54 7.68Q45.56 7.51 45.56 7.38L45.56 7.38L45.56 7.38Q45.57 7.25 45.56 7.16L45.56 7.16L45.56 7.16Q45.55 7.05 45.54 6.93L45.54 6.93L45.54 6.93Q45.53 6.80 45.51 6.66L45.51 6.66L45.51 6.66Q45.49 6.46 45.51 6.18L45.51 6.18L45.51 6.18Q45.54 5.89 45.60 5.70L45.60 5.70L45.60 5.70Q45.62 5.62 45.64 5.58L45.64 5.58L45.64 5.58Q45.83 5.38 46.01 5.63L46.01 5.63L46.01 5.63Q46.09 5.73 46.16 5.84L46.16 5.84L46.16 5.84Q46.22 5.95 46.30 6.06L46.30 6.06L46.30 6.06Q46.41 6.22 46.49 6.41L46.49 6.41L46.49 6.41Q46.57 6.60 46.66 6.77L46.66 6.77L46.66 6.77Q46.74 6.95 46.80 7.09L46.80 7.09L46.80 7.09Q46.87 7.22 46.92 7.30L46.92 7.30L46.95 7.34L46.95 7.34Q47.02 7.46 47.08 7.58L47.08 7.58L47.08 7.58Q47.13 7.70 47.19 7.81L47.19 7.81L47.19 7.81Q47.34 8.13 47.50 8.14L47.50 8.14L47.50 8.14Q47.65 8.14 47.72 8.00L47.72 8.00L47.72 8.00Q47.76 7.93 47.79 7.86L47.79 7.86L47.79 7.86Q47.82 7.79 47.84 7.73L47.84 7.73L47.84 7.73Q47.89 7.62 47.95 7.49L47.95 7.49L47.95 7.49Q48.02 7.36 48.09 7.23L48.09 7.23L48.09 7.23Q48.23 6.99 48.38 6.75L48.38 6.75L48.38 6.75Q48.54 6.51 48.66 6.24L48.66 6.24L48.66 6.24Q48.69 6.16 48.75 6.06L48.75 6.06L48.75 6.06Q48.80 5.97 48.86 5.87L48.86 5.87L48.99 5.67L48.99 5.67Q49 5.65 49.02 5.63L49.02 5.63L49.02 5.63Q49.03 5.60 49.06 5.56ZM51.40 9.29L51.40 9.29L51.40 9.29Q51.39 8.87 51.40 8.46L51.40 8.46L51.40 8.46Q51.40 8.04 51.40 7.62L51.40 7.62L51.40 7.38L51.40 7.38Q51.40 7.20 51.39 7.01L51.39 7.01L51.39 7.01Q51.38 6.82 51.39 6.64L51.39 6.64L51.39 6.64Q51.40 6.43 51.40 6.23L51.40 6.23L51.40 6.23Q51.40 6.03 51.41 5.82L51.41 5.82L51.41 5.82Q51.41 5.58 51.52 5.48L51.52 5.48L51.52 5.48Q51.61 5.41 51.84 5.41L51.84 5.41L51.84 5.41Q51.95 5.41 52.04 5.40L52.04 5.40L52.04 5.40Q52.12 5.40 52.19 5.40L52.19 5.40L52.19 5.40Q52.45 5.39 52.72 5.40L52.72 5.40L52.72 5.40Q52.99 5.41 53.25 5.41L53.25 5.41L53.25 5.41Q53.40 5.40 53.54 5.40L53.54 5.40L53.54 5.40Q53.68 5.39 53.82 5.41L53.82 5.41L54.17 5.43L54.17 5.43Q54.23 5.43 54.27 5.43L54.27 5.43L54.27 5.43Q54.32 5.43 54.35 5.45L54.35 5.45L54.35 5.45Q54.50 5.52 54.49 5.66L54.49 5.66L54.49 5.66Q54.48 5.72 54.44 5.76L54.44 5.76L54.44 5.76Q54.40 5.80 54.35 5.82L54.35 5.82L54.35 5.82Q54.30 5.84 54.24 5.84L54.24 5.84L54.24 5.84Q54.19 5.85 54.15 5.85L54.15 5.85L54.15 5.85Q53.73 5.85 53.32 5.83L53.32 5.83L53.32 5.83Q53.28 5.82 53.22 5.82L53.22 5.82L53.22 5.82Q53.16 5.82 53.08 5.82L53.08 5.82L52.68 5.82L52.68 5.82Q52.53 5.82 52.40 5.83L52.40 5.83L52.40 5.83Q52.28 5.83 52.20 5.83L52.20 5.83L52.20 5.83Q52.08 5.84 52.01 5.86L52.01 5.86L52.01 5.86Q51.93 5.89 51.90 5.94L51.90 5.94L51.90 5.94Q51.84 6.02 51.86 6.15L51.86 6.15L51.86 6.15Q51.86 6.20 51.86 6.24L51.86 6.24L51.86 6.24Q51.86 6.28 51.85 6.32L51.85 6.32L51.85 6.32Q51.84 6.40 51.83 6.49L51.83 6.49L51.83 6.49Q51.82 6.58 51.83 6.69L51.83 6.69L51.83 6.69Q51.83 6.88 51.98 7.01L51.98 7.01L51.98 7.01Q52.10 7.12 52.42 7.10L52.42 7.10L52.42 7.10Q52.57 7.10 52.71 7.08L52.71 7.08L52.71 7.08Q52.85 7.06 52.99 7.07L52.99 7.07L52.99 7.07Q53.05 7.07 53.15 7.07L53.15 7.07L53.15 7.07Q53.25 7.08 53.39 7.07L53.39 7.07L53.39 7.07Q53.66 7.06 53.76 7.16L53.76 7.16L53.76 7.16Q53.79 7.21 53.79 7.32L53.79 7.32L53.79 7.32Q53.76 7.44 53.59 7.47L53.59 7.47L53.59 7.47Q53.44 7.50 53.34 7.50L53.34 7.50L53.34 7.50Q53.22 7.51 53.10 7.50L53.10 7.50L53.10 7.50Q52.98 7.50 52.86 7.51L52.86 7.51L52.86 7.51Q52.71 7.52 52.55 7.51L52.55 7.51L52.55 7.51Q52.39 7.51 52.22 7.49L52.22 7.49L52.22 7.49Q52.20 7.49 52.17 7.49L52.17 7.49L52.17 7.49Q52.14 7.49 52.12 7.49L52.12 7.49L52.12 7.49L52.12 7.49Q52.04 7.47 51.97 7.52L51.97 7.52L51.97 7.52Q51.84 7.59 51.83 7.78L51.83 7.78L51.83 7.78Q51.82 7.96 51.83 8.09L51.83 8.09L51.83 8.09Q51.84 8.16 51.84 8.22L51.84 8.22L51.84 8.22Q51.84 8.29 51.84 8.33L51.84 8.33L51.84 8.33Q51.82 8.44 51.81 8.53L51.81 8.53L51.81 8.53Q51.80 8.63 51.79 8.74L51.79 8.74L51.79 8.74Q51.77 9.00 51.86 9.13L51.86 9.13L51.86 9.13Q51.97 9.28 52.26 9.28L52.26 9.28L52.26 9.28Q52.49 9.28 52.72 9.27L52.72 9.27L52.72 9.27Q52.95 9.26 53.18 9.25L53.18 9.25L53.18 9.25Q53.40 9.24 53.62 9.26L53.62 9.26L53.62 9.26Q53.84 9.28 54.06 9.28L54.06 9.28L54.06 9.28Q54.14 9.28 54.28 9.28L54.28 9.28L54.28 9.28Q54.41 9.28 54.49 9.32L54.49 9.32L54.49 9.32Q54.56 9.36 54.56 9.44L54.56 9.44L54.56 9.44Q54.64 9.69 54.35 9.70L54.35 9.70L54.35 9.70Q53.90 9.72 53.47 9.71L53.47 9.71L53.47 9.71Q53.03 9.71 52.60 9.71L52.60 9.71L52.60 9.71Q52.57 9.71 52.54 9.72L52.54 9.72L52.54 9.72Q52.52 9.72 52.50 9.72L52.50 9.72L52.50 9.72Q52.34 9.72 52.23 9.72L52.23 9.72L52.23 9.72Q52.12 9.72 52.04 9.71L52.04 9.71L52.04 9.71Q51.99 9.71 51.93 9.71L51.93 9.71L51.93 9.71Q51.86 9.71 51.78 9.70L51.78 9.70L51.78 9.70Q51.71 9.69 51.67 9.69L51.67 9.69L51.67 9.69Q51.63 9.68 51.60 9.67L51.60 9.67L51.60 9.67Q51.40 9.61 51.40 9.29ZM58.81 5.67L58.81 5.67L58.81 5.67Q58.95 5.82 59.04 5.99L59.04 5.99L59.04 5.99Q59.12 6.16 59.21 6.34L59.21 6.34L59.21 6.34Q59.31 6.54 59.27 6.74L59.27 6.74L59.27 6.74Q59.23 6.94 59.05 7.13L59.05 7.13L59.05 7.13Q58.91 7.28 58.57 7.37L58.57 7.37L58.57 7.37Q58.45 7.40 58.31 7.44L58.31 7.44L58.31 7.44Q58.17 7.48 58.11 7.60L58.11 7.60L58.11 7.60Q58.07 7.72 58.13 7.84L58.13 7.84L58.13 7.84Q58.20 7.97 58.24 8.05L58.24 8.05L58.24 8.05Q58.28 8.13 58.31 8.18L58.31 8.18L58.31 8.18Q58.34 8.24 58.40 8.33L58.40 8.33L58.40 8.33Q58.45 8.42 58.53 8.52L58.53 8.52L58.53 8.52Q58.69 8.74 58.86 8.93L58.86 8.93L58.86 8.93Q59.04 9.13 59.21 9.30L59.21 9.30L59.25 9.34L59.25 9.34Q59.40 9.49 59.25 9.63L59.25 9.63L59.25 9.63Q59.10 9.79 58.95 9.64L58.95 9.64L58.95 9.64Q58.84 9.52 58.75 9.43L58.75 9.43L58.75 9.43Q58.66 9.34 58.58 9.26L58.58 9.26L58.58 9.26Q58.42 9.05 58.28 8.83L58.28 8.83L58.28 8.83Q58.17 8.67 58.07 8.53L58.07 8.53L58.07 8.53Q57.96 8.39 57.87 8.23L57.87 8.23L57.87 8.23Q57.59 7.74 57.19 7.58L57.19 7.58L57.19 7.58Q56.76 7.42 56.56 7.70L56.56 7.70L56.56 7.70Q56.50 7.80 56.50 7.92L56.50 7.92L56.50 9.40L56.50 9.49L56.50 9.49Q56.50 9.69 56.29 9.70L56.29 9.70L56.29 9.70Q56.08 9.69 56.08 9.44L56.08 9.44L56.08 9.44Q56.08 9.28 56.09 9.12L56.09 9.12L56.09 9.12Q56.10 8.95 56.10 8.76L56.10 8.76L56.10 8.76Q56.11 8.63 56.10 8.49L56.10 8.49L56.10 8.49Q56.09 8.35 56.09 8.22L56.09 8.22L56.09 8.22Q56.09 8.09 56.10 7.96L56.10 7.96L56.10 7.96Q56.10 7.83 56.10 7.70L56.10 7.70L56.10 7.70Q56.11 7.40 56.08 7.07L56.08 7.07L56.08 7.07Q56.08 6.84 56.09 6.61L56.09 6.61L56.09 6.61Q56.10 6.38 56.10 6.14L56.10 6.14L56.10 6.14Q56.09 6.02 56.09 5.86L56.09 5.86L56.09 5.86Q56.09 5.71 56.13 5.58L56.13 5.58L56.13 5.58Q56.25 5.42 56.71 5.42L56.71 5.42L56.92 5.42L56.92 5.42Q57.17 5.42 57.42 5.44L57.42 5.44L57.42 5.44Q57.67 5.46 57.91 5.45L57.91 5.45L57.91 5.45Q58.48 5.42 58.81 5.67ZM56.89 7.15L56.89 7.15L56.89 7.15Q57.15 7.16 57.35 7.16L57.35 7.16L57.35 7.16Q57.54 7.16 57.68 7.14L57.68 7.14L57.68 7.14Q57.81 7.13 57.97 7.11L57.97 7.11L57.97 7.11Q58.13 7.09 58.32 7.05L58.32 7.05L58.32 7.05Q58.71 6.97 58.83 6.69L58.83 6.69L58.83 6.69Q58.88 6.59 58.86 6.47L58.86 6.47L58.86 6.47Q58.85 6.34 58.79 6.24L58.79 6.24L58.79 6.24Q58.72 6.14 58.62 6.07L58.62 6.07L58.62 6.07Q58.52 6.00 58.41 5.94L58.41 5.94L58.41 5.94Q58.29 5.89 58.18 5.87L58.18 5.87L58.18 5.87Q57.89 5.82 57.61 5.83L57.61 5.83L57.61 5.83Q57.33 5.84 57.04 5.82L57.04 5.82L57.04 5.82Q56.98 5.82 56.93 5.82L56.93 5.82L56.93 5.82Q56.88 5.82 56.83 5.82L56.83 5.82L56.83 5.82Q56.68 5.81 56.61 5.89L56.61 5.89L56.61 5.89Q56.55 5.96 56.56 6.08L56.56 6.08L56.56 6.08Q56.57 6.12 56.57 6.23L56.57 6.23L56.57 6.23Q56.56 6.33 56.54 6.43L56.54 6.43L56.54 6.43Q56.53 6.52 56.52 6.62L56.52 6.62L56.52 6.62Q56.48 6.88 56.58 7.01L56.58 7.01L56.58 7.01Q56.67 7.14 56.89 7.15Z"></path></g><!----><g data-v-423bf9ae="" id="b5cb65b9-62c3-4aa7-afa6-182876b7d1de" transform="matrix(1.8955800602926123,0,0,1.8955800602926123,355.2570974269079,-1.924239107346061)" stroke="none" fill="white"><path d="M28.953 12.623s-3.641-8.842 5.35-11.591c2.451 8.322-3.791 10.774-5.35 11.591zM29.691 34.727s4.375-1.477 5.418 2.943c-4.088.92-5.074-2.166-5.418-2.943zM16.695 22.716s-9.272-1.514-6.936-10.451c8.225 2.24 7.058 8.724 6.936 10.451z"></path><path d="M32.41 28.414c-4.193.706-6.717 3.079-6.719 3.08.77-3.909 1.76-6.55 2.206-7.626 3.055-.57 10.352-2.229 10.271-12.682-10.406.188-11.143 8.994-11.102 11.904-1.237 1.697-2.196 3.707-2.94 5.83-1.283-3.52-1.49-7-1.508-8.667 1.955-1.983 6.456-6.933 1.053-14.563-6.805 4.924-4.248 11.207-2.566 13.9C20.464 28.407 23.324 32 23.324 32h.002c-.266 1-.492 1.779-.686 2.774-.004-.005-2.012-3.212-5.094-5.116-1.158-2.195-4.041-6.902-11.471-4.588 2.193 6.79 7.732 6.328 10.385 5.678.002.002 4.678 2.908 5.686 6.851-.699 5.218-.551 9.435-.551 9.435 0 1.934 3.195 2.151 3.195-.449-.318-4.706-.063-8.839.424-12.265 2.44-3.273 7.975-4.317 7.975-4.317 6.025 4.43 11.188-1.902 11.188-1.902-1.391-.936-6.172-4.957-11.967.313z"></path></g><!----><g data-v-423bf9ae="" id="da41445d-b1a6-440c-9498-5b0300d0bcb7" fill="white" transform="matrix(7.166144138475572,0,0,7.166144138475572,100.92087214224159,159.77841953991827)"><path d="M2.98 9.08L2.98 9.08L2.98 9.08Q2.86 9.23 2.76 9.34L2.76 9.34L2.76 9.34Q2.65 9.45 2.54 9.53L2.54 9.53L2.54 9.53Q2.42 9.60 2.28 9.66L2.28 9.66L2.28 9.66Q2.14 9.71 1.96 9.73L1.96 9.73L1.96 9.73Q1.87 9.74 1.78 9.74L1.78 9.74L1.78 9.74Q1.68 9.75 1.57 9.73L1.57 9.73L1.57 9.73Q1.42 9.72 1.28 9.72L1.28 9.72L1.28 9.72Q1.13 9.72 0.98 9.69L0.98 9.69L0.98 9.69Q0.66 9.61 0.44 9.46L0.44 9.46L0.44 9.46Q0.22 9.31 0.10 9.07L0.10 9.07L0.10 9.07Q-0.05 8.74 0.27 8.73L0.27 8.73L0.27 8.73Q0.33 8.73 0.40 8.81L0.40 8.81L0.40 8.81Q0.47 8.89 0.51 8.93L0.51 8.93L0.51 8.93Q0.66 9.07 0.68 9.08L0.68 9.08L0.68 9.08L0.68 9.09L0.68 9.09Q1.02 9.32 1.57 9.32L1.57 9.32L1.58 9.32L1.59 9.32L1.59 9.32Q1.82 9.32 2.18 9.23L2.18 9.23L2.18 9.23Q2.54 9.14 2.65 8.87L2.65 8.87L2.65 8.87Q2.71 8.70 2.65 8.51L2.65 8.51L2.65 8.50L2.65 8.50Q2.48 8.14 1.99 8.02L1.99 8.02L1.15 7.80L1.15 7.80Q0.97 7.76 0.72 7.63L0.72 7.63L0.72 7.63Q0.59 7.56 0.49 7.51L0.49 7.51L0.49 7.51Q0.40 7.45 0.33 7.40L0.33 7.40L0.33 7.40Q0.05 7.19 0.01 6.99L0.01 6.99L0.01 6.99Q0 6.95 0 6.89L0 6.89L0 6.89Q0 6.83 0 6.74L0 6.74L0 6.74Q0 6.64 0.01 6.55L0.01 6.55L0.01 6.55Q0.03 6.46 0.04 6.36L0.04 6.36L0.04 6.36Q0.08 6.04 0.31 5.80L0.31 5.80L0.31 5.80Q0.41 5.69 0.56 5.62L0.56 5.62L0.56 5.62Q0.70 5.55 0.84 5.49L0.84 5.49L0.84 5.49Q1.03 5.40 1.24 5.40L1.24 5.40L1.24 5.40Q1.45 5.39 1.65 5.40L1.65 5.40L1.65 5.40Q2.32 5.42 2.70 5.87L2.70 5.87L2.70 5.87Q2.87 6.08 2.83 6.22L2.83 6.22L2.78 6.26L2.78 6.26Q2.67 6.32 2.52 6.19L2.52 6.19L2.52 6.19Q2.48 6.16 2.45 6.13L2.45 6.13L2.45 6.13Q2.41 6.09 2.38 6.06L2.38 6.06L2.38 6.06Q2.34 6.02 2.29 5.98L2.29 5.98L2.29 5.98Q2.24 5.95 2.17 5.91L2.17 5.91L2.15 5.90L2.13 5.90L2.13 5.90Q1.88 5.82 1.62 5.81L1.62 5.81L1.62 5.81Q1.35 5.80 1.07 5.86L1.07 5.86L1.07 5.86Q0.74 5.93 0.56 6.14L0.56 6.14L0.56 6.14Q0.38 6.34 0.38 6.67L0.38 6.67L0.38 6.69L0.39 6.70L0.39 6.70Q0.42 7.12 1.05 7.30L1.05 7.30L1.24 7.36L1.75 7.53L1.75 7.53Q1.87 7.57 1.98 7.62L1.98 7.62L1.98 7.62Q2.10 7.67 2.23 7.72L2.23 7.72L2.23 7.72Q2.42 7.81 2.58 7.90L2.58 7.90L2.58 7.90Q2.75 7.98 2.88 8.07L2.88 8.07L2.88 8.07Q2.98 8.13 3.03 8.22L3.03 8.22L3.03 8.22Q3.08 8.31 3.10 8.41L3.10 8.41L3.10 8.41Q3.12 8.51 3.11 8.62L3.11 8.62L3.11 8.62Q3.11 8.73 3.09 8.82L3.09 8.82L3.09 8.82Q3.08 8.89 3.05 8.96L3.05 8.96L3.05 8.96Q3.01 9.03 2.98 9.08ZM4.82 9.29L4.82 9.29L4.82 9.29Q4.81 8.87 4.82 8.46L4.82 8.46L4.82 8.46Q4.82 8.04 4.82 7.62L4.82 7.62L4.82 7.38L4.82 7.38Q4.82 7.20 4.81 7.01L4.81 7.01L4.81 7.01Q4.80 6.82 4.81 6.64L4.81 6.64L4.81 6.64Q4.82 6.43 4.82 6.23L4.82 6.23L4.82 6.23Q4.82 6.03 4.83 5.82L4.83 5.82L4.83 5.82Q4.83 5.58 4.94 5.48L4.94 5.48L4.94 5.48Q5.03 5.41 5.26 5.41L5.26 5.41L5.26 5.41Q5.37 5.41 5.46 5.40L5.46 5.40L5.46 5.40Q5.54 5.40 5.61 5.40L5.61 5.40L5.61 5.40Q5.87 5.39 6.14 5.40L6.14 5.40L6.14 5.40Q6.41 5.41 6.67 5.41L6.67 5.41L6.67 5.41Q6.82 5.40 6.96 5.40L6.96 5.40L6.96 5.40Q7.10 5.39 7.24 5.41L7.24 5.41L7.59 5.43L7.59 5.43Q7.65 5.43 7.69 5.43L7.69 5.43L7.69 5.43Q7.74 5.43 7.77 5.45L7.77 5.45L7.77 5.45Q7.92 5.52 7.91 5.66L7.91 5.66L7.91 5.66Q7.90 5.72 7.86 5.76L7.86 5.76L7.86 5.76Q7.82 5.80 7.77 5.82L7.77 5.82L7.77 5.82Q7.72 5.84 7.66 5.84L7.66 5.84L7.66 5.84Q7.61 5.85 7.57 5.85L7.57 5.85L7.57 5.85Q7.15 5.85 6.74 5.83L6.74 5.83L6.74 5.83Q6.70 5.82 6.64 5.82L6.64 5.82L6.64 5.82Q6.58 5.82 6.50 5.82L6.50 5.82L6.10 5.82L6.10 5.82Q5.95 5.82 5.82 5.83L5.82 5.83L5.82 5.83Q5.70 5.83 5.62 5.83L5.62 5.83L5.62 5.83Q5.50 5.84 5.43 5.86L5.43 5.86L5.43 5.86Q5.35 5.89 5.32 5.94L5.32 5.94L5.32 5.94Q5.26 6.02 5.28 6.15L5.28 6.15L5.28 6.15Q5.28 6.20 5.28 6.24L5.28 6.24L5.28 6.24Q5.28 6.28 5.27 6.32L5.27 6.32L5.27 6.32Q5.26 6.40 5.25 6.49L5.25 6.49L5.25 6.49Q5.24 6.58 5.25 6.69L5.25 6.69L5.25 6.69Q5.25 6.88 5.40 7.01L5.40 7.01L5.40 7.01Q5.52 7.12 5.84 7.10L5.84 7.10L5.84 7.10Q5.99 7.10 6.13 7.08L6.13 7.08L6.13 7.08Q6.27 7.06 6.41 7.07L6.41 7.07L6.41 7.07Q6.47 7.07 6.57 7.07L6.57 7.07L6.57 7.07Q6.67 7.08 6.81 7.07L6.81 7.07L6.81 7.07Q7.08 7.06 7.18 7.16L7.18 7.16L7.18 7.16Q7.21 7.21 7.21 7.32L7.21 7.32L7.21 7.32Q7.18 7.44 7.01 7.47L7.01 7.47L7.01 7.47Q6.86 7.50 6.76 7.50L6.76 7.50L6.76 7.50Q6.64 7.51 6.52 7.50L6.52 7.50L6.52 7.50Q6.40 7.50 6.28 7.51L6.28 7.51L6.28 7.51Q6.13 7.52 5.97 7.51L5.97 7.51L5.97 7.51Q5.81 7.51 5.64 7.49L5.64 7.49L5.64 7.49Q5.62 7.49 5.59 7.49L5.59 7.49L5.59 7.49Q5.56 7.49 5.54 7.49L5.54 7.49L5.54 7.49L5.54 7.49Q5.46 7.47 5.39 7.52L5.39 7.52L5.39 7.52Q5.26 7.59 5.25 7.78L5.25 7.78L5.25 7.78Q5.24 7.96 5.25 8.09L5.25 8.09L5.25 8.09Q5.26 8.16 5.26 8.22L5.26 8.22L5.26 8.22Q5.26 8.29 5.26 8.33L5.26 8.33L5.26 8.33Q5.24 8.44 5.23 8.53L5.23 8.53L5.23 8.53Q5.22 8.63 5.21 8.74L5.21 8.74L5.21 8.74Q5.19 9.00 5.28 9.13L5.28 9.13L5.28 9.13Q5.39 9.28 5.68 9.28L5.68 9.28L5.68 9.28Q5.91 9.28 6.14 9.27L6.14 9.27L6.14 9.27Q6.37 9.26 6.60 9.25L6.60 9.25L6.60 9.25Q6.82 9.24 7.04 9.26L7.04 9.26L7.04 9.26Q7.26 9.28 7.48 9.28L7.48 9.28L7.48 9.28Q7.56 9.28 7.70 9.28L7.70 9.28L7.70 9.28Q7.83 9.28 7.91 9.32L7.91 9.32L7.91 9.32Q7.98 9.36 7.98 9.44L7.98 9.44L7.98 9.44Q8.06 9.69 7.77 9.70L7.77 9.70L7.77 9.70Q7.32 9.72 6.89 9.71L6.89 9.71L6.89 9.71Q6.45 9.71 6.02 9.71L6.02 9.71L6.02 9.71Q5.99 9.71 5.96 9.72L5.96 9.72L5.96 9.72Q5.94 9.72 5.92 9.72L5.92 9.72L5.92 9.72Q5.76 9.72 5.65 9.72L5.65 9.72L5.65 9.72Q5.54 9.72 5.46 9.71L5.46 9.71L5.46 9.71Q5.41 9.71 5.35 9.71L5.35 9.71L5.35 9.71Q5.28 9.71 5.20 9.70L5.20 9.70L5.20 9.70Q5.13 9.69 5.09 9.69L5.09 9.69L5.09 9.69Q5.04 9.68 5.02 9.67L5.02 9.67L5.02 9.67Q4.82 9.61 4.82 9.29ZM9.52 9.29L9.52 9.29L9.52 9.29Q9.52 8.87 9.52 8.46L9.52 8.46L9.52 8.46Q9.52 8.04 9.52 7.62L9.52 7.62L9.52 7.38L9.52 7.38Q9.52 7.20 9.51 7.01L9.51 7.01L9.51 7.01Q9.50 6.82 9.52 6.64L9.52 6.64L9.52 6.64Q9.52 6.43 9.52 6.23L9.52 6.23L9.52 6.23Q9.52 6.03 9.53 5.82L9.53 5.82L9.53 5.82Q9.53 5.58 9.65 5.48L9.65 5.48L9.65 5.48Q9.73 5.41 9.96 5.41L9.96 5.41L9.96 5.41Q10.08 5.41 10.16 5.40L10.16 5.40L10.16 5.40Q10.25 5.40 10.31 5.40L10.31 5.40L10.31 5.40Q10.58 5.39 10.84 5.40L10.84 5.40L10.84 5.40Q11.11 5.41 11.38 5.41L11.38 5.41L11.38 5.41Q11.52 5.40 11.66 5.40L11.66 5.40L11.66 5.40Q11.81 5.39 11.94 5.41L11.94 5.41L12.29 5.43L12.29 5.43Q12.35 5.43 12.40 5.43L12.40 5.43L12.40 5.43Q12.44 5.43 12.48 5.45L12.48 5.45L12.48 5.45Q12.62 5.52 12.61 5.66L12.61 5.66L12.61 5.66Q12.61 5.72 12.56 5.76L12.56 5.76L12.56 5.76Q12.52 5.80 12.47 5.82L12.47 5.82L12.47 5.82Q12.42 5.84 12.37 5.84L12.37 5.84L12.37 5.84Q12.31 5.85 12.27 5.85L12.27 5.85L12.27 5.85Q11.85 5.85 11.44 5.83L11.44 5.83L11.44 5.83Q11.40 5.82 11.34 5.82L11.34 5.82L11.34 5.82Q11.28 5.82 11.20 5.82L11.20 5.82L10.81 5.82L10.81 5.82Q10.65 5.82 10.53 5.83L10.53 5.83L10.53 5.83Q10.40 5.83 10.32 5.83L10.32 5.83L10.32 5.83Q10.21 5.84 10.13 5.86L10.13 5.86L10.13 5.86Q10.06 5.89 10.02 5.94L10.02 5.94L10.02 5.94Q9.97 6.02 9.98 6.15L9.98 6.15L9.98 6.15Q9.98 6.20 9.98 6.24L9.98 6.24L9.98 6.24Q9.98 6.28 9.97 6.32L9.97 6.32L9.97 6.32Q9.96 6.40 9.95 6.49L9.95 6.49L9.95 6.49Q9.95 6.58 9.95 6.69L9.95 6.69L9.95 6.69Q9.95 6.88 10.10 7.01L10.10 7.01L10.10 7.01Q10.23 7.12 10.55 7.10L10.55 7.10L10.55 7.10Q10.69 7.10 10.83 7.08L10.83 7.08L10.83 7.08Q10.97 7.06 11.12 7.07L11.12 7.07L11.12 7.07Q11.18 7.07 11.28 7.07L11.28 7.07L11.28 7.07Q11.38 7.08 11.51 7.07L11.51 7.07L11.51 7.07Q11.79 7.06 11.88 7.16L11.88 7.16L11.88 7.16Q11.92 7.21 11.91 7.32L11.91 7.32L11.91 7.32Q11.89 7.44 11.72 7.47L11.72 7.47L11.72 7.47Q11.56 7.50 11.46 7.50L11.46 7.50L11.46 7.50Q11.34 7.51 11.22 7.50L11.22 7.50L11.22 7.50Q11.10 7.50 10.98 7.51L10.98 7.51L10.98 7.51Q10.83 7.52 10.67 7.51L10.67 7.51L10.67 7.51Q10.51 7.51 10.34 7.49L10.34 7.49L10.34 7.49Q10.32 7.49 10.29 7.49L10.29 7.49L10.29 7.49Q10.27 7.49 10.25 7.49L10.25 7.49L10.24 7.49L10.24 7.49Q10.17 7.47 10.09 7.52L10.09 7.52L10.09 7.52Q9.97 7.59 9.95 7.78L9.95 7.78L9.95 7.78Q9.94 7.96 9.95 8.09L9.95 8.09L9.95 8.09Q9.96 8.16 9.96 8.22L9.96 8.22L9.96 8.22Q9.97 8.29 9.96 8.33L9.96 8.33L9.96 8.33Q9.95 8.44 9.94 8.53L9.94 8.53L9.94 8.53Q9.93 8.63 9.91 8.74L9.91 8.74L9.91 8.74Q9.89 9.00 9.98 9.13L9.98 9.13L9.98 9.13Q10.10 9.28 10.38 9.28L10.38 9.28L10.38 9.28Q10.61 9.28 10.84 9.27L10.84 9.27L10.84 9.27Q11.07 9.26 11.31 9.25L11.31 9.25L11.31 9.25Q11.52 9.24 11.74 9.26L11.74 9.26L11.74 9.26Q11.96 9.28 12.18 9.28L12.18 9.28L12.18 9.28Q12.26 9.28 12.40 9.28L12.40 9.28L12.40 9.28Q12.54 9.28 12.61 9.32L12.61 9.32L12.61 9.32Q12.68 9.36 12.69 9.44L12.69 9.44L12.69 9.44Q12.76 9.69 12.48 9.70L12.48 9.70L12.48 9.70Q12.02 9.72 11.59 9.71L11.59 9.71L11.59 9.71Q11.16 9.71 10.72 9.71L10.72 9.71L10.72 9.71Q10.69 9.71 10.67 9.72L10.67 9.72L10.67 9.72Q10.64 9.72 10.62 9.72L10.62 9.72L10.62 9.72Q10.47 9.72 10.35 9.72L10.35 9.72L10.35 9.72Q10.24 9.72 10.17 9.71L10.17 9.71L10.17 9.71Q10.12 9.71 10.05 9.71L10.05 9.71L10.05 9.71Q9.99 9.71 9.91 9.70L9.91 9.70L9.91 9.70Q9.84 9.69 9.79 9.69L9.79 9.69L9.79 9.69Q9.75 9.68 9.73 9.67L9.73 9.67L9.73 9.67Q9.52 9.61 9.52 9.29ZM14.23 5.50L14.23 5.50L14.23 5.50Q14.57 5.21 14.62 5.67L14.62 5.67L14.62 5.67Q14.63 5.76 14.63 5.87L14.63 5.87L14.63 5.87Q14.63 5.97 14.62 6.08L14.62 6.08L14.62 6.08Q14.62 6.21 14.61 6.32L14.61 6.32L14.61 6.32Q14.61 6.44 14.61 6.56L14.61 6.56L14.61 6.56Q14.62 6.90 14.79 6.96L14.79 6.96L14.79 6.96Q14.94 7.02 15.12 6.82L15.12 6.82L15.12 6.82Q15.24 6.69 15.38 6.54L15.38 6.54L15.38 6.54Q15.52 6.39 15.68 6.25L15.68 6.25L15.68 6.25Q15.82 6.14 15.95 6.02L15.95 6.02L15.95 6.02Q16.08 5.89 16.21 5.77L16.21 5.77L16.21 5.77Q16.24 5.74 16.29 5.70L16.29 5.70L16.29 5.70Q16.35 5.65 16.44 5.58L16.44 5.58L16.44 5.58Q16.60 5.46 16.69 5.43L16.69 5.43L16.69 5.43Q16.84 5.41 16.91 5.51L16.91 5.51L16.91 5.51Q16.97 5.63 16.86 5.74L16.86 5.74L16.86 5.74Q16.77 5.87 16.69 5.96L16.69 5.96L16.69 5.96Q16.62 6.04 16.57 6.09L16.57 6.09L16.57 6.09Q16.47 6.19 16.22 6.38L16.22 6.38L16.22 6.38Q16.11 6.46 16.00 6.56L16.00 6.56L16.00 6.56Q15.88 6.65 15.78 6.75L15.78 6.75L15.78 6.75Q15.61 6.94 15.59 7.10L15.59 7.10L15.59 7.10Q15.59 7.18 15.61 7.28L15.61 7.28L15.61 7.28Q15.63 7.38 15.70 7.50L15.70 7.50L15.70 7.50Q15.76 7.62 15.83 7.74L15.83 7.74L15.83 7.74Q15.90 7.86 15.96 7.98L15.96 7.98L15.96 7.98Q16.00 8.05 16.02 8.11L16.02 8.11L16.02 8.11Q16.05 8.16 16.06 8.20L16.06 8.20L16.06 8.20L16.06 8.20Q16.22 8.50 16.45 8.78L16.45 8.78L16.45 8.78Q16.69 9.06 16.97 9.34L16.97 9.34L16.97 9.34Q17.12 9.48 16.97 9.63L16.97 9.63L16.97 9.63Q16.82 9.79 16.67 9.64L16.67 9.64L16.67 9.64Q16.15 9.14 15.89 8.74L15.89 8.74L15.89 8.74Q15.73 8.49 15.60 8.22L15.60 8.22L15.60 8.22Q15.47 7.95 15.35 7.68L15.35 7.68L15.35 7.68Q15.24 7.46 15.09 7.45L15.09 7.45L15.09 7.45Q14.97 7.45 14.79 7.67L14.79 7.67L14.79 7.67Q14.71 7.77 14.68 7.87L14.68 7.87L14.68 7.87Q14.64 7.97 14.63 8.08L14.63 8.08L14.63 8.08Q14.62 8.24 14.65 8.40L14.65 8.40L14.65 8.40Q14.68 8.57 14.66 8.72L14.66 8.72L14.66 8.72Q14.66 8.76 14.66 8.78L14.66 8.78L14.66 8.78Q14.63 8.97 14.62 9.14L14.62 9.14L14.62 9.14Q14.62 9.32 14.62 9.48L14.62 9.48L14.62 9.48Q14.62 9.68 14.40 9.70L14.40 9.70L14.40 9.70Q14.20 9.69 14.20 9.49L14.20 9.49L14.20 9.49Q14.20 9.16 14.19 8.84L14.19 8.84L14.19 8.84Q14.18 8.51 14.16 8.18L14.16 8.18L14.16 8.18Q14.15 7.94 14.18 7.69L14.18 7.69L14.18 7.69Q14.22 7.44 14.22 7.20L14.22 7.20L14.22 7.20Q14.22 7.11 14.22 7.01L14.22 7.01L14.22 7.01Q14.23 6.92 14.23 6.82L14.23 6.82L14.23 6.82Q14.23 6.47 14.23 6.33L14.23 6.33L14.15 5.91L14.15 5.91Q14.11 5.65 14.23 5.50ZM24.67 5.75L24.67 5.75L24.67 5.75Q24.58 5.86 24.36 5.84L24.36 5.84L24.01 5.82L24.01 5.82Q23.91 5.82 23.82 5.81L23.82 5.81L23.82 5.81Q23.72 5.80 23.62 5.80L23.62 5.80L23.62 5.80Q23.41 5.80 23.32 5.89L23.32 5.89L23.32 5.89Q23.24 5.98 23.24 6.19L23.24 6.19L23.24 6.19Q23.24 6.28 23.25 6.37L23.25 6.37L23.25 6.37Q23.26 6.47 23.26 6.56L23.26 6.56L23.26 6.56Q23.27 6.79 23.27 6.96L23.27 6.96L23.27 6.96Q23.28 7.12 23.28 7.24L23.28 7.24L23.28 7.24Q23.28 7.59 23.24 7.94L23.24 7.94L23.24 7.94Q23.21 8.10 23.24 8.26L23.24 8.26L23.24 8.26Q23.26 8.43 23.26 8.59L23.26 8.59L23.26 8.59Q23.27 8.76 23.27 8.89L23.27 8.89L23.27 8.89Q23.28 9.02 23.28 9.11L23.28 9.11L23.28 9.11Q23.28 9.15 23.28 9.20L23.28 9.20L23.28 9.20Q23.28 9.26 23.27 9.35L23.27 9.35L23.27 9.35Q23.26 9.54 23.24 9.58L23.24 9.58L23.24 9.58Q23.15 9.73 23.01 9.69L23.01 9.69L23.01 9.69Q22.83 9.65 22.83 9.43L22.83 9.43L22.83 9.43Q22.83 9.22 22.84 9.01L22.84 9.01L22.84 9.01Q22.86 8.80 22.87 8.60L22.87 8.60L22.87 8.60Q22.89 8.36 22.87 8.11L22.87 8.11L22.87 8.11Q22.85 7.87 22.85 7.62L22.85 7.62L22.85 7.62Q22.85 7.40 22.86 7.17L22.86 7.17L22.86 7.17Q22.88 6.94 22.89 6.71L22.89 6.71L22.89 6.71Q22.89 6.27 22.74 6.08L22.74 6.08L22.74 6.08Q22.67 5.99 22.56 5.94L22.56 5.94L22.56 5.94Q22.46 5.89 22.33 5.87L22.33 5.87L22.33 5.87Q22.20 5.86 22.08 5.85L22.08 5.85L22.08 5.85Q21.97 5.84 21.86 5.84L21.86 5.84L21.86 5.84Q21.78 5.84 21.65 5.84L21.65 5.84L21.65 5.84Q21.53 5.84 21.46 5.80L21.46 5.80L21.46 5.80Q21.40 5.77 21.39 5.67L21.39 5.67L21.39 5.67Q21.38 5.59 21.41 5.54L21.41 5.54L21.41 5.54Q21.46 5.46 21.65 5.43L21.65 5.43L21.65 5.43Q21.67 5.43 21.72 5.43L21.72 5.43L21.72 5.43Q22.01 5.42 22.28 5.45L22.28 5.45L22.28 5.45Q22.55 5.48 22.84 5.46L22.84 5.46L22.84 5.46Q22.96 5.46 23.07 5.44L23.07 5.44L23.07 5.44Q23.18 5.43 23.30 5.43L23.30 5.43L23.30 5.43Q23.53 5.43 23.76 5.43L23.76 5.43L23.76 5.43Q23.99 5.43 24.21 5.42L24.21 5.42L24.21 5.42Q24.33 5.42 24.41 5.43L24.41 5.43L24.41 5.43Q24.50 5.43 24.56 5.46L24.56 5.46L24.56 5.46Q24.77 5.61 24.67 5.75ZM27.90 7.01L27.90 7.01L27.90 7.01Q28.15 7.01 28.40 7.02L28.40 7.02L28.40 7.02Q28.64 7.03 28.89 7.07L28.89 7.07L28.89 7.07Q29.08 7.10 29.18 6.99L29.18 6.99L29.18 6.99Q29.26 6.90 29.25 6.78L29.25 6.78L29.25 6.78Q29.25 6.66 29.25 6.55L29.25 6.55L29.25 6.55Q29.26 6.38 29.26 6.25L29.26 6.25L29.26 6.25Q29.26 6.13 29.26 6.04L29.26 6.04L29.26 6.04Q29.26 6.00 29.26 5.93L29.26 5.93L29.26 5.93Q29.26 5.87 29.27 5.79L29.27 5.79L29.27 5.79Q29.27 5.72 29.28 5.65L29.28 5.65L29.28 5.65Q29.29 5.58 29.31 5.54L29.31 5.54L29.31 5.54Q29.37 5.40 29.54 5.41L29.54 5.41L29.54 5.41Q29.72 5.43 29.72 5.72L29.72 5.72L29.72 5.72Q29.71 5.89 29.70 6.06L29.70 6.06L29.70 6.06Q29.68 6.23 29.70 6.40L29.70 6.40L29.70 6.41L29.70 6.41Q29.70 6.68 29.71 6.95L29.71 6.95L29.71 6.95Q29.72 7.23 29.74 7.49L29.74 7.49L29.74 7.49Q29.75 7.66 29.74 7.82L29.74 7.82L29.74 7.82Q29.72 7.99 29.72 8.16L29.72 8.16L29.72 8.16Q29.72 8.44 29.72 8.73L29.72 8.73L29.72 8.73Q29.72 9.01 29.72 9.30L29.72 9.30L29.72 9.30Q29.72 9.55 29.67 9.63L29.67 9.63L29.67 9.63Q29.64 9.67 29.56 9.69L29.56 9.69L29.56 9.69Q29.31 9.75 29.28 9.47L29.28 9.47L29.28 9.47Q29.24 9.13 29.25 8.77L29.25 8.77L29.25 8.77Q29.26 8.42 29.25 8.06L29.25 8.06L29.25 8.06Q29.24 7.93 29.22 7.77L29.22 7.77L29.22 7.77Q29.20 7.62 29.09 7.52L29.09 7.52L29.09 7.52Q28.98 7.44 28.73 7.44L28.73 7.44L28.73 7.44Q28.61 7.44 28.49 7.44L28.49 7.44L28.49 7.44Q28.37 7.45 28.25 7.44L28.25 7.44L27.86 7.44L27.86 7.44Q27.73 7.45 27.61 7.44L27.61 7.44L27.61 7.44Q27.49 7.43 27.37 7.42L27.37 7.42L27.37 7.42Q27.11 7.40 26.98 7.49L26.98 7.49L26.98 7.49Q26.82 7.63 26.82 7.95L26.82 7.95L26.82 7.95Q26.82 8.16 26.83 8.38L26.83 8.38L26.83 8.38Q26.84 8.59 26.84 8.80L26.84 8.80L26.84 8.80Q26.84 8.97 26.83 9.10L26.83 9.10L26.83 9.10Q26.82 9.22 26.82 9.31L26.82 9.31L26.82 9.31Q26.82 9.41 26.81 9.47L26.81 9.47L26.81 9.47Q26.80 9.54 26.79 9.59L26.79 9.59L26.79 9.59Q26.71 9.73 26.55 9.69L26.55 9.69L26.55 9.69Q26.39 9.67 26.39 9.44L26.39 9.44L26.39 9.44Q26.39 9.21 26.39 9.00L26.39 9.00L26.39 9.00Q26.39 8.78 26.39 8.55L26.39 8.55L26.39 8.55Q26.40 8.34 26.39 8.12L26.39 8.12L26.39 8.12Q26.39 7.91 26.39 7.69L26.39 7.69L26.39 7.69Q26.39 7.34 26.39 6.99L26.39 6.99L26.39 6.99Q26.40 6.64 26.41 6.30L26.41 6.30L26.41 6.30Q26.41 6.24 26.40 6.15L26.40 6.15L26.40 6.15Q26.39 6.05 26.39 5.91L26.39 5.91L26.39 5.91Q26.37 5.61 26.41 5.54L26.41 5.54L26.41 5.54Q26.50 5.41 26.61 5.41L26.61 5.41L26.61 5.41Q26.82 5.42 26.84 5.74L26.84 5.74L26.84 5.74Q26.84 5.82 26.85 5.88L26.85 5.88L26.85 5.88Q26.85 5.94 26.85 5.99L26.85 5.99L26.85 5.99Q26.85 6.02 26.85 6.08L26.85 6.08L26.85 6.08Q26.85 6.15 26.84 6.23L26.84 6.23L26.84 6.23Q26.82 6.33 26.81 6.43L26.81 6.43L26.81 6.43Q26.80 6.54 26.80 6.63L26.80 6.63L26.80 6.63Q26.78 6.85 26.88 6.93L26.88 6.93L26.88 6.93Q26.98 7.01 27.15 6.98L27.15 6.98L27.15 6.98Q27.25 6.97 27.32 6.97L27.32 6.97L27.32 6.97Q27.38 6.97 27.43 6.97L27.43 6.97L27.43 6.97Q27.55 6.98 27.67 6.99L27.67 6.99L27.67 6.99Q27.78 7.01 27.90 7.01ZM31.62 9.29L31.62 9.29L31.62 9.29Q31.62 8.87 31.62 8.46L31.62 8.46L31.62 8.46Q31.62 8.04 31.62 7.62L31.62 7.62L31.62 7.38L31.62 7.38Q31.62 7.20 31.61 7.01L31.61 7.01L31.61 7.01Q31.60 6.82 31.62 6.64L31.62 6.64L31.62 6.64Q31.62 6.43 31.62 6.23L31.62 6.23L31.62 6.23Q31.62 6.03 31.63 5.82L31.63 5.82L31.63 5.82Q31.63 5.58 31.75 5.48L31.75 5.48L31.75 5.48Q31.83 5.41 32.06 5.41L32.06 5.41L32.06 5.41Q32.18 5.41 32.26 5.40L32.26 5.40L32.26 5.40Q32.35 5.40 32.41 5.40L32.41 5.40L32.41 5.40Q32.68 5.39 32.94 5.40L32.94 5.40L32.94 5.40Q33.21 5.41 33.48 5.41L33.48 5.41L33.48 5.41Q33.62 5.40 33.76 5.40L33.76 5.40L33.76 5.40Q33.91 5.39 34.04 5.41L34.04 5.41L34.39 5.43L34.39 5.43Q34.45 5.43 34.50 5.43L34.50 5.43L34.50 5.43Q34.54 5.43 34.58 5.45L34.58 5.45L34.58 5.45Q34.72 5.52 34.71 5.66L34.71 5.66L34.71 5.66Q34.71 5.72 34.67 5.76L34.67 5.76L34.67 5.76Q34.62 5.80 34.57 5.82L34.57 5.82L34.57 5.82Q34.52 5.84 34.47 5.84L34.47 5.84L34.47 5.84Q34.41 5.85 34.37 5.85L34.37 5.85L34.37 5.85Q33.95 5.85 33.54 5.83L33.54 5.83L33.54 5.83Q33.50 5.82 33.44 5.82L33.44 5.82L33.44 5.82Q33.38 5.82 33.30 5.82L33.30 5.82L32.91 5.82L32.91 5.82Q32.75 5.82 32.63 5.83L32.63 5.83L32.63 5.83Q32.50 5.83 32.42 5.83L32.42 5.83L32.42 5.83Q32.31 5.84 32.23 5.86L32.23 5.86L32.23 5.86Q32.16 5.89 32.12 5.94L32.12 5.94L32.12 5.94Q32.07 6.02 32.08 6.15L32.08 6.15L32.08 6.15Q32.08 6.20 32.08 6.24L32.08 6.24L32.08 6.24Q32.08 6.28 32.07 6.32L32.07 6.32L32.07 6.32Q32.06 6.40 32.05 6.49L32.05 6.49L32.05 6.49Q32.05 6.58 32.05 6.69L32.05 6.69L32.05 6.69Q32.05 6.88 32.20 7.01L32.20 7.01L32.20 7.01Q32.33 7.12 32.65 7.10L32.65 7.10L32.65 7.10Q32.79 7.10 32.93 7.08L32.93 7.08L32.93 7.08Q33.07 7.06 33.22 7.07L33.22 7.07L33.22 7.07Q33.28 7.07 33.38 7.07L33.38 7.07L33.38 7.07Q33.48 7.08 33.61 7.07L33.61 7.07L33.61 7.07Q33.89 7.06 33.98 7.16L33.98 7.16L33.98 7.16Q34.02 7.21 34.01 7.32L34.01 7.32L34.01 7.32Q33.99 7.44 33.82 7.47L33.82 7.47L33.82 7.47Q33.66 7.50 33.56 7.50L33.56 7.50L33.56 7.50Q33.44 7.51 33.32 7.50L33.32 7.50L33.32 7.50Q33.20 7.50 33.08 7.51L33.08 7.51L33.08 7.51Q32.93 7.52 32.77 7.51L32.77 7.51L32.77 7.51Q32.61 7.51 32.44 7.49L32.44 7.49L32.44 7.49Q32.42 7.49 32.40 7.49L32.40 7.49L32.40 7.49Q32.37 7.49 32.35 7.49L32.35 7.49L32.34 7.49L32.34 7.49Q32.27 7.47 32.19 7.52L32.19 7.52L32.19 7.52Q32.07 7.59 32.05 7.78L32.05 7.78L32.05 7.78Q32.04 7.96 32.05 8.09L32.05 8.09L32.05 8.09Q32.06 8.16 32.06 8.22L32.06 8.22L32.06 8.22Q32.07 8.29 32.06 8.33L32.06 8.33L32.06 8.33Q32.05 8.44 32.04 8.53L32.04 8.53L32.04 8.53Q32.03 8.63 32.01 8.74L32.01 8.74L32.01 8.74Q31.99 9.00 32.08 9.13L32.08 9.13L32.08 9.13Q32.20 9.28 32.48 9.28L32.48 9.28L32.48 9.28Q32.71 9.28 32.94 9.27L32.94 9.27L32.94 9.27Q33.17 9.26 33.41 9.25L33.41 9.25L33.41 9.25Q33.62 9.24 33.84 9.26L33.84 9.26L33.84 9.26Q34.06 9.28 34.28 9.28L34.28 9.28L34.28 9.28Q34.36 9.28 34.50 9.28L34.50 9.28L34.50 9.28Q34.64 9.28 34.71 9.32L34.71 9.32L34.71 9.32Q34.78 9.36 34.79 9.44L34.79 9.44L34.79 9.44Q34.86 9.69 34.58 9.70L34.58 9.70L34.58 9.70Q34.13 9.72 33.69 9.71L33.69 9.71L33.69 9.71Q33.26 9.71 32.82 9.71L32.82 9.71L32.82 9.71Q32.79 9.71 32.77 9.72L32.77 9.72L32.77 9.72Q32.74 9.72 32.72 9.72L32.72 9.72L32.72 9.72Q32.57 9.72 32.45 9.72L32.45 9.72L32.45 9.72Q32.34 9.72 32.27 9.71L32.27 9.71L32.27 9.71Q32.22 9.71 32.15 9.71L32.15 9.71L32.15 9.71Q32.09 9.71 32.01 9.70L32.01 9.70L32.01 9.70Q31.94 9.69 31.89 9.69L31.89 9.69L31.89 9.69Q31.85 9.68 31.83 9.67L31.83 9.67L31.83 9.67Q31.62 9.61 31.62 9.29ZM44.34 9.06L44.34 9.06L44.34 9.06Q44.66 8.88 44.71 9.19L44.71 9.19L44.71 9.19Q44.74 9.32 44.58 9.44L44.58 9.44L44.58 9.44Q44.50 9.50 44.44 9.53L44.44 9.53L44.44 9.53Q44.37 9.57 44.32 9.59L44.32 9.59L44.32 9.59Q44.16 9.66 44.03 9.69L44.03 9.69L44.03 9.69Q43.91 9.72 43.81 9.73L43.81 9.73L43.81 9.73Q43.63 9.75 43.44 9.75L43.44 9.75L43.44 9.75Q43.24 9.75 43.02 9.71L43.02 9.71L43.02 9.71Q42.57 9.65 42.30 9.41L42.30 9.41L42.30 9.41Q42.05 9.19 41.88 8.89L41.88 8.89L41.88 8.89Q41.72 8.59 41.62 8.29L41.62 8.29L41.60 8.24L41.60 8.24Q41.54 8.05 41.56 7.80L41.56 7.80L41.56 7.80Q41.58 7.56 41.57 7.35L41.57 7.35L41.57 7.35Q41.57 7.18 41.58 7.06L41.58 7.06L41.58 7.06Q41.58 6.93 41.61 6.84L41.61 6.84L41.61 6.84Q41.66 6.67 41.83 6.38L41.83 6.38L41.83 6.38Q42.01 6.05 42.25 5.81L42.25 5.81L42.25 5.81Q42.48 5.57 42.88 5.49L42.88 5.49L42.88 5.49Q42.98 5.48 43.23 5.41L43.23 5.41L43.23 5.41Q43.31 5.39 43.40 5.37L43.40 5.37L43.40 5.37Q43.49 5.36 43.61 5.37L43.61 5.37L43.61 5.37Q43.70 5.37 43.81 5.39L43.81 5.39L43.81 5.39Q43.93 5.41 44.09 5.44L44.09 5.44L44.09 5.44Q44.20 5.48 44.43 5.58L44.43 5.58L44.43 5.58Q44.64 5.67 44.68 5.82L44.68 5.82L44.68 5.82Q44.69 5.88 44.67 5.94L44.67 5.94L44.67 5.94Q44.60 6.04 44.52 6.06L44.52 6.06L44.52 6.06Q44.47 6.08 44.40 6.06L44.40 6.06L44.40 6.06Q44.33 6.05 44.23 6.00L44.23 6.00L44.23 6.00Q44.09 5.93 43.98 5.88L43.98 5.88L43.98 5.88Q43.86 5.83 43.74 5.81L43.74 5.81L43.74 5.81Q43.62 5.78 43.49 5.79L43.49 5.79L43.49 5.79Q43.37 5.80 43.22 5.84L43.22 5.84L43.22 5.84Q42.86 5.95 42.72 6.02L42.72 6.02L42.72 6.02Q42.57 6.10 42.36 6.41L42.36 6.41L42.36 6.41Q42.20 6.65 42.11 6.91L42.11 6.91L42.11 6.91Q42.03 7.18 42.01 7.45L42.01 7.45L42.01 7.45Q42 7.73 42.06 8.00L42.06 8.00L42.06 8.00Q42.12 8.28 42.24 8.53L42.24 8.53L42.24 8.54L42.25 8.54L42.25 8.54Q42.54 9.08 43.09 9.22L43.09 9.22L43.09 9.22Q43.48 9.32 43.70 9.26L43.70 9.26L43.70 9.26Q43.76 9.26 43.82 9.24L43.82 9.24L43.82 9.24Q43.87 9.23 43.93 9.21L43.93 9.21L43.93 9.21Q44.17 9.17 44.34 9.06ZM47.80 7.01L47.80 7.01L47.80 7.01Q48.05 7.01 48.30 7.02L48.30 7.02L48.30 7.02Q48.54 7.03 48.79 7.07L48.79 7.07L48.79 7.07Q48.98 7.10 49.08 6.99L49.08 6.99L49.08 6.99Q49.16 6.90 49.15 6.78L49.15 6.78L49.15 6.78Q49.15 6.66 49.15 6.55L49.15 6.55L49.15 6.55Q49.16 6.38 49.16 6.25L49.16 6.25L49.16 6.25Q49.16 6.13 49.16 6.04L49.16 6.04L49.16 6.04Q49.16 6.00 49.16 5.93L49.16 5.93L49.16 5.93Q49.16 5.87 49.17 5.79L49.17 5.79L49.17 5.79Q49.17 5.72 49.18 5.65L49.18 5.65L49.18 5.65Q49.19 5.58 49.21 5.54L49.21 5.54L49.21 5.54Q49.27 5.40 49.44 5.41L49.44 5.41L49.44 5.41Q49.62 5.43 49.62 5.72L49.62 5.72L49.62 5.72Q49.61 5.89 49.59 6.06L49.59 6.06L49.59 6.06Q49.58 6.23 49.59 6.40L49.59 6.40L49.59 6.41L49.59 6.41Q49.59 6.68 49.61 6.95L49.61 6.95L49.61 6.95Q49.62 7.23 49.64 7.49L49.64 7.49L49.64 7.49Q49.65 7.66 49.64 7.82L49.64 7.82L49.64 7.82Q49.62 7.99 49.62 8.16L49.62 8.16L49.62 8.16Q49.62 8.44 49.62 8.73L49.62 8.73L49.62 8.73Q49.62 9.01 49.62 9.30L49.62 9.30L49.62 9.30Q49.62 9.55 49.57 9.63L49.57 9.63L49.57 9.63Q49.54 9.67 49.46 9.69L49.46 9.69L49.46 9.69Q49.21 9.75 49.18 9.47L49.18 9.47L49.18 9.47Q49.14 9.13 49.15 8.77L49.15 8.77L49.15 8.77Q49.16 8.42 49.15 8.06L49.15 8.06L49.15 8.06Q49.14 7.93 49.12 7.77L49.12 7.77L49.12 7.77Q49.10 7.62 48.99 7.52L48.99 7.52L48.99 7.52Q48.88 7.44 48.63 7.44L48.63 7.44L48.63 7.44Q48.51 7.44 48.39 7.44L48.39 7.44L48.39 7.44Q48.27 7.45 48.15 7.44L48.15 7.44L47.76 7.44L47.76 7.44Q47.63 7.45 47.51 7.44L47.51 7.44L47.51 7.44Q47.39 7.43 47.27 7.42L47.27 7.42L47.27 7.42Q47.01 7.40 46.88 7.49L46.88 7.49L46.88 7.49Q46.72 7.63 46.72 7.95L46.72 7.95L46.72 7.95Q46.72 8.16 46.73 8.38L46.73 8.38L46.73 8.38Q46.74 8.59 46.74 8.80L46.74 8.80L46.74 8.80Q46.74 8.97 46.73 9.10L46.73 9.10L46.73 9.10Q46.72 9.22 46.72 9.31L46.72 9.31L46.72 9.31Q46.72 9.41 46.71 9.47L46.71 9.47L46.71 9.47Q46.70 9.54 46.69 9.59L46.69 9.59L46.69 9.59Q46.61 9.73 46.45 9.69L46.45 9.69L46.45 9.69Q46.29 9.67 46.29 9.44L46.29 9.44L46.29 9.44Q46.29 9.21 46.29 9.00L46.29 9.00L46.29 9.00Q46.29 8.78 46.29 8.55L46.29 8.55L46.29 8.55Q46.30 8.34 46.29 8.12L46.29 8.12L46.29 8.12Q46.29 7.91 46.29 7.69L46.29 7.69L46.29 7.69Q46.29 7.34 46.29 6.99L46.29 6.99L46.29 6.99Q46.30 6.64 46.31 6.30L46.31 6.30L46.31 6.30Q46.31 6.24 46.30 6.15L46.30 6.15L46.30 6.15Q46.29 6.05 46.29 5.91L46.29 5.91L46.29 5.91Q46.27 5.61 46.31 5.54L46.31 5.54L46.31 5.54Q46.40 5.41 46.51 5.41L46.51 5.41L46.51 5.41Q46.72 5.42 46.74 5.74L46.74 5.74L46.74 5.74Q46.74 5.82 46.75 5.88L46.75 5.88L46.75 5.88Q46.75 5.94 46.75 5.99L46.75 5.99L46.75 5.99Q46.75 6.02 46.75 6.08L46.75 6.08L46.75 6.08Q46.75 6.15 46.74 6.23L46.74 6.23L46.74 6.23Q46.72 6.33 46.71 6.43L46.71 6.43L46.71 6.43Q46.70 6.54 46.70 6.63L46.70 6.63L46.70 6.63Q46.68 6.85 46.78 6.93L46.78 6.93L46.78 6.93Q46.88 7.01 47.05 6.98L47.05 6.98L47.05 6.98Q47.15 6.97 47.22 6.97L47.22 6.97L47.22 6.97Q47.28 6.97 47.33 6.97L47.33 6.97L47.33 6.97Q47.45 6.98 47.56 6.99L47.56 6.99L47.56 6.99Q47.68 7.01 47.80 7.01ZM55.40 9.47L55.40 9.47L55.40 9.47Q55.40 9.65 55.25 9.69L55.25 9.69L55.25 9.69Q55.13 9.75 55.04 9.61L55.04 9.61L55.04 9.61Q54.99 9.54 54.96 9.49L54.96 9.49L54.96 9.49Q54.93 9.43 54.91 9.39L54.91 9.39L54.91 9.39Q54.81 9.18 54.74 9.03L54.74 9.03L54.74 9.03Q54.66 8.87 54.58 8.78L54.58 8.78L54.58 8.78Q54.42 8.55 54.22 8.49L54.22 8.49L54.22 8.49Q54.05 8.44 53.68 8.48L53.68 8.48L53.68 8.48Q53.46 8.50 53.26 8.51L53.26 8.51L53.26 8.51Q53.07 8.52 52.89 8.50L52.89 8.50L52.89 8.50Q52.49 8.48 52.30 8.76L52.30 8.76L52.29 8.78L52.28 8.79L52.28 8.79Q52.21 8.93 52.17 9.06L52.17 9.06L52.17 9.06Q52.12 9.19 52.06 9.32L52.06 9.32L51.92 9.54L51.92 9.54Q51.82 9.69 51.72 9.70L51.72 9.70L51.72 9.70Q51.67 9.72 51.58 9.65L51.58 9.65L51.58 9.65Q51.54 9.60 51.53 9.55L51.53 9.55L51.53 9.55Q51.52 9.49 51.53 9.43L51.53 9.43L51.53 9.43Q51.54 9.37 51.57 9.30L51.57 9.30L51.57 9.30Q51.59 9.24 51.61 9.19L51.61 9.19L51.78 8.85L51.78 8.85Q52.01 8.35 52.22 7.85L52.22 7.85L52.22 7.85Q52.43 7.34 52.66 6.83L52.66 6.83L52.66 6.83Q52.71 6.74 52.74 6.66L52.74 6.66L52.74 6.66Q52.77 6.58 52.80 6.51L52.80 6.51L52.80 6.51Q52.88 6.32 52.95 6.14L52.95 6.14L52.95 6.14Q53.03 5.95 53.12 5.76L53.12 5.76L53.22 5.61L53.22 5.61Q53.30 5.48 53.37 5.48L53.37 5.48L53.37 5.48Q53.44 5.46 53.55 5.59L53.55 5.59L53.55 5.59Q53.66 5.73 53.77 5.91L53.77 5.91L53.77 5.91Q53.87 6.10 53.95 6.26L53.95 6.26L53.95 6.26Q54.19 6.77 54.40 7.28L54.40 7.28L54.40 7.28Q54.61 7.79 54.84 8.28L54.84 8.28L54.84 8.28Q54.92 8.43 54.99 8.58L54.99 8.58L54.99 8.58Q55.06 8.74 55.15 8.88L55.15 8.88L55.15 8.88Q55.19 8.98 55.23 9.08L55.23 9.08L55.23 9.08Q55.28 9.17 55.32 9.27L55.32 9.27L55.32 9.27Q55.35 9.34 55.37 9.39L55.37 9.39L55.37 9.39Q55.39 9.44 55.40 9.47ZM54.04 7.56L54.04 7.56L54.04 7.56Q53.98 7.40 53.91 7.22L53.91 7.22L53.91 7.22Q53.85 7.05 53.76 6.88L53.76 6.88L53.76 6.88Q53.59 6.57 53.40 6.58L53.40 6.58L53.40 6.58Q53.32 6.58 53.26 6.62L53.26 6.62L53.26 6.62Q53.20 6.67 53.16 6.72L53.16 6.72L53.16 6.72Q53.12 6.78 53.09 6.85L53.09 6.85L53.09 6.85Q53.05 6.92 53.03 6.98L53.03 6.98L53.03 6.98Q52.96 7.18 52.89 7.40L52.89 7.40L52.89 7.40Q52.82 7.62 52.76 7.83L52.76 7.83L52.76 7.83Q52.71 7.98 52.77 8.05L52.77 8.05L52.77 8.05Q52.81 8.12 52.99 8.13L52.99 8.13L52.99 8.13Q53.14 8.14 53.25 8.15L53.25 8.15L53.25 8.15Q53.37 8.15 53.44 8.14L53.44 8.14L53.44 8.14Q53.59 8.14 53.84 8.10L53.84 8.10L53.84 8.10Q54.09 8.06 54.14 7.88L54.14 7.88L54.14 7.88Q54.16 7.77 54.11 7.69L54.11 7.69L54.11 7.69Q54.10 7.66 54.08 7.63L54.08 7.63L54.08 7.63Q54.05 7.59 54.04 7.56ZM59.77 9.34L59.77 9.34L59.77 9.34Q59.85 9.40 59.85 9.50L59.85 9.50L59.85 9.50Q59.86 9.72 59.58 9.72L59.58 9.72L59.58 9.72Q59.09 9.72 58.60 9.71L58.60 9.71L58.60 9.71Q58.11 9.69 57.61 9.73L57.61 9.73L57.61 9.73Q57.22 9.75 57.14 9.52L57.14 9.52L57.14 9.52Q57.10 9.41 57.10 9.19L57.10 9.19L57.10 9.19Q57.11 9.08 57.11 8.99L57.11 8.99L57.11 8.99Q57.11 8.91 57.11 8.85L57.11 8.85L57.11 8.85Q57.12 8.70 57.13 8.53L57.13 8.53L57.13 8.53Q57.14 8.37 57.13 8.22L57.13 8.22L57.13 8.22Q57.12 7.89 57.11 7.58L57.11 7.58L57.11 7.58Q57.09 7.27 57.10 6.94L57.10 6.94L57.10 6.94Q57.11 6.78 57.11 6.63L57.11 6.63L57.11 6.63Q57.12 6.47 57.12 6.31L57.12 6.31L57.12 6.31Q57.13 6.11 57.12 5.94L57.12 5.94L57.12 5.94Q57.12 5.78 57.11 5.64L57.11 5.64L57.11 5.64Q57.09 5.46 57.28 5.42L57.28 5.42L57.28 5.42Q57.54 5.37 57.57 5.74L57.57 5.74L57.57 5.74Q57.58 5.89 57.59 6.04L57.59 6.04L57.59 6.04Q57.59 6.19 57.61 6.32L57.61 6.32L57.61 6.50L57.58 6.76L57.58 6.76Q57.57 6.87 57.56 6.98L57.56 6.98L57.56 6.98Q57.54 7.09 57.54 7.19L57.54 7.19L57.54 7.19Q57.52 7.45 57.52 7.65L57.52 7.65L57.52 7.65Q57.52 7.84 57.53 7.97L57.53 7.97L57.53 7.97Q57.54 8.13 57.55 8.31L57.55 8.31L57.55 8.31Q57.55 8.49 57.54 8.69L57.54 8.69L57.54 8.69Q57.52 8.99 57.62 9.08L57.62 9.08L57.62 9.08Q57.70 9.17 57.94 9.19L57.94 9.19L57.94 9.19Q58.06 9.21 58.18 9.21L58.18 9.21L58.18 9.21Q58.30 9.22 58.43 9.24L58.43 9.24L58.43 9.24Q58.61 9.26 58.80 9.24L58.80 9.24L58.80 9.24Q58.99 9.22 59.19 9.25L59.19 9.25L59.19 9.25Q59.31 9.26 59.48 9.27L59.48 9.27L59.48 9.27Q59.66 9.28 59.77 9.34ZM63.98 9.34L63.98 9.34L63.98 9.34Q64.07 9.40 64.07 9.50L64.07 9.50L64.07 9.50Q64.07 9.72 63.80 9.72L63.80 9.72L63.80 9.72Q63.31 9.72 62.82 9.71L62.82 9.71L62.82 9.71Q62.32 9.69 61.83 9.73L61.83 9.73L61.83 9.73Q61.44 9.75 61.36 9.52L61.36 9.52L61.36 9.52Q61.32 9.41 61.32 9.19L61.32 9.19L61.32 9.19Q61.33 9.08 61.33 8.99L61.33 8.99L61.33 8.99Q61.33 8.91 61.33 8.85L61.33 8.85L61.33 8.85Q61.34 8.70 61.35 8.53L61.35 8.53L61.35 8.53Q61.36 8.37 61.35 8.22L61.35 8.22L61.35 8.22Q61.34 7.89 61.33 7.58L61.33 7.58L61.33 7.58Q61.31 7.27 61.32 6.94L61.32 6.94L61.32 6.94Q61.33 6.78 61.33 6.63L61.33 6.63L61.33 6.63Q61.34 6.47 61.34 6.31L61.34 6.31L61.34 6.31Q61.35 6.11 61.34 5.94L61.34 5.94L61.34 5.94Q61.34 5.78 61.33 5.64L61.33 5.64L61.33 5.64Q61.31 5.46 61.50 5.42L61.50 5.42L61.50 5.42Q61.76 5.37 61.78 5.74L61.78 5.74L61.78 5.74Q61.80 5.89 61.80 6.04L61.80 6.04L61.80 6.04Q61.81 6.19 61.82 6.32L61.82 6.32L61.82 6.50L61.80 6.76L61.80 6.76Q61.78 6.87 61.77 6.98L61.77 6.98L61.77 6.98Q61.76 7.09 61.76 7.19L61.76 7.19L61.76 7.19Q61.74 7.45 61.74 7.65L61.74 7.65L61.74 7.65Q61.74 7.84 61.75 7.97L61.75 7.97L61.75 7.97Q61.76 8.13 61.77 8.31L61.77 8.31L61.77 8.31Q61.77 8.49 61.76 8.69L61.76 8.69L61.76 8.69Q61.74 8.99 61.84 9.08L61.84 9.08L61.84 9.08Q61.91 9.17 62.16 9.19L62.16 9.19L62.16 9.19Q62.28 9.21 62.40 9.21L62.40 9.21L62.40 9.21Q62.52 9.22 62.64 9.24L62.64 9.24L62.64 9.24Q62.83 9.26 63.02 9.24L63.02 9.24L63.02 9.24Q63.21 9.22 63.40 9.25L63.40 9.25L63.40 9.25Q63.53 9.26 63.70 9.27L63.70 9.27L63.70 9.27Q63.88 9.28 63.98 9.34ZM65.54 9.29L65.54 9.29L65.54 9.29Q65.53 8.87 65.53 8.46L65.53 8.46L65.53 8.46Q65.54 8.04 65.54 7.62L65.54 7.62L65.54 7.38L65.54 7.38Q65.54 7.20 65.53 7.01L65.53 7.01L65.53 7.01Q65.52 6.82 65.53 6.64L65.53 6.64L65.53 6.64Q65.54 6.43 65.54 6.23L65.54 6.23L65.54 6.23Q65.54 6.03 65.54 5.82L65.54 5.82L65.54 5.82Q65.54 5.58 65.66 5.48L65.66 5.48L65.66 5.48Q65.75 5.41 65.97 5.41L65.97 5.41L65.97 5.41Q66.09 5.41 66.18 5.40L66.18 5.40L66.18 5.40Q66.26 5.40 66.32 5.40L66.32 5.40L66.32 5.40Q66.59 5.39 66.86 5.40L66.86 5.40L66.86 5.40Q67.12 5.41 67.39 5.41L67.39 5.41L67.39 5.41Q67.53 5.40 67.68 5.40L67.68 5.40L67.68 5.40Q67.82 5.39 67.96 5.41L67.96 5.41L68.30 5.43L68.30 5.43Q68.37 5.43 68.41 5.43L68.41 5.43L68.41 5.43Q68.46 5.43 68.49 5.45L68.49 5.45L68.49 5.45Q68.63 5.52 68.63 5.66L68.63 5.66L68.63 5.66Q68.62 5.72 68.58 5.76L68.58 5.76L68.58 5.76Q68.54 5.80 68.49 5.82L68.49 5.82L68.49 5.82Q68.43 5.84 68.38 5.84L68.38 5.84L68.38 5.84Q68.33 5.85 68.28 5.85L68.28 5.85L68.28 5.85Q67.87 5.85 67.46 5.83L67.46 5.83L67.46 5.83Q67.42 5.82 67.35 5.82L67.35 5.82L67.35 5.82Q67.29 5.82 67.22 5.82L67.22 5.82L66.82 5.82L66.82 5.82Q66.66 5.82 66.54 5.83L66.54 5.83L66.54 5.83Q66.42 5.83 66.34 5.83L66.34 5.83L66.34 5.83Q66.22 5.84 66.14 5.86L66.14 5.86L66.14 5.86Q66.07 5.89 66.04 5.94L66.04 5.94L66.04 5.94Q65.98 6.02 65.99 6.15L65.99 6.15L65.99 6.15Q65.99 6.20 65.99 6.24L65.99 6.24L65.99 6.24Q65.99 6.28 65.99 6.32L65.99 6.32L65.99 6.32Q65.97 6.40 65.97 6.49L65.97 6.49L65.97 6.49Q65.96 6.58 65.97 6.69L65.97 6.69L65.97 6.69Q65.97 6.88 66.12 7.01L66.12 7.01L66.12 7.01Q66.24 7.12 66.56 7.10L66.56 7.10L66.56 7.10Q66.71 7.10 66.85 7.08L66.85 7.08L66.85 7.08Q66.99 7.06 67.13 7.07L67.13 7.07L67.13 7.07Q67.19 7.07 67.29 7.07L67.29 7.07L67.29 7.07Q67.39 7.08 67.53 7.07L67.53 7.07L67.53 7.07Q67.80 7.06 67.89 7.16L67.89 7.16L67.89 7.16Q67.93 7.21 67.92 7.32L67.92 7.32L67.92 7.32Q67.90 7.44 67.73 7.47L67.73 7.47L67.73 7.47Q67.57 7.50 67.48 7.50L67.48 7.50L67.48 7.50Q67.35 7.51 67.23 7.50L67.23 7.50L67.23 7.50Q67.12 7.50 66.99 7.51L66.99 7.51L66.99 7.51Q66.84 7.52 66.68 7.51L66.68 7.51L66.68 7.51Q66.53 7.51 66.36 7.49L66.36 7.49L66.36 7.49Q66.34 7.49 66.31 7.49L66.31 7.49L66.31 7.49Q66.28 7.49 66.26 7.49L66.26 7.49L66.25 7.49L66.25 7.49Q66.18 7.47 66.10 7.52L66.10 7.52L66.10 7.52Q65.98 7.59 65.97 7.78L65.97 7.78L65.97 7.78Q65.95 7.96 65.97 8.09L65.97 8.09L65.97 8.09Q65.97 8.16 65.98 8.22L65.98 8.22L65.98 8.22Q65.98 8.29 65.97 8.33L65.97 8.33L65.97 8.33Q65.96 8.44 65.95 8.53L65.95 8.53L65.95 8.53Q65.94 8.63 65.93 8.74L65.93 8.74L65.93 8.74Q65.91 9.00 65.99 9.13L65.99 9.13L65.99 9.13Q66.11 9.28 66.40 9.28L66.40 9.28L66.40 9.28Q66.62 9.28 66.86 9.27L66.86 9.27L66.86 9.27Q67.09 9.26 67.32 9.25L67.32 9.25L67.32 9.25Q67.53 9.24 67.75 9.26L67.75 9.26L67.75 9.26Q67.98 9.28 68.20 9.28L68.20 9.28L68.20 9.28Q68.28 9.28 68.41 9.28L68.41 9.28L68.41 9.28Q68.55 9.28 68.63 9.32L68.63 9.32L68.63 9.32Q68.69 9.36 68.70 9.44L68.70 9.44L68.70 9.44Q68.78 9.69 68.49 9.70L68.49 9.70L68.49 9.70Q68.04 9.72 67.60 9.71L67.60 9.71L67.60 9.71Q67.17 9.71 66.73 9.71L66.73 9.71L66.73 9.71Q66.71 9.71 66.68 9.72L66.68 9.72L66.68 9.72Q66.66 9.72 66.64 9.72L66.64 9.72L66.64 9.72Q66.48 9.72 66.37 9.72L66.37 9.72L66.37 9.72Q66.25 9.72 66.18 9.71L66.18 9.71L66.18 9.71Q66.13 9.71 66.07 9.71L66.07 9.71L66.07 9.71Q66.00 9.71 65.92 9.70L65.92 9.70L65.92 9.70Q65.85 9.69 65.81 9.69L65.81 9.69L65.81 9.69Q65.76 9.68 65.74 9.67L65.74 9.67L65.74 9.67Q65.54 9.61 65.54 9.29ZM70.63 9.56L70.63 9.56L70.63 9.56Q70.60 9.68 70.42 9.70L70.42 9.70L70.42 9.70Q70.23 9.69 70.23 9.49L70.23 9.49L70.23 9.49Q70.23 8.96 70.20 8.41L70.20 8.41L70.20 8.41Q70.18 7.87 70.23 7.33L70.23 7.33L70.23 7.33L70.23 7.33Q70.23 7.17 70.24 7.02L70.24 7.02L70.24 7.02Q70.24 6.87 70.23 6.73L70.23 6.73L70.17 6.21L70.17 6.21Q70.15 5.99 70.24 5.74L70.24 5.74L70.24 5.74Q70.31 5.56 70.42 5.52L70.42 5.52L70.42 5.52Q70.52 5.50 70.62 5.62L70.62 5.62L70.62 5.62Q70.72 5.72 70.77 5.80L70.77 5.80L70.77 5.80Q70.85 5.93 70.95 6.03L70.95 6.03L70.95 6.03Q71.04 6.13 71.13 6.22L71.13 6.22L71.13 6.22Q71.20 6.31 71.28 6.37L71.28 6.37L71.28 6.37Q71.36 6.44 71.44 6.52L71.44 6.52L71.44 6.52Q71.50 6.59 71.59 6.70L71.59 6.70L71.59 6.70Q71.67 6.80 71.76 6.95L71.76 6.95L72.06 7.41L72.06 7.41Q72.10 7.46 72.14 7.52L72.14 7.52L72.14 7.52Q72.17 7.58 72.23 7.66L72.23 7.66L72.24 7.67L72.24 7.67Q72.38 7.86 72.54 8.03L72.54 8.03L72.54 8.03Q72.61 8.11 72.69 8.19L72.69 8.19L72.69 8.19Q72.76 8.26 72.84 8.33L72.84 8.33L72.84 8.33Q72.92 8.42 73.02 8.39L73.02 8.39L73.02 8.39Q73.18 8.35 73.17 8.07L73.17 8.07L73.17 8.07Q73.17 8.00 73.16 7.93L73.16 7.93L73.16 7.93Q73.15 7.85 73.15 7.78L73.15 7.78L73.15 7.78Q73.14 7.72 73.14 7.67L73.14 7.67L73.14 7.67Q73.13 7.62 73.13 7.56L73.13 7.56L73.13 7.56Q73.13 7.53 73.13 7.50L73.13 7.50L73.13 7.50Q73.12 7.46 73.12 7.42L73.12 7.42L73.12 7.42Q73.15 6.82 73.08 6.30L73.08 6.30L73.08 6.30Q73.08 6.27 73.08 6.19L73.08 6.19L73.08 6.19Q73.08 6.11 73.09 5.99L73.09 5.99L73.09 5.99Q73.10 5.84 73.13 5.67L73.13 5.67L73.13 5.67Q73.15 5.42 73.35 5.42L73.35 5.42L73.35 5.42Q73.57 5.42 73.57 5.68L73.57 5.68L73.57 5.68Q73.58 5.89 73.59 6.11L73.59 6.11L73.59 6.11Q73.60 6.32 73.60 6.54L73.60 6.54L73.60 6.54Q73.60 6.85 73.58 7.16L73.58 7.16L73.58 7.16Q73.56 7.48 73.58 7.79L73.58 7.79L73.58 7.79Q73.59 8.00 73.59 8.21L73.59 8.21L73.59 8.21Q73.58 8.42 73.58 8.62L73.58 8.62L73.58 8.62Q73.58 8.74 73.58 8.85L73.58 8.85L73.58 8.85Q73.58 8.96 73.58 9.06L73.58 9.06L73.58 9.34L73.58 9.34Q73.58 9.38 73.57 9.42L73.57 9.42L73.57 9.42Q73.57 9.46 73.57 9.50L73.57 9.50L73.57 9.50Q73.56 9.50 73.56 9.51L73.56 9.51L73.56 9.51Q73.56 9.52 73.55 9.52L73.55 9.52L73.55 9.52Q73.48 9.62 73.32 9.62L73.32 9.62L73.32 9.62Q73.14 9.63 73.04 9.50L73.04 9.50L73.04 9.50Q72.94 9.37 72.85 9.22L72.85 9.22L72.85 9.22Q72.77 9.07 72.67 8.93L72.67 8.93L72.67 8.93Q72.54 8.76 72.40 8.58L72.40 8.58L72.40 8.58Q72.25 8.39 72.07 8.18L72.07 8.18L72.07 8.18Q72.00 8.10 71.88 7.90L71.88 7.90L71.64 7.52L71.64 7.52Q71.55 7.38 71.46 7.24L71.46 7.24L71.46 7.24Q71.37 7.10 71.28 6.97L71.28 6.97L71.28 6.97Q71.24 6.92 71.19 6.87L71.19 6.87L71.19 6.87Q71.14 6.81 71.09 6.77L71.09 6.77L71.09 6.77Q71.03 6.73 70.96 6.71L70.96 6.71L70.96 6.71Q70.90 6.69 70.83 6.71L70.83 6.71L70.83 6.71Q70.64 6.76 70.66 7.08L70.66 7.08L70.66 7.08Q70.66 7.31 70.67 7.52L70.67 7.52L70.67 7.52Q70.67 7.72 70.68 7.90L70.68 7.90L70.68 7.90Q70.70 8.05 70.68 8.19L70.68 8.19L70.68 8.19Q70.66 8.33 70.66 8.47L70.66 8.47L70.66 9.00L70.66 9.00Q70.66 9.17 70.65 9.31L70.65 9.31L70.65 9.31Q70.64 9.45 70.63 9.56ZM79.08 9.26L79.08 9.26L79.08 9.26Q78.57 9.71 77.86 9.75L77.86 9.75L77.86 9.75Q77.17 9.78 76.56 9.53L76.56 9.53L76.55 9.52L76.54 9.52L76.54 9.52Q76.43 9.49 76.24 9.33L76.24 9.33L76.24 9.33Q76.06 9.17 76.00 9.08L76.00 9.08L76.00 9.08Q75.89 8.95 75.81 8.78L75.81 8.78L75.81 8.78Q75.74 8.61 75.65 8.45L75.65 8.45L75.65 8.45Q75.50 8.16 75.49 7.95L75.49 7.95L75.49 7.95Q75.48 7.85 75.49 7.71L75.49 7.71L75.49 7.71Q75.49 7.58 75.50 7.41L75.50 7.41L75.50 7.41Q75.56 6.66 75.97 6.02L75.97 6.02L75.97 6.02Q76.01 5.97 76.10 5.89L76.10 5.89L76.10 5.89Q76.20 5.81 76.35 5.73L76.35 5.73L76.35 5.73Q76.67 5.56 76.88 5.49L76.88 5.49L76.88 5.49Q77.03 5.44 77.21 5.42L77.21 5.42L77.21 5.42Q77.62 5.37 78.05 5.42L78.05 5.42L78.05 5.42Q78.48 5.48 78.85 5.69L78.85 5.69L78.85 5.69Q78.90 5.72 78.97 5.77L78.97 5.77L78.97 5.77Q79.03 5.82 79.12 5.89L79.12 5.89L79.12 5.89Q79.29 6.02 79.31 6.15L79.31 6.15L79.31 6.15Q79.32 6.21 79.27 6.27L79.27 6.27L79.27 6.27Q79.19 6.36 79.13 6.36L79.13 6.36L79.13 6.36Q79.04 6.36 78.95 6.30L78.95 6.30L78.95 6.30Q78.85 6.23 78.80 6.19L78.80 6.19L78.80 6.19Q78.68 6.12 78.61 6.07L78.61 6.07L78.61 6.07Q78.54 6.02 78.52 6.01L78.52 6.01L78.52 6.01Q78.18 5.82 77.68 5.82L77.68 5.82L77.68 5.82Q77.56 5.82 77.42 5.83L77.42 5.83L77.42 5.83Q77.29 5.84 77.13 5.87L77.13 5.87L77.12 5.87L77.10 5.88L77.10 5.88Q76.23 6.13 75.97 7.06L75.97 7.06L75.97 7.06Q75.89 7.40 75.94 7.70L75.94 7.70L75.94 7.70Q75.99 8.00 76.07 8.31L76.07 8.31L76.07 8.31Q76.20 8.79 76.50 9.00L76.50 9.00L76.50 9.00Q76.80 9.21 77.26 9.30L77.26 9.30L77.27 9.30L77.27 9.30Q77.39 9.32 77.50 9.32L77.50 9.32L77.50 9.32Q77.60 9.32 77.70 9.30L77.70 9.30L77.70 9.30Q77.81 9.28 77.91 9.26L77.91 9.26L77.91 9.26Q78.02 9.24 78.14 9.23L78.14 9.23L78.14 9.23Q78.63 9.17 78.83 8.88L78.83 8.88L78.83 8.87L78.83 8.87Q78.98 8.64 78.96 8.22L78.96 8.22L78.96 8.22Q78.95 8.00 78.80 7.87L78.80 7.87L78.80 7.87Q78.61 7.70 78.29 7.71L78.29 7.71L77.74 7.73L77.74 7.73Q77.65 7.74 77.58 7.74L77.58 7.74L77.58 7.74Q77.51 7.75 77.46 7.75L77.46 7.75L77.46 7.75Q77.20 7.71 77.23 7.51L77.23 7.51L77.23 7.51Q77.25 7.38 77.42 7.33L77.42 7.33L77.42 7.33Q77.73 7.31 78.03 7.33L78.03 7.33L78.03 7.33Q78.33 7.35 78.64 7.33L78.64 7.33L78.93 7.31L78.93 7.31Q79.13 7.29 79.23 7.38L79.23 7.38L79.23 7.38Q79.34 7.46 79.34 7.66L79.34 7.66L79.34 7.66Q79.37 7.87 79.37 7.98L79.37 7.98L79.37 7.98Q79.37 8.16 79.37 8.36L79.37 8.36L79.37 8.36Q79.38 8.57 79.34 8.74L79.34 8.74L79.34 8.74Q79.30 9.00 79.08 9.26ZM81.13 9.29L81.13 9.29L81.13 9.29Q81.12 8.87 81.13 8.46L81.13 8.46L81.13 8.46Q81.13 8.04 81.13 7.62L81.13 7.62L81.13 7.38L81.13 7.38Q81.13 7.20 81.12 7.01L81.12 7.01L81.12 7.01Q81.11 6.82 81.12 6.64L81.12 6.64L81.12 6.64Q81.13 6.43 81.13 6.23L81.13 6.23L81.13 6.23Q81.13 6.03 81.14 5.82L81.14 5.82L81.14 5.82Q81.14 5.58 81.25 5.48L81.25 5.48L81.25 5.48Q81.34 5.41 81.57 5.41L81.57 5.41L81.57 5.41Q81.68 5.41 81.77 5.40L81.77 5.40L81.77 5.40Q81.85 5.40 81.92 5.40L81.92 5.40L81.92 5.40Q82.18 5.39 82.45 5.40L82.45 5.40L82.45 5.40Q82.71 5.41 82.98 5.41L82.98 5.41L82.98 5.41Q83.13 5.40 83.27 5.40L83.27 5.40L83.27 5.40Q83.41 5.39 83.55 5.41L83.55 5.41L83.90 5.43L83.90 5.43Q83.96 5.43 84.00 5.43L84.00 5.43L84.00 5.43Q84.05 5.43 84.08 5.45L84.08 5.45L84.08 5.45Q84.23 5.52 84.22 5.66L84.22 5.66L84.22 5.66Q84.21 5.72 84.17 5.76L84.17 5.76L84.17 5.76Q84.13 5.80 84.08 5.82L84.08 5.82L84.08 5.82Q84.03 5.84 83.97 5.84L83.97 5.84L83.97 5.84Q83.92 5.85 83.88 5.85L83.88 5.85L83.88 5.85Q83.46 5.85 83.05 5.83L83.05 5.83L83.05 5.83Q83.01 5.82 82.95 5.82L82.95 5.82L82.95 5.82Q82.89 5.82 82.81 5.82L82.81 5.82L82.41 5.82L82.41 5.82Q82.26 5.82 82.13 5.83L82.13 5.83L82.13 5.83Q82.01 5.83 81.93 5.83L81.93 5.83L81.93 5.83Q81.81 5.84 81.74 5.86L81.74 5.86L81.74 5.86Q81.66 5.89 81.63 5.94L81.63 5.94L81.63 5.94Q81.57 6.02 81.59 6.15L81.59 6.15L81.59 6.15Q81.59 6.20 81.59 6.24L81.59 6.24L81.59 6.24Q81.59 6.28 81.58 6.32L81.58 6.32L81.58 6.32Q81.57 6.40 81.56 6.49L81.56 6.49L81.56 6.49Q81.55 6.58 81.56 6.69L81.56 6.69L81.56 6.69Q81.56 6.88 81.71 7.01L81.71 7.01L81.71 7.01Q81.83 7.12 82.15 7.10L82.15 7.10L82.15 7.10Q82.30 7.10 82.44 7.08L82.44 7.08L82.44 7.08Q82.58 7.06 82.72 7.07L82.72 7.07L82.72 7.07Q82.78 7.07 82.88 7.07L82.88 7.07L82.88 7.07Q82.98 7.08 83.12 7.07L83.12 7.07L83.12 7.07Q83.39 7.06 83.49 7.16L83.49 7.16L83.49 7.16Q83.52 7.21 83.51 7.32L83.51 7.32L83.51 7.32Q83.49 7.44 83.32 7.47L83.32 7.47L83.32 7.47Q83.17 7.50 83.07 7.50L83.07 7.50L83.07 7.50Q82.95 7.51 82.83 7.50L82.83 7.50L82.83 7.50Q82.71 7.50 82.58 7.51L82.58 7.51L82.58 7.51Q82.43 7.52 82.28 7.51L82.28 7.51L82.28 7.51Q82.12 7.51 81.95 7.49L81.95 7.49L81.95 7.49Q81.93 7.49 81.90 7.49L81.90 7.49L81.90 7.49Q81.87 7.49 81.85 7.49L81.85 7.49L81.85 7.49L81.85 7.49Q81.77 7.47 81.70 7.52L81.70 7.52L81.70 7.52Q81.57 7.59 81.56 7.78L81.56 7.78L81.56 7.78Q81.55 7.96 81.56 8.09L81.56 8.09L81.56 8.09Q81.57 8.16 81.57 8.22L81.57 8.22L81.57 8.22Q81.57 8.29 81.57 8.33L81.57 8.33L81.57 8.33Q81.55 8.44 81.54 8.53L81.54 8.53L81.54 8.53Q81.53 8.63 81.52 8.74L81.52 8.74L81.52 8.74Q81.50 9.00 81.59 9.13L81.59 9.13L81.59 9.13Q81.70 9.28 81.99 9.28L81.99 9.28L81.99 9.28Q82.22 9.28 82.45 9.27L82.45 9.27L82.45 9.27Q82.68 9.26 82.91 9.25L82.91 9.25L82.91 9.25Q83.13 9.24 83.35 9.26L83.35 9.26L83.35 9.26Q83.57 9.28 83.79 9.28L83.79 9.28L83.79 9.28Q83.87 9.28 84.01 9.28L84.01 9.28L84.01 9.28Q84.14 9.28 84.22 9.32L84.22 9.32L84.22 9.32Q84.29 9.36 84.29 9.44L84.29 9.44L84.29 9.44Q84.37 9.69 84.08 9.70L84.08 9.70L84.08 9.70Q83.63 9.72 83.20 9.71L83.20 9.71L83.20 9.71Q82.76 9.71 82.33 9.71L82.33 9.71L82.33 9.71Q82.30 9.71 82.27 9.72L82.27 9.72L82.27 9.72Q82.25 9.72 82.23 9.72L82.23 9.72L82.23 9.72Q82.07 9.72 81.96 9.72L81.96 9.72L81.96 9.72Q81.85 9.72 81.77 9.71L81.77 9.71L81.77 9.71Q81.72 9.71 81.66 9.71L81.66 9.71L81.66 9.71Q81.59 9.71 81.51 9.70L81.51 9.70L81.51 9.70Q81.44 9.69 81.40 9.69L81.40 9.69L81.40 9.69Q81.35 9.68 81.33 9.67L81.33 9.67L81.33 9.67Q81.13 9.61 81.13 9.29Z"></path></g></svg>