<svg data-v-fde0c5aa="" xmlns="http://www.w3.org/2000/svg" viewBox="0 0 300 300" class="font"><!----><defs data-v-fde0c5aa=""><!----></defs><rect data-v-fde0c5aa="" fill="#F7FAF4" x="0" y="0" width="300px" height="300px" class="logo-background-square"></rect><defs data-v-fde0c5aa=""><!----></defs><g data-v-fde0c5aa="" id="51cddbd5-47d8-401e-9d57-64e507f59d97" fill="#1B231A" transform="matrix(3.675958554599365,0,0,3.675958554599365,40.012253197190454,118.79436421919675)"><path d="M2.67 9.34L2.67 9.34L2.67 9.34Q2.75 9.40 2.75 9.50L2.75 9.50L2.75 9.50Q2.75 9.72 2.48 9.72L2.48 9.72L2.48 9.72Q1.99 9.72 1.50 9.71L1.50 9.71L1.50 9.71Q1.00 9.69 0.51 9.73L0.51 9.73L0.51 9.73Q0.12 9.75 0.04 9.52L0.04 9.52L0.04 9.52Q0 9.41 0 9.19L0 9.19L0 9.19Q0.01 9.08 0.01 8.99L0.01 8.99L0.01 8.99Q0.01 8.91 0.01 8.85L0.01 8.85L0.01 8.85Q0.02 8.70 0.03 8.53L0.03 8.53L0.03 8.53Q0.04 8.37 0.03 8.22L0.03 8.22L0.03 8.22Q0.02 7.89 0.01 7.58L0.01 7.58L0.01 7.58Q-0.01 7.27 0 6.94L0 6.94L0 6.94Q0.01 6.78 0.01 6.63L0.01 6.63L0.01 6.63Q0.02 6.47 0.02 6.31L0.02 6.31L0.02 6.31Q0.03 6.11 0.02 5.94L0.02 5.94L0.02 5.94Q0.02 5.78 0.01 5.64L0.01 5.64L0.01 5.64Q-0.01 5.46 0.18 5.42L0.18 5.42L0.18 5.42Q0.44 5.37 0.46 5.74L0.46 5.74L0.46 5.74Q0.48 5.89 0.49 6.04L0.49 6.04L0.49 6.04Q0.49 6.19 0.51 6.32L0.51 6.32L0.51 6.50L0.48 6.76L0.48 6.76Q0.46 6.87 0.45 6.98L0.45 6.98L0.45 6.98Q0.44 7.09 0.44 7.19L0.44 7.19L0.44 7.19Q0.42 7.45 0.42 7.65L0.42 7.65L0.42 7.65Q0.42 7.84 0.43 7.97L0.43 7.97L0.43 7.97Q0.44 8.13 0.45 8.31L0.45 8.31L0.45 8.31Q0.45 8.49 0.44 8.69L0.44 8.69L0.44 8.69Q0.42 8.99 0.52 9.08L0.52 9.08L0.52 9.08Q0.59 9.17 0.84 9.19L0.84 9.19L0.84 9.19Q0.96 9.21 1.08 9.21L1.08 9.21L1.08 9.21Q1.20 9.22 1.33 9.24L1.33 9.24L1.33 9.24Q1.51 9.26 1.70 9.24L1.70 9.24L1.70 9.24Q1.89 9.22 2.08 9.25L2.08 9.25L2.08 9.25Q2.21 9.26 2.38 9.27L2.38 9.27L2.38 9.27Q2.56 9.28 2.67 9.34ZM5.63 9.69L5.63 9.69L5.63 9.69Q5.49 9.65 5.35 9.58L5.35 9.58L5.35 9.58Q5.21 9.52 5.08 9.43L5.08 9.43L5.08 9.43Q4.94 9.34 4.83 9.24L4.83 9.24L4.83 9.24Q4.71 9.13 4.63 9.01L4.63 9.01L4.63 9.01Q4.52 8.84 4.47 8.66L4.47 8.66L4.47 8.66Q4.42 8.48 4.33 8.29L4.33 8.29L4.33 8.29Q4.27 8.13 4.26 7.96L4.26 7.96L4.26 7.96Q4.25 7.88 4.24 7.79L4.24 7.79L4.24 7.79Q4.23 7.70 4.23 7.62L4.23 7.62L4.23 7.62Q4.22 7.54 4.22 7.48L4.22 7.48L4.22 7.48Q4.22 7.42 4.22 7.38L4.22 7.38L4.22 7.38Q4.22 7.25 4.23 7.11L4.23 7.11L4.23 7.11Q4.25 6.97 4.29 6.82L4.29 6.82L4.29 6.82Q4.29 6.77 4.33 6.69L4.33 6.69L4.33 6.69Q4.40 6.49 4.50 6.31L4.50 6.31L4.50 6.31Q4.61 6.13 4.74 5.97L4.74 5.97L4.74 5.97Q5.01 5.67 5.49 5.43L5.49 5.43L5.49 5.43Q5.71 5.34 5.95 5.35L5.95 5.35L5.95 5.35Q6.10 5.36 6.25 5.39L6.25 5.39L6.25 5.39Q6.37 5.41 6.46 5.42L6.46 5.42L6.46 5.42Q6.56 5.43 6.62 5.44L6.62 5.44L6.62 5.44Q7.15 5.50 7.55 5.91L7.55 5.91L7.55 5.91Q7.64 6.00 7.72 6.10L7.72 6.10L7.72 6.10Q7.80 6.21 7.88 6.33L7.88 6.33L7.91 6.38L7.91 6.38Q7.92 6.41 7.92 6.42L7.92 6.42L7.92 6.42Q7.93 6.43 7.94 6.45L7.94 6.45L7.94 6.45Q8.05 6.72 8.15 7.13L8.15 7.13L8.15 7.13Q8.24 7.51 8.18 7.83L8.18 7.83L8.18 7.83Q8.13 8.02 8.07 8.19L8.07 8.19L8.07 8.19Q8.01 8.36 7.96 8.53L7.96 8.53L7.96 8.53Q7.70 9.45 6.76 9.69L6.76 9.69L6.71 9.70L6.71 9.70Q6.65 9.71 6.57 9.73L6.57 9.73L6.57 9.73Q6.49 9.74 6.38 9.75L6.38 9.75L6.38 9.75Q6.20 9.78 6.01 9.76L6.01 9.76L6.01 9.76Q5.82 9.75 5.63 9.69ZM6.32 5.78L6.32 5.78L6.32 5.78Q5.95 5.78 5.65 5.87L5.65 5.87L5.65 5.87Q5.35 5.95 5.11 6.19L5.11 6.19L5.11 6.19Q4.79 6.52 4.70 6.92L4.70 6.92L4.70 6.92Q4.61 7.32 4.70 7.81L4.70 7.81L4.76 8.15L4.76 8.15Q4.78 8.24 4.79 8.30L4.79 8.30L4.79 8.30Q4.81 8.36 4.81 8.37L4.81 8.37L4.81 8.37Q4.85 8.52 4.98 8.66L4.98 8.66L4.98 8.66Q5.10 8.80 5.20 8.90L5.20 8.90L5.20 8.90Q5.26 8.96 5.31 9.02L5.31 9.02L5.31 9.02Q5.37 9.08 5.43 9.13L5.43 9.13L5.43 9.13Q5.53 9.21 5.77 9.29L5.77 9.29L5.78 9.29L5.78 9.29Q5.91 9.32 6.07 9.31L6.07 9.31L6.07 9.31Q6.23 9.30 6.43 9.26L6.43 9.26L6.43 9.26Q6.52 9.23 6.62 9.22L6.62 9.22L6.62 9.22Q6.72 9.21 6.82 9.18L6.82 9.18L6.82 9.18Q7.08 9.12 7.25 8.91L7.25 8.91L7.25 8.91L7.25 8.90L7.25 8.90Q7.36 8.77 7.44 8.57L7.44 8.57L7.44 8.57Q7.51 8.37 7.54 8.32L7.54 8.32L7.54 8.32Q7.88 7.65 7.64 6.87L7.64 6.87L7.64 6.86L7.64 6.86Q7.61 6.79 7.58 6.72L7.58 6.72L7.58 6.72Q7.55 6.65 7.51 6.58L7.51 6.58L7.51 6.58Q7.24 6.18 6.87 6.00L6.87 6.00L6.87 6.00Q6.86 6.00 6.81 5.97L6.81 5.97L6.81 5.97Q6.76 5.94 6.67 5.89L6.67 5.89L6.67 5.89Q6.55 5.81 6.32 5.78L6.32 5.78ZM13.15 5.42L13.15 5.42L13.15 5.42Q13.36 5.41 13.36 5.63L13.36 5.63L13.36 5.63Q13.36 5.91 13.35 6.19L13.35 6.19L13.35 6.19Q13.35 6.46 13.32 6.75L13.32 6.75L13.32 6.75Q13.28 7.01 13.31 7.27L13.31 7.27L13.31 7.27Q13.34 7.53 13.34 7.79L13.34 7.79L13.34 7.84L13.32 8.31L13.32 8.31Q13.30 8.46 13.28 8.57L13.28 8.57L13.28 8.57Q13.26 8.69 13.25 8.76L13.25 8.76L13.23 8.79L13.22 8.84L13.22 8.85L13.22 8.85Q13.20 8.93 13.15 9.01L13.15 9.01L13.15 9.01Q13.09 9.10 13.03 9.18L13.03 9.18L13.03 9.18Q12.96 9.26 12.89 9.32L12.89 9.32L12.89 9.32Q12.81 9.39 12.75 9.45L12.75 9.45L12.75 9.45Q12.63 9.55 12.50 9.61L12.50 9.61L12.50 9.61Q12.36 9.67 12.21 9.70L12.21 9.70L12.21 9.70Q12.06 9.73 11.90 9.74L11.90 9.74L11.90 9.74Q11.75 9.75 11.61 9.75L11.61 9.75L11.61 9.75Q11.35 9.75 11.12 9.69L11.12 9.69L11.12 9.69Q10.88 9.63 10.65 9.50L10.65 9.50L10.65 9.50Q10.64 9.48 10.64 9.47L10.64 9.47L10.64 9.47Q10.62 9.47 10.60 9.45L10.60 9.45L10.60 9.45Q10.59 9.44 10.58 9.43L10.58 9.43L10.58 9.43Q10.55 9.41 10.54 9.40L10.54 9.40L10.54 9.40Q10.53 9.39 10.51 9.37L10.51 9.37L10.51 9.37Q10.17 9.01 10.08 8.47L10.08 8.47L10.08 8.47Q10.04 8.20 10.02 7.95L10.02 7.95L10.02 7.95Q10.01 7.69 10.02 7.44L10.02 7.44L10.02 7.44Q10.03 7.38 10.04 7.32L10.04 7.32L10.04 7.32Q10.04 7.27 10.05 7.21L10.05 7.21L10.05 7.21Q10.06 7.12 10.05 7.05L10.05 7.05L10.05 7.05Q10.05 6.97 10.04 6.90L10.04 6.90L10.04 6.90Q10.00 6.36 10.02 5.63L10.02 5.63L10.02 5.63Q10.03 5.48 10.20 5.42L10.20 5.42L10.20 5.42Q10.34 5.38 10.43 5.45L10.43 5.45L10.43 5.45Q10.49 5.50 10.49 5.57L10.49 5.57L10.49 5.57Q10.49 5.67 10.49 5.82L10.49 5.82L10.49 5.82Q10.49 5.97 10.48 6.17L10.48 6.17L10.48 6.17Q10.48 6.34 10.47 6.51L10.47 6.51L10.47 6.51Q10.45 6.68 10.45 6.84L10.45 6.84L10.45 6.84Q10.45 7.05 10.44 7.24L10.44 7.24L10.44 7.24Q10.42 7.44 10.42 7.64L10.42 7.64L10.42 7.64Q10.42 8.02 10.55 8.50L10.55 8.50L10.55 8.50Q10.56 8.56 10.58 8.61L10.58 8.61L10.58 8.61Q10.60 8.66 10.61 8.72L10.61 8.72L10.61 8.72Q10.71 9.04 10.92 9.16L10.92 9.16L10.92 9.16Q11.08 9.26 11.51 9.28L11.51 9.28L11.51 9.28Q11.57 9.29 11.62 9.30L11.62 9.30L11.62 9.30Q11.68 9.31 11.74 9.31L11.74 9.31L11.74 9.31L11.75 9.31L11.75 9.31Q12.08 9.31 12.33 9.19L12.33 9.19L12.33 9.19Q12.57 9.08 12.74 8.79L12.74 8.79L12.74 8.79Q12.88 8.56 12.88 8.08L12.88 8.08L12.88 8.08Q12.88 7.99 12.88 7.93L12.88 7.93L12.88 7.93Q12.88 7.86 12.89 7.82L12.89 7.82L12.89 7.82Q12.95 7.21 12.87 6.55L12.87 6.55L12.87 6.55Q12.86 6.46 12.89 6.22L12.89 6.22L12.89 6.22Q12.91 6.13 12.91 6.05L12.91 6.05L12.91 6.05Q12.92 5.97 12.92 5.92L12.92 5.92L12.92 5.92Q12.92 5.63 12.96 5.52L12.96 5.52L12.96 5.52Q13.02 5.42 13.15 5.42ZM15.44 9.70L15.44 9.70L15.44 9.70Q15.22 9.67 15.22 9.44L15.22 9.44L15.22 9.44Q15.21 9.07 15.21 8.72L15.21 8.72L15.21 8.72Q15.21 8.36 15.21 7.99L15.21 7.99L15.21 7.99Q15.21 7.79 15.23 7.58L15.23 7.58L15.23 7.58Q15.24 7.43 15.24 7.30L15.24 7.30L15.24 7.30Q15.24 7.17 15.24 7.06L15.24 7.06L15.24 7.06Q15.23 6.99 15.22 6.90L15.22 6.90L15.22 6.90Q15.22 6.80 15.21 6.67L15.21 6.67L15.21 6.67Q15.21 6.60 15.21 6.51L15.21 6.51L15.21 6.51Q15.22 6.41 15.22 6.28L15.22 6.28L15.22 6.28Q15.23 6.19 15.23 6.11L15.23 6.11L15.23 6.11Q15.24 6.04 15.24 5.99L15.24 5.99L15.24 5.84L15.24 5.83L15.24 5.78L15.24 5.78Q15.22 5.61 15.24 5.54L15.24 5.54L15.24 5.54Q15.26 5.49 15.33 5.44L15.33 5.44L15.33 5.44Q15.60 5.30 15.66 5.61L15.66 5.61L15.66 5.61Q15.72 5.84 15.73 6.07L15.73 6.07L15.73 6.07Q15.74 6.29 15.72 6.51L15.72 6.51L15.72 6.51L15.72 6.51Q15.70 6.73 15.71 6.94L15.71 6.94L15.71 6.94Q15.72 7.15 15.70 7.36L15.70 7.36L15.70 7.36Q15.67 7.55 15.66 7.68L15.66 7.68L15.66 7.68Q15.65 7.82 15.64 7.92L15.64 7.92L15.64 7.92Q15.63 8.05 15.63 8.20L15.63 8.20L15.63 8.20Q15.63 8.35 15.63 8.51L15.63 8.51L15.63 8.51Q15.64 8.54 15.64 8.59L15.64 8.59L15.64 8.59Q15.64 8.63 15.64 8.70L15.64 8.70L15.64 8.70Q15.64 8.80 15.64 8.91L15.64 8.91L15.64 8.91Q15.64 9.02 15.65 9.13L15.65 9.13L15.65 9.13Q15.65 9.20 15.65 9.27L15.65 9.27L15.65 9.27Q15.65 9.33 15.65 9.40L15.65 9.40L15.65 9.40Q15.65 9.54 15.64 9.55L15.64 9.55L15.64 9.55Q15.61 9.68 15.44 9.70ZM20.54 9.08L20.54 9.08L20.54 9.08Q20.42 9.23 20.31 9.34L20.31 9.34L20.31 9.34Q20.21 9.45 20.09 9.53L20.09 9.53L20.09 9.53Q19.97 9.60 19.83 9.66L19.83 9.66L19.83 9.66Q19.69 9.71 19.52 9.73L19.52 9.73L19.52 9.73Q19.43 9.74 19.33 9.74L19.33 9.74L19.33 9.74Q19.24 9.75 19.13 9.73L19.13 9.73L19.13 9.73Q18.98 9.72 18.83 9.72L18.83 9.72L18.83 9.72Q18.69 9.72 18.54 9.69L18.54 9.69L18.54 9.69Q18.21 9.61 17.99 9.46L17.99 9.46L17.99 9.46Q17.77 9.31 17.66 9.07L17.66 9.07L17.66 9.07Q17.51 8.74 17.83 8.73L17.83 8.73L17.83 8.73Q17.88 8.73 17.95 8.81L17.95 8.81L17.95 8.81Q18.03 8.89 18.07 8.93L18.07 8.93L18.07 8.93Q18.21 9.07 18.23 9.08L18.23 9.08L18.24 9.08L18.24 9.09L18.24 9.09Q18.57 9.32 19.13 9.32L19.13 9.32L19.13 9.32L19.14 9.32L19.14 9.32Q19.37 9.32 19.74 9.23L19.74 9.23L19.74 9.23Q20.09 9.14 20.21 8.87L20.21 8.87L20.21 8.87Q20.27 8.70 20.21 8.51L20.21 8.51L20.21 8.50L20.21 8.50Q20.04 8.14 19.54 8.02L19.54 8.02L18.70 7.80L18.70 7.80Q18.53 7.76 18.27 7.63L18.27 7.63L18.27 7.63Q18.14 7.56 18.05 7.51L18.05 7.51L18.05 7.51Q17.95 7.45 17.89 7.40L17.89 7.40L17.89 7.40Q17.61 7.19 17.56 6.99L17.56 6.99L17.56 6.99Q17.55 6.95 17.55 6.89L17.55 6.89L17.55 6.89Q17.55 6.83 17.55 6.74L17.55 6.74L17.55 6.74Q17.55 6.64 17.57 6.55L17.57 6.55L17.57 6.55Q17.58 6.46 17.60 6.36L17.60 6.36L17.60 6.36Q17.64 6.04 17.86 5.80L17.86 5.80L17.86 5.80Q17.96 5.69 18.11 5.62L18.11 5.62L18.11 5.62Q18.26 5.55 18.40 5.49L18.40 5.49L18.40 5.49Q18.59 5.40 18.80 5.40L18.80 5.40L18.80 5.40Q19.00 5.39 19.21 5.40L19.21 5.40L19.21 5.40Q19.88 5.42 20.25 5.87L20.25 5.87L20.25 5.87Q20.43 6.08 20.38 6.22L20.38 6.22L20.34 6.26L20.34 6.26Q20.23 6.32 20.08 6.19L20.08 6.19L20.08 6.19Q20.04 6.16 20.00 6.13L20.00 6.13L20.00 6.13Q19.97 6.09 19.93 6.06L19.93 6.06L19.93 6.06Q19.90 6.02 19.84 5.98L19.84 5.98L19.84 5.98Q19.79 5.95 19.72 5.91L19.72 5.91L19.71 5.90L19.69 5.90L19.69 5.90Q19.43 5.82 19.17 5.81L19.17 5.81L19.17 5.81Q18.91 5.80 18.63 5.86L18.63 5.86L18.63 5.86Q18.29 5.93 18.12 6.14L18.12 6.14L18.12 6.14Q17.94 6.34 17.94 6.67L17.94 6.67L17.94 6.69L17.94 6.70L17.94 6.70Q17.97 7.12 18.60 7.30L18.60 7.30L18.80 7.36L19.30 7.53L19.30 7.53Q19.42 7.57 19.54 7.62L19.54 7.62L19.54 7.62Q19.65 7.67 19.78 7.72L19.78 7.72L19.78 7.72Q19.97 7.81 20.14 7.90L20.14 7.90L20.14 7.90Q20.30 7.98 20.44 8.07L20.44 8.07L20.44 8.07Q20.54 8.13 20.59 8.22L20.59 8.22L20.59 8.22Q20.64 8.31 20.65 8.41L20.65 8.41L20.65 8.41Q20.67 8.51 20.67 8.62L20.67 8.62L20.67 8.62Q20.67 8.73 20.64 8.82L20.64 8.82L20.64 8.82Q20.63 8.89 20.60 8.96L20.60 8.96L20.60 8.96Q20.57 9.03 20.54 9.08ZM28.59 9.26L28.59 9.26L28.59 9.26Q28.08 9.71 27.37 9.75L27.37 9.75L27.37 9.75Q26.68 9.78 26.07 9.53L26.07 9.53L26.06 9.52L26.04 9.52L26.04 9.52Q25.94 9.49 25.75 9.33L25.75 9.33L25.75 9.33Q25.57 9.17 25.50 9.08L25.50 9.08L25.50 9.08Q25.40 8.95 25.32 8.78L25.32 8.78L25.32 8.78Q25.25 8.61 25.16 8.45L25.16 8.45L25.16 8.45Q25.01 8.16 25.00 7.95L25.00 7.95L25.00 7.95Q24.99 7.85 25.00 7.71L25.00 7.71L25.00 7.71Q25.00 7.58 25.01 7.41L25.01 7.41L25.01 7.41Q25.07 6.66 25.48 6.02L25.48 6.02L25.48 6.02Q25.52 5.97 25.61 5.89L25.61 5.89L25.61 5.89Q25.71 5.81 25.86 5.73L25.86 5.73L25.86 5.73Q26.17 5.56 26.39 5.49L26.39 5.49L26.39 5.49Q26.54 5.44 26.71 5.42L26.71 5.42L26.71 5.42Q27.13 5.37 27.56 5.42L27.56 5.42L27.56 5.42Q27.99 5.48 28.36 5.69L28.36 5.69L28.36 5.69Q28.41 5.72 28.48 5.77L28.48 5.77L28.48 5.77Q28.54 5.82 28.63 5.89L28.63 5.89L28.63 5.89Q28.80 6.02 28.82 6.15L28.82 6.15L28.82 6.15Q28.83 6.21 28.78 6.27L28.78 6.27L28.78 6.27Q28.70 6.36 28.64 6.36L28.64 6.36L28.64 6.36Q28.55 6.36 28.46 6.30L28.46 6.30L28.46 6.30Q28.36 6.23 28.31 6.19L28.31 6.19L28.31 6.19Q28.19 6.12 28.12 6.07L28.12 6.07L28.12 6.07Q28.05 6.02 28.03 6.01L28.03 6.01L28.03 6.01Q27.69 5.82 27.19 5.82L27.19 5.82L27.19 5.82Q27.07 5.82 26.93 5.83L26.93 5.83L26.93 5.83Q26.80 5.84 26.64 5.87L26.64 5.87L26.63 5.87L26.61 5.88L26.61 5.88Q25.74 6.13 25.48 7.06L25.48 7.06L25.48 7.06Q25.40 7.40 25.45 7.70L25.45 7.70L25.45 7.70Q25.50 8.00 25.58 8.31L25.58 8.31L25.58 8.31Q25.71 8.79 26.01 9.00L26.01 9.00L26.01 9.00Q26.31 9.21 26.77 9.30L26.77 9.30L26.78 9.30L26.78 9.30Q26.90 9.32 27.01 9.32L27.01 9.32L27.01 9.32Q27.11 9.32 27.21 9.30L27.21 9.30L27.21 9.30Q27.32 9.28 27.42 9.26L27.42 9.26L27.42 9.26Q27.53 9.24 27.65 9.23L27.65 9.23L27.65 9.23Q28.14 9.17 28.34 8.88L28.34 8.88L28.34 8.87L28.34 8.87Q28.49 8.64 28.46 8.22L28.46 8.22L28.46 8.22Q28.46 8.00 28.31 7.87L28.31 7.87L28.31 7.87Q28.12 7.70 27.79 7.71L27.79 7.71L27.25 7.73L27.25 7.73Q27.16 7.74 27.09 7.74L27.09 7.74L27.09 7.74Q27.02 7.75 26.97 7.75L26.97 7.75L26.97 7.75Q26.71 7.71 26.74 7.51L26.74 7.51L26.74 7.51Q26.76 7.38 26.93 7.33L26.93 7.33L26.93 7.33Q27.24 7.31 27.54 7.33L27.54 7.33L27.54 7.33Q27.84 7.35 28.15 7.33L28.15 7.33L28.44 7.31L28.44 7.31Q28.64 7.29 28.74 7.38L28.74 7.38L28.74 7.38Q28.85 7.46 28.85 7.66L28.85 7.66L28.85 7.66Q28.88 7.87 28.88 7.98L28.88 7.98L28.88 7.98Q28.88 8.16 28.88 8.36L28.88 8.36L28.88 8.36Q28.89 8.57 28.85 8.74L28.85 8.74L28.85 8.74Q28.81 9.00 28.59 9.26ZM33.41 5.68L33.41 5.68L33.41 5.68Q33.58 5.82 33.69 6.01L33.69 6.01L33.69 6.01Q33.79 6.19 33.83 6.42L33.83 6.42L33.83 6.42Q33.92 6.87 33.53 7.18L33.53 7.18L33.53 7.18Q33.42 7.27 33.26 7.35L33.26 7.35L33.26 7.35Q33.10 7.43 32.89 7.52L32.89 7.52L32.89 7.52Q32.76 7.59 32.73 7.67L32.73 7.67L32.73 7.67Q32.70 7.73 32.81 7.94L32.81 7.94L32.81 7.94Q32.87 8.05 32.94 8.16L32.94 8.16L32.94 8.16Q33.01 8.26 33.07 8.36L33.07 8.36L33.07 8.36Q33.16 8.52 33.24 8.66L33.24 8.66L33.24 8.66Q33.31 8.80 33.39 8.91L33.39 8.91L33.39 8.91Q33.46 9.03 33.55 9.16L33.55 9.16L33.55 9.16Q33.65 9.29 33.76 9.45L33.76 9.45L33.76 9.45Q33.94 9.68 34.12 9.89L34.12 9.89L34.12 9.89Q34.30 10.10 34.50 10.29L34.50 10.29L34.50 10.29Q34.75 10.53 35.14 10.83L35.14 10.83L35.14 10.83Q35.53 11.12 35.90 11.20L35.90 11.20L35.90 11.20Q35.94 11.20 36.00 11.21L36.00 11.21L36.00 11.21Q36.07 11.21 36.16 11.21L36.16 11.21L36.16 11.21Q36.36 11.21 36.45 11.25L36.45 11.25L36.45 11.25Q36.50 11.25 36.56 11.34L36.56 11.34L36.56 11.34Q36.71 11.58 36.39 11.62L36.39 11.62L36.39 11.62Q35.79 11.68 35.21 11.35L35.21 11.35L35.21 11.35Q34.92 11.18 34.67 11.00L34.67 11.00L34.67 11.00Q34.43 10.81 34.23 10.62L34.23 10.62L34.19 10.58L34.19 10.58Q34.07 10.46 33.96 10.35L33.96 10.35L33.96 10.35Q33.86 10.23 33.77 10.12L33.77 10.12L33.77 10.12Q33.54 9.84 33.40 9.63L33.40 9.63L33.40 9.63Q33.29 9.46 33.16 9.31L33.16 9.31L33.16 9.31Q33.04 9.16 32.94 9.00L32.94 9.00L32.94 9.00Q32.78 8.74 32.62 8.47L32.62 8.47L32.62 8.47Q32.46 8.20 32.28 7.90L32.28 7.90L32.28 7.90Q32.17 7.71 31.90 7.58L31.90 7.58L31.90 7.58Q31.64 7.46 31.43 7.54L31.43 7.54L31.43 7.54Q31.09 7.68 31.09 8.13L31.09 8.13L31.09 8.13Q31.09 8.37 31.08 8.60L31.08 8.60L31.08 8.60Q31.07 8.83 31.07 9.05L31.07 9.05L31.07 9.49L31.07 9.49Q31.07 9.70 30.86 9.70L30.86 9.70L30.86 9.70Q30.64 9.70 30.64 9.49L30.64 9.49L30.64 9.49Q30.64 9.13 30.65 8.80L30.65 8.80L30.65 8.80Q30.65 8.48 30.67 8.18L30.67 8.18L30.67 8.18Q30.68 7.93 30.66 7.68L30.66 7.68L30.66 7.68Q30.64 7.42 30.64 7.17L30.64 7.17L30.64 7.17Q30.64 6.92 30.65 6.67L30.65 6.67L30.65 6.67Q30.66 6.41 30.67 6.15L30.67 6.15L30.69 5.76L30.69 5.76Q30.70 5.59 30.72 5.54L30.72 5.54L30.72 5.54Q30.75 5.49 30.83 5.46L30.83 5.46L30.83 5.46Q30.92 5.43 31.06 5.41L31.06 5.41L31.06 5.41Q31.19 5.40 31.28 5.39L31.28 5.39L31.28 5.39Q31.38 5.39 31.46 5.39L31.46 5.39L31.46 5.39Q31.54 5.38 31.64 5.38L31.64 5.38L31.64 5.38Q31.74 5.39 31.86 5.40L31.86 5.40L31.86 5.40Q31.92 5.41 31.97 5.41L31.97 5.41L31.97 5.41Q32.02 5.41 32.05 5.41L32.05 5.41L32.05 5.41Q32.25 5.43 32.44 5.42L32.44 5.42L32.44 5.42Q32.63 5.42 32.82 5.46L32.82 5.46L32.82 5.46Q33.02 5.49 33.16 5.55L33.16 5.55L33.16 5.55Q33.31 5.61 33.41 5.68ZM31.46 7.16L31.46 7.16L31.46 7.16Q31.67 7.17 31.86 7.17L31.86 7.17L31.86 7.17Q32.05 7.17 32.23 7.16L32.23 7.16L32.23 7.16Q32.35 7.14 32.51 7.12L32.51 7.12L32.51 7.12Q32.66 7.10 32.85 7.06L32.85 7.06L32.85 7.06Q33.24 6.99 33.35 6.71L33.35 6.71L33.35 6.71Q33.41 6.56 33.35 6.36L33.35 6.36L33.35 6.36Q33.17 5.93 32.68 5.86L32.68 5.86L32.68 5.86Q32.40 5.82 32.10 5.83L32.10 5.83L32.10 5.83Q31.80 5.84 31.51 5.84L31.51 5.84L31.51 5.84Q31.36 5.85 31.28 5.87L31.28 5.87L31.28 5.87Q31.20 5.89 31.17 5.92L31.17 5.92L31.17 5.92Q31.11 5.98 31.12 6.23L31.12 6.23L31.12 6.23Q31.14 6.40 31.11 6.57L31.11 6.57L31.11 6.57Q31.08 6.74 31.08 6.90L31.08 6.90L31.08 6.90Q31.06 7.03 31.15 7.11L31.15 7.11L31.15 7.11Q31.21 7.16 31.46 7.16ZM39.25 5.42L39.25 5.42L39.25 5.42Q39.46 5.41 39.46 5.63L39.46 5.63L39.46 5.63Q39.46 5.91 39.45 6.19L39.45 6.19L39.45 6.19Q39.45 6.46 39.42 6.75L39.42 6.75L39.42 6.75Q39.38 7.01 39.41 7.27L39.41 7.27L39.41 7.27Q39.44 7.53 39.44 7.79L39.44 7.79L39.44 7.84L39.42 8.31L39.42 8.31Q39.40 8.46 39.38 8.57L39.38 8.57L39.38 8.57Q39.36 8.69 39.35 8.76L39.35 8.76L39.33 8.79L39.32 8.84L39.32 8.85L39.32 8.85Q39.30 8.93 39.25 9.01L39.25 9.01L39.25 9.01Q39.19 9.10 39.13 9.18L39.13 9.18L39.13 9.18Q39.06 9.26 38.99 9.32L38.99 9.32L38.99 9.32Q38.91 9.39 38.85 9.45L38.85 9.45L38.85 9.45Q38.73 9.55 38.60 9.61L38.60 9.61L38.60 9.61Q38.46 9.67 38.31 9.70L38.31 9.70L38.31 9.70Q38.16 9.73 38.00 9.74L38.00 9.74L38.00 9.74Q37.85 9.75 37.71 9.75L37.71 9.75L37.71 9.75Q37.45 9.75 37.21 9.69L37.21 9.69L37.21 9.69Q36.98 9.63 36.75 9.50L36.75 9.50L36.75 9.50Q36.74 9.48 36.74 9.47L36.74 9.47L36.74 9.47Q36.72 9.47 36.70 9.45L36.70 9.45L36.70 9.45Q36.69 9.44 36.67 9.43L36.67 9.43L36.67 9.43Q36.65 9.41 36.64 9.40L36.64 9.40L36.64 9.40Q36.63 9.39 36.61 9.37L36.61 9.37L36.61 9.37Q36.27 9.01 36.18 8.47L36.18 8.47L36.18 8.47Q36.13 8.20 36.12 7.95L36.12 7.95L36.12 7.95Q36.11 7.69 36.12 7.44L36.12 7.44L36.12 7.44Q36.13 7.38 36.13 7.32L36.13 7.32L36.13 7.32Q36.14 7.27 36.15 7.21L36.15 7.21L36.15 7.21Q36.16 7.12 36.15 7.05L36.15 7.05L36.15 7.05Q36.15 6.97 36.14 6.90L36.14 6.90L36.14 6.90Q36.10 6.36 36.12 5.63L36.12 5.63L36.12 5.63Q36.13 5.48 36.30 5.42L36.30 5.42L36.30 5.42Q36.44 5.38 36.53 5.45L36.53 5.45L36.53 5.45Q36.59 5.50 36.59 5.57L36.59 5.57L36.59 5.57Q36.59 5.67 36.59 5.82L36.59 5.82L36.59 5.82Q36.59 5.97 36.58 6.17L36.58 6.17L36.58 6.17Q36.58 6.34 36.57 6.51L36.57 6.51L36.57 6.51Q36.55 6.68 36.55 6.84L36.55 6.84L36.55 6.84Q36.55 7.05 36.54 7.24L36.54 7.24L36.54 7.24Q36.52 7.44 36.52 7.64L36.52 7.64L36.52 7.64Q36.52 8.02 36.65 8.50L36.65 8.50L36.65 8.50Q36.66 8.56 36.68 8.61L36.68 8.61L36.68 8.61Q36.70 8.66 36.71 8.72L36.71 8.72L36.71 8.72Q36.81 9.04 37.02 9.16L37.02 9.16L37.02 9.16Q37.18 9.26 37.61 9.28L37.61 9.28L37.61 9.28Q37.67 9.29 37.72 9.30L37.72 9.30L37.72 9.30Q37.78 9.31 37.84 9.31L37.84 9.31L37.84 9.31L37.85 9.31L37.85 9.31Q38.18 9.31 38.42 9.19L38.42 9.19L38.42 9.19Q38.67 9.08 38.84 8.79L38.84 8.79L38.84 8.79Q38.98 8.56 38.98 8.08L38.98 8.08L38.98 8.08Q38.98 7.99 38.98 7.93L38.98 7.93L38.98 7.93Q38.98 7.86 38.99 7.82L38.99 7.82L38.99 7.82Q39.05 7.21 38.97 6.55L38.97 6.55L38.97 6.55Q38.96 6.46 38.99 6.22L38.99 6.22L38.99 6.22Q39.01 6.13 39.01 6.05L39.01 6.05L39.01 6.05Q39.02 5.97 39.02 5.92L39.02 5.92L39.02 5.92Q39.02 5.63 39.06 5.52L39.06 5.52L39.06 5.52Q39.12 5.42 39.25 5.42ZM41.31 9.29L41.31 9.29L41.31 9.29Q41.30 8.87 41.31 8.46L41.31 8.46L41.31 8.46Q41.31 8.04 41.31 7.62L41.31 7.62L41.31 7.38L41.31 7.38Q41.31 7.20 41.30 7.01L41.30 7.01L41.30 7.01Q41.29 6.82 41.30 6.64L41.30 6.64L41.30 6.64Q41.31 6.43 41.31 6.23L41.31 6.23L41.31 6.23Q41.31 6.03 41.32 5.82L41.32 5.82L41.32 5.82Q41.32 5.58 41.43 5.48L41.43 5.48L41.43 5.48Q41.52 5.41 41.75 5.41L41.75 5.41L41.75 5.41Q41.86 5.41 41.95 5.40L41.95 5.40L41.95 5.40Q42.03 5.40 42.10 5.40L42.10 5.40L42.10 5.40Q42.36 5.39 42.63 5.40L42.63 5.40L42.63 5.40Q42.90 5.41 43.16 5.41L43.16 5.41L43.16 5.41Q43.31 5.40 43.45 5.40L43.45 5.40L43.45 5.40Q43.59 5.39 43.73 5.41L43.73 5.41L44.08 5.43L44.08 5.43Q44.14 5.43 44.18 5.43L44.18 5.43L44.18 5.43Q44.23 5.43 44.26 5.45L44.26 5.45L44.26 5.45Q44.41 5.52 44.40 5.66L44.40 5.66L44.40 5.66Q44.39 5.72 44.35 5.76L44.35 5.76L44.35 5.76Q44.31 5.80 44.26 5.82L44.26 5.82L44.26 5.82Q44.21 5.84 44.15 5.84L44.15 5.84L44.15 5.84Q44.10 5.85 44.06 5.85L44.06 5.85L44.06 5.85Q43.64 5.85 43.23 5.83L43.23 5.83L43.23 5.83Q43.19 5.82 43.13 5.82L43.13 5.82L43.13 5.82Q43.07 5.82 42.99 5.82L42.99 5.82L42.59 5.82L42.59 5.82Q42.44 5.82 42.31 5.83L42.31 5.83L42.31 5.83Q42.19 5.83 42.11 5.83L42.11 5.83L42.11 5.83Q41.99 5.84 41.92 5.86L41.92 5.86L41.92 5.86Q41.84 5.89 41.81 5.94L41.81 5.94L41.81 5.94Q41.75 6.02 41.77 6.15L41.77 6.15L41.77 6.15Q41.77 6.20 41.77 6.24L41.77 6.24L41.77 6.24Q41.77 6.28 41.76 6.32L41.76 6.32L41.76 6.32Q41.75 6.40 41.74 6.49L41.74 6.49L41.74 6.49Q41.73 6.58 41.74 6.69L41.74 6.69L41.74 6.69Q41.74 6.88 41.89 7.01L41.89 7.01L41.89 7.01Q42.01 7.12 42.33 7.10L42.33 7.10L42.33 7.10Q42.48 7.10 42.62 7.08L42.62 7.08L42.62 7.08Q42.76 7.06 42.90 7.07L42.90 7.07L42.90 7.07Q42.96 7.07 43.06 7.07L43.06 7.07L43.06 7.07Q43.16 7.08 43.30 7.07L43.30 7.07L43.30 7.07Q43.57 7.06 43.67 7.16L43.67 7.16L43.67 7.16Q43.70 7.21 43.70 7.32L43.70 7.32L43.70 7.32Q43.67 7.44 43.50 7.47L43.50 7.47L43.50 7.47Q43.35 7.50 43.25 7.50L43.25 7.50L43.25 7.50Q43.13 7.51 43.01 7.50L43.01 7.50L43.01 7.50Q42.89 7.50 42.77 7.51L42.77 7.51L42.77 7.51Q42.62 7.52 42.46 7.51L42.46 7.51L42.46 7.51Q42.30 7.51 42.13 7.49L42.13 7.49L42.13 7.49Q42.11 7.49 42.08 7.49L42.08 7.49L42.08 7.49Q42.05 7.49 42.03 7.49L42.03 7.49L42.03 7.49L42.03 7.49Q41.95 7.47 41.88 7.52L41.88 7.52L41.88 7.52Q41.75 7.59 41.74 7.78L41.74 7.78L41.74 7.78Q41.73 7.96 41.74 8.09L41.74 8.09L41.74 8.09Q41.75 8.16 41.75 8.22L41.75 8.22L41.75 8.22Q41.75 8.29 41.75 8.33L41.75 8.33L41.75 8.33Q41.73 8.44 41.72 8.53L41.72 8.53L41.72 8.53Q41.71 8.63 41.70 8.74L41.70 8.74L41.70 8.74Q41.68 9.00 41.77 9.13L41.77 9.13L41.77 9.13Q41.88 9.28 42.17 9.28L42.17 9.28L42.17 9.28Q42.40 9.28 42.63 9.27L42.63 9.27L42.63 9.27Q42.86 9.26 43.09 9.25L43.09 9.25L43.09 9.25Q43.31 9.24 43.53 9.26L43.53 9.26L43.53 9.26Q43.75 9.28 43.97 9.28L43.97 9.28L43.97 9.28Q44.05 9.28 44.19 9.28L44.19 9.28L44.19 9.28Q44.32 9.28 44.40 9.32L44.40 9.32L44.40 9.32Q44.47 9.36 44.47 9.44L44.47 9.44L44.47 9.44Q44.55 9.69 44.26 9.70L44.26 9.70L44.26 9.70Q43.81 9.72 43.38 9.71L43.38 9.71L43.38 9.71Q42.94 9.71 42.51 9.71L42.51 9.71L42.51 9.71Q42.48 9.71 42.45 9.72L42.45 9.72L42.45 9.72Q42.43 9.72 42.41 9.72L42.41 9.72L42.41 9.72Q42.25 9.72 42.14 9.72L42.14 9.72L42.14 9.72Q42.03 9.72 41.95 9.71L41.95 9.71L41.95 9.71Q41.90 9.71 41.84 9.71L41.84 9.71L41.84 9.71Q41.77 9.71 41.69 9.70L41.69 9.70L41.69 9.70Q41.62 9.69 41.58 9.69L41.58 9.69L41.58 9.69Q41.54 9.68 41.51 9.67L41.51 9.67L41.51 9.67Q41.31 9.61 41.31 9.29ZM49.58 5.56L49.58 5.56L49.58 5.56Q49.65 5.54 49.81 5.58L49.81 5.58L49.81 5.58Q49.96 5.62 50.00 5.68L50.00 5.68L50.00 5.68Q50.00 5.69 50.00 5.69L50.00 5.69L50.00 5.69Q50.03 5.89 50.03 6.28L50.03 6.28L50.03 6.79L50.03 6.79Q50.03 7 50.04 7.19L50.04 7.19L50.04 7.19Q50.05 7.38 50.03 7.58L50.03 7.58L50.03 7.58Q50.02 7.78 50.00 7.97L50.00 7.97L50.00 7.97Q49.99 8.16 50.00 8.35L50.00 8.35L50.00 8.35Q50.01 8.52 50.03 8.68L50.03 8.68L50.03 8.68Q50.04 8.84 50.03 9.00L50.03 9.00L50.00 9.32L50.00 9.32Q49.99 9.55 49.96 9.60L49.96 9.60L49.96 9.60Q49.88 9.71 49.79 9.71L49.79 9.71L49.79 9.71Q49.56 9.69 49.55 9.39L49.55 9.39L49.55 9.39Q49.53 8.95 49.56 8.51L49.56 8.51L49.56 8.51Q49.58 8.07 49.55 7.62L49.55 7.62L49.53 7.32L49.53 7.32Q49.51 7.10 49.34 7.08L49.34 7.08L49.34 7.08Q49.27 7.08 49.23 7.10L49.23 7.10L49.23 7.10Q49.18 7.13 49.14 7.18L49.14 7.18L49.14 7.18Q49.11 7.23 49.09 7.28L49.09 7.28L49.09 7.28Q49.07 7.34 49.05 7.39L49.05 7.39L49.05 7.39Q48.99 7.53 48.95 7.64L48.95 7.64L48.95 7.64Q48.90 7.75 48.87 7.83L48.87 7.83L48.87 7.83Q48.81 7.97 48.72 8.12L48.72 8.12L48.72 8.12Q48.63 8.26 48.56 8.40L48.56 8.40L48.56 8.40Q48.48 8.55 48.41 8.69L48.41 8.69L48.41 8.69Q48.34 8.82 48.27 8.96L48.27 8.96L48.27 8.96Q48.22 9.04 48.02 9.03L48.02 9.03L48.02 9.03Q47.87 9.03 47.80 8.95L47.80 8.95L47.80 8.95Q47.75 8.89 47.69 8.77L47.69 8.77L47.69 8.77Q47.63 8.66 47.56 8.49L47.56 8.49L47.56 8.49Q47.50 8.37 47.46 8.29L47.46 8.29L47.46 8.29Q47.41 8.20 47.38 8.15L47.38 8.15L47.38 8.15Q47.35 8.10 47.30 8.00L47.30 8.00L47.30 8.00Q47.25 7.90 47.17 7.74L47.17 7.74L46.99 7.35L46.99 7.35Q46.96 7.28 46.93 7.25L46.93 7.25L46.93 7.25Q46.91 7.21 46.90 7.20L46.90 7.20L46.90 7.20Q46.80 7.07 46.67 7.10L46.67 7.10L46.67 7.10Q46.50 7.12 46.50 7.40L46.50 7.40L46.50 7.40Q46.50 7.84 46.50 8.23L46.50 8.23L46.50 8.23Q46.51 8.61 46.53 8.96L46.53 8.96L46.53 8.96Q46.53 9.01 46.53 9.10L46.53 9.10L46.53 9.10Q46.53 9.18 46.52 9.30L46.52 9.30L46.52 9.30Q46.50 9.55 46.46 9.61L46.46 9.61L46.46 9.61Q46.40 9.71 46.26 9.70L46.26 9.70L46.26 9.70Q46.07 9.69 46.07 9.43L46.07 9.43L46.07 9.43Q46.07 9.13 46.06 8.82L46.06 8.82L46.06 8.82Q46.05 8.51 46.05 8.18L46.05 8.18L46.05 8.18Q46.04 8.03 46.04 7.90L46.04 7.90L46.04 7.90Q46.05 7.77 46.06 7.68L46.06 7.68L46.06 7.68Q46.08 7.51 46.08 7.38L46.08 7.38L46.08 7.38Q46.09 7.25 46.08 7.16L46.08 7.16L46.08 7.16Q46.07 7.05 46.06 6.93L46.06 6.93L46.06 6.93Q46.05 6.80 46.03 6.66L46.03 6.66L46.03 6.66Q46.01 6.46 46.03 6.18L46.03 6.18L46.03 6.18Q46.06 5.89 46.12 5.70L46.12 5.70L46.12 5.70Q46.14 5.62 46.16 5.58L46.16 5.58L46.16 5.58Q46.35 5.38 46.53 5.63L46.53 5.63L46.53 5.63Q46.61 5.73 46.68 5.84L46.68 5.84L46.68 5.84Q46.74 5.95 46.82 6.06L46.82 6.06L46.82 6.06Q46.93 6.22 47.01 6.41L47.01 6.41L47.01 6.41Q47.09 6.60 47.17 6.77L47.17 6.77L47.17 6.77Q47.26 6.95 47.32 7.09L47.32 7.09L47.32 7.09Q47.39 7.22 47.44 7.30L47.44 7.30L47.47 7.34L47.47 7.34Q47.54 7.46 47.60 7.58L47.60 7.58L47.60 7.58Q47.65 7.70 47.71 7.81L47.71 7.81L47.71 7.81Q47.86 8.13 48.02 8.14L48.02 8.14L48.02 8.14Q48.17 8.14 48.24 8.00L48.24 8.00L48.24 8.00Q48.28 7.93 48.31 7.86L48.31 7.86L48.31 7.86Q48.34 7.79 48.36 7.73L48.36 7.73L48.36 7.73Q48.41 7.62 48.47 7.49L48.47 7.49L48.47 7.49Q48.54 7.36 48.61 7.23L48.61 7.23L48.61 7.23Q48.75 6.99 48.90 6.75L48.90 6.75L48.90 6.75Q49.05 6.51 49.18 6.24L49.18 6.24L49.18 6.24Q49.21 6.16 49.27 6.06L49.27 6.06L49.27 6.06Q49.32 5.97 49.38 5.87L49.38 5.87L49.51 5.67L49.51 5.67Q49.52 5.65 49.54 5.63L49.54 5.63L49.54 5.63Q49.55 5.60 49.58 5.56ZM51.92 9.29L51.92 9.29L51.92 9.29Q51.91 8.87 51.92 8.46L51.92 8.46L51.92 8.46Q51.92 8.04 51.92 7.62L51.92 7.62L51.92 7.38L51.92 7.38Q51.92 7.20 51.91 7.01L51.91 7.01L51.91 7.01Q51.90 6.82 51.91 6.64L51.91 6.64L51.91 6.64Q51.92 6.43 51.92 6.23L51.92 6.23L51.92 6.23Q51.92 6.03 51.93 5.82L51.93 5.82L51.93 5.82Q51.93 5.58 52.04 5.48L52.04 5.48L52.04 5.48Q52.13 5.41 52.36 5.41L52.36 5.41L52.36 5.41Q52.47 5.41 52.56 5.40L52.56 5.40L52.56 5.40Q52.64 5.40 52.71 5.40L52.71 5.40L52.71 5.40Q52.97 5.39 53.24 5.40L53.24 5.40L53.24 5.40Q53.50 5.41 53.77 5.41L53.77 5.41L53.77 5.41Q53.92 5.40 54.06 5.40L54.06 5.40L54.06 5.40Q54.20 5.39 54.34 5.41L54.34 5.41L54.69 5.43L54.69 5.43Q54.75 5.43 54.79 5.43L54.79 5.43L54.79 5.43Q54.84 5.43 54.87 5.45L54.87 5.45L54.87 5.45Q55.02 5.52 55.01 5.66L55.01 5.66L55.01 5.66Q55.00 5.72 54.96 5.76L54.96 5.76L54.96 5.76Q54.92 5.80 54.87 5.82L54.87 5.82L54.87 5.82Q54.82 5.84 54.76 5.84L54.76 5.84L54.76 5.84Q54.71 5.85 54.67 5.85L54.67 5.85L54.67 5.85Q54.25 5.85 53.84 5.83L53.84 5.83L53.84 5.83Q53.80 5.82 53.74 5.82L53.74 5.82L53.74 5.82Q53.68 5.82 53.60 5.82L53.60 5.82L53.20 5.82L53.20 5.82Q53.05 5.82 52.92 5.83L52.92 5.83L52.92 5.83Q52.80 5.83 52.72 5.83L52.72 5.83L52.72 5.83Q52.60 5.84 52.53 5.86L52.53 5.86L52.53 5.86Q52.45 5.89 52.42 5.94L52.42 5.94L52.42 5.94Q52.36 6.02 52.38 6.15L52.38 6.15L52.38 6.15Q52.38 6.20 52.38 6.24L52.38 6.24L52.38 6.24Q52.38 6.28 52.37 6.32L52.37 6.32L52.37 6.32Q52.36 6.40 52.35 6.49L52.35 6.49L52.35 6.49Q52.34 6.58 52.35 6.69L52.35 6.69L52.35 6.69Q52.35 6.88 52.50 7.01L52.50 7.01L52.50 7.01Q52.62 7.12 52.94 7.10L52.94 7.10L52.94 7.10Q53.09 7.10 53.23 7.08L53.23 7.08L53.23 7.08Q53.37 7.06 53.51 7.07L53.51 7.07L53.51 7.07Q53.57 7.07 53.67 7.07L53.67 7.07L53.67 7.07Q53.77 7.08 53.91 7.07L53.91 7.07L53.91 7.07Q54.18 7.06 54.28 7.16L54.28 7.16L54.28 7.16Q54.31 7.21 54.30 7.32L54.30 7.32L54.30 7.32Q54.28 7.44 54.11 7.47L54.11 7.47L54.11 7.47Q53.96 7.50 53.86 7.50L53.86 7.50L53.86 7.50Q53.74 7.51 53.62 7.50L53.62 7.50L53.62 7.50Q53.50 7.50 53.38 7.51L53.38 7.51L53.38 7.51Q53.22 7.52 53.07 7.51L53.07 7.51L53.07 7.51Q52.91 7.51 52.74 7.49L52.74 7.49L52.74 7.49Q52.72 7.49 52.69 7.49L52.69 7.49L52.69 7.49Q52.66 7.49 52.64 7.49L52.64 7.49L52.64 7.49L52.64 7.49Q52.56 7.47 52.49 7.52L52.49 7.52L52.49 7.52Q52.36 7.59 52.35 7.78L52.35 7.78L52.35 7.78Q52.34 7.96 52.35 8.09L52.35 8.09L52.35 8.09Q52.36 8.16 52.36 8.22L52.36 8.22L52.36 8.22Q52.36 8.29 52.36 8.33L52.36 8.33L52.36 8.33Q52.34 8.44 52.33 8.53L52.33 8.53L52.33 8.53Q52.32 8.63 52.31 8.74L52.31 8.74L52.31 8.74Q52.29 9.00 52.38 9.13L52.38 9.13L52.38 9.13Q52.49 9.28 52.78 9.28L52.78 9.28L52.78 9.28Q53.01 9.28 53.24 9.27L53.24 9.27L53.24 9.27Q53.47 9.26 53.70 9.25L53.70 9.25L53.70 9.25Q53.92 9.24 54.14 9.26L54.14 9.26L54.14 9.26Q54.36 9.28 54.58 9.28L54.58 9.28L54.58 9.28Q54.66 9.28 54.80 9.28L54.80 9.28L54.80 9.28Q54.93 9.28 55.01 9.32L55.01 9.32L55.01 9.32Q55.08 9.36 55.08 9.44L55.08 9.44L55.08 9.44Q55.16 9.69 54.87 9.70L54.87 9.70L54.87 9.70Q54.42 9.72 53.99 9.71L53.99 9.71L53.99 9.71Q53.55 9.71 53.12 9.71L53.12 9.71L53.12 9.71Q53.09 9.71 53.06 9.72L53.06 9.72L53.06 9.72Q53.04 9.72 53.02 9.72L53.02 9.72L53.02 9.72Q52.86 9.72 52.75 9.72L52.75 9.72L52.75 9.72Q52.64 9.72 52.56 9.71L52.56 9.71L52.56 9.71Q52.51 9.71 52.45 9.71L52.45 9.71L52.45 9.71Q52.38 9.71 52.30 9.70L52.30 9.70L52.30 9.70Q52.23 9.69 52.19 9.69L52.19 9.69L52.19 9.69Q52.14 9.68 52.12 9.67L52.12 9.67L52.12 9.67Q51.92 9.61 51.92 9.29ZM59.33 5.67L59.33 5.67L59.33 5.67Q59.47 5.82 59.56 5.99L59.56 5.99L59.56 5.99Q59.64 6.16 59.73 6.34L59.73 6.34L59.73 6.34Q59.83 6.54 59.79 6.74L59.79 6.74L59.79 6.74Q59.75 6.94 59.57 7.13L59.57 7.13L59.57 7.13Q59.42 7.28 59.09 7.37L59.09 7.37L59.09 7.37Q58.97 7.40 58.83 7.44L58.83 7.44L58.83 7.44Q58.69 7.48 58.63 7.60L58.63 7.60L58.63 7.60Q58.59 7.72 58.65 7.84L58.65 7.84L58.65 7.84Q58.72 7.97 58.76 8.05L58.76 8.05L58.76 8.05Q58.80 8.13 58.83 8.18L58.83 8.18L58.83 8.18Q58.86 8.24 58.92 8.33L58.92 8.33L58.92 8.33Q58.97 8.42 59.05 8.52L59.05 8.52L59.05 8.52Q59.21 8.74 59.38 8.93L59.38 8.93L59.38 8.93Q59.55 9.13 59.73 9.30L59.73 9.30L59.77 9.34L59.77 9.34Q59.92 9.49 59.77 9.63L59.77 9.63L59.77 9.63Q59.62 9.79 59.47 9.64L59.47 9.64L59.47 9.64Q59.36 9.52 59.27 9.43L59.27 9.43L59.27 9.43Q59.18 9.34 59.10 9.26L59.10 9.26L59.10 9.26Q58.94 9.05 58.80 8.83L58.80 8.83L58.80 8.83Q58.69 8.67 58.59 8.53L58.59 8.53L58.59 8.53Q58.48 8.39 58.39 8.23L58.39 8.23L58.39 8.23Q58.11 7.74 57.71 7.58L57.71 7.58L57.71 7.58Q57.28 7.42 57.08 7.70L57.08 7.70L57.08 7.70Q57.02 7.80 57.02 7.92L57.02 7.92L57.02 9.40L57.02 9.49L57.02 9.49Q57.02 9.69 56.81 9.70L56.81 9.70L56.81 9.70Q56.59 9.69 56.59 9.44L56.59 9.44L56.59 9.44Q56.59 9.28 56.60 9.12L56.60 9.12L56.60 9.12Q56.62 8.95 56.62 8.76L56.62 8.76L56.62 8.76Q56.63 8.63 56.62 8.49L56.62 8.49L56.62 8.49Q56.61 8.35 56.61 8.22L56.61 8.22L56.61 8.22Q56.61 8.09 56.62 7.96L56.62 7.96L56.62 7.96Q56.62 7.83 56.62 7.70L56.62 7.70L56.62 7.70Q56.63 7.40 56.60 7.07L56.60 7.07L56.60 7.07Q56.60 6.84 56.61 6.61L56.61 6.61L56.61 6.61Q56.62 6.38 56.62 6.14L56.62 6.14L56.62 6.14Q56.61 6.02 56.61 5.86L56.61 5.86L56.61 5.86Q56.61 5.71 56.65 5.58L56.65 5.58L56.65 5.58Q56.77 5.42 57.23 5.42L57.23 5.42L57.44 5.42L57.44 5.42Q57.69 5.42 57.94 5.44L57.94 5.44L57.94 5.44Q58.19 5.46 58.43 5.45L58.43 5.45L58.43 5.45Q59.00 5.42 59.33 5.67ZM57.41 7.15L57.41 7.15L57.41 7.15Q57.67 7.16 57.87 7.16L57.87 7.16L57.87 7.16Q58.06 7.16 58.20 7.14L58.20 7.14L58.20 7.14Q58.33 7.13 58.49 7.11L58.49 7.11L58.49 7.11Q58.65 7.09 58.84 7.05L58.84 7.05L58.84 7.05Q59.23 6.97 59.35 6.69L59.35 6.69L59.35 6.69Q59.40 6.59 59.38 6.47L59.38 6.47L59.38 6.47Q59.37 6.34 59.31 6.24L59.31 6.24L59.31 6.24Q59.24 6.14 59.14 6.07L59.14 6.07L59.14 6.07Q59.04 6.00 58.93 5.94L58.93 5.94L58.93 5.94Q58.81 5.89 58.70 5.87L58.70 5.87L58.70 5.87Q58.41 5.82 58.13 5.83L58.13 5.83L58.13 5.83Q57.85 5.84 57.56 5.82L57.56 5.82L57.56 5.82Q57.50 5.82 57.45 5.82L57.45 5.82L57.45 5.82Q57.40 5.82 57.35 5.82L57.35 5.82L57.35 5.82Q57.20 5.81 57.13 5.89L57.13 5.89L57.13 5.89Q57.07 5.96 57.08 6.08L57.08 6.08L57.08 6.08Q57.09 6.12 57.09 6.23L57.09 6.23L57.09 6.23Q57.08 6.33 57.06 6.43L57.06 6.43L57.06 6.43Q57.05 6.52 57.04 6.62L57.04 6.62L57.04 6.62Q57.00 6.88 57.10 7.01L57.10 7.01L57.10 7.01Q57.19 7.14 57.41 7.15Z"></path></g><!----><!----></svg>