<svg data-v-423bf9ae="" xmlns="http://www.w3.org/2000/svg" viewBox="0 0 805.5443206089703 60" class="font"><!----><!----><!----><g data-v-423bf9ae="" id="d3375439-f1ab-439f-ac01-6e59a8360201" fill="white" transform="matrix(13.577733526672345,0,0,13.577733526672345,0.045261009984017164,-72.62729680023787)"><path d="M2.67 9.34L2.67 9.34L2.67 9.34Q2.75 9.40 2.75 9.50L2.75 9.50L2.75 9.50Q2.75 9.72 2.48 9.72L2.48 9.72L2.48 9.72Q1.99 9.72 1.50 9.71L1.50 9.71L1.50 9.71Q1.00 9.69 0.51 9.73L0.51 9.73L0.51 9.73Q0.12 9.75 0.04 9.52L0.04 9.52L0.04 9.52Q0 9.41 0 9.19L0 9.19L0 9.19Q0.01 9.08 0.01 8.99L0.01 8.99L0.01 8.99Q0.01 8.91 0.01 8.85L0.01 8.85L0.01 8.85Q0.02 8.70 0.03 8.53L0.03 8.53L0.03 8.53Q0.04 8.37 0.03 8.22L0.03 8.22L0.03 8.22Q0.02 7.89 0.01 7.58L0.01 7.58L0.01 7.58Q-0.01 7.27 0 6.94L0 6.94L0 6.94Q0.01 6.78 0.01 6.63L0.01 6.63L0.01 6.63Q0.02 6.47 0.02 6.31L0.02 6.31L0.02 6.31Q0.03 6.11 0.02 5.94L0.02 5.94L0.02 5.94Q0.02 5.78 0.01 5.64L0.01 5.64L0.01 5.64Q-0.01 5.46 0.18 5.42L0.18 5.42L0.18 5.42Q0.44 5.37 0.46 5.74L0.46 5.74L0.46 5.74Q0.48 5.89 0.49 6.04L0.49 6.04L0.49 6.04Q0.49 6.19 0.51 6.32L0.51 6.32L0.51 6.50L0.48 6.76L0.48 6.76Q0.46 6.87 0.45 6.98L0.45 6.98L0.45 6.98Q0.44 7.09 0.44 7.19L0.44 7.19L0.44 7.19Q0.42 7.45 0.42 7.65L0.42 7.65L0.42 7.65Q0.42 7.84 0.43 7.97L0.43 7.97L0.43 7.97Q0.44 8.13 0.45 8.31L0.45 8.31L0.45 8.31Q0.45 8.49 0.44 8.69L0.44 8.69L0.44 8.69Q0.42 8.99 0.52 9.08L0.52 9.08L0.52 9.08Q0.59 9.17 0.84 9.19L0.84 9.19L0.84 9.19Q0.96 9.21 1.08 9.21L1.08 9.21L1.08 9.21Q1.20 9.22 1.33 9.24L1.33 9.24L1.33 9.24Q1.51 9.26 1.70 9.24L1.70 9.24L1.70 9.24Q1.89 9.22 2.08 9.25L2.08 9.25L2.08 9.25Q2.21 9.26 2.38 9.27L2.38 9.27L2.38 9.27Q2.56 9.28 2.67 9.34ZM5.63 9.69L5.63 9.69L5.63 9.69Q5.49 9.65 5.35 9.58L5.35 9.58L5.35 9.58Q5.21 9.52 5.08 9.43L5.08 9.43L5.08 9.43Q4.94 9.34 4.83 9.24L4.83 9.24L4.83 9.24Q4.71 9.13 4.63 9.01L4.63 9.01L4.63 9.01Q4.52 8.84 4.47 8.66L4.47 8.66L4.47 8.66Q4.42 8.48 4.33 8.29L4.33 8.29L4.33 8.29Q4.27 8.13 4.26 7.96L4.26 7.96L4.26 7.96Q4.25 7.88 4.24 7.79L4.24 7.79L4.24 7.79Q4.23 7.70 4.23 7.62L4.23 7.62L4.23 7.62Q4.22 7.54 4.22 7.48L4.22 7.48L4.22 7.48Q4.22 7.42 4.22 7.38L4.22 7.38L4.22 7.38Q4.22 7.25 4.23 7.11L4.23 7.11L4.23 7.11Q4.25 6.97 4.29 6.82L4.29 6.82L4.29 6.82Q4.29 6.77 4.33 6.69L4.33 6.69L4.33 6.69Q4.40 6.49 4.50 6.31L4.50 6.31L4.50 6.31Q4.61 6.13 4.74 5.97L4.74 5.97L4.74 5.97Q5.01 5.67 5.49 5.43L5.49 5.43L5.49 5.43Q5.71 5.34 5.95 5.35L5.95 5.35L5.95 5.35Q6.10 5.36 6.25 5.39L6.25 5.39L6.25 5.39Q6.37 5.41 6.46 5.42L6.46 5.42L6.46 5.42Q6.56 5.43 6.62 5.44L6.62 5.44L6.62 5.44Q7.15 5.50 7.55 5.91L7.55 5.91L7.55 5.91Q7.64 6.00 7.72 6.10L7.72 6.10L7.72 6.10Q7.80 6.21 7.88 6.33L7.88 6.33L7.91 6.38L7.91 6.38Q7.92 6.41 7.92 6.42L7.92 6.42L7.92 6.42Q7.93 6.43 7.94 6.45L7.94 6.45L7.94 6.45Q8.05 6.72 8.15 7.13L8.15 7.13L8.15 7.13Q8.24 7.51 8.18 7.83L8.18 7.83L8.18 7.83Q8.13 8.02 8.07 8.19L8.07 8.19L8.07 8.19Q8.01 8.36 7.96 8.53L7.96 8.53L7.96 8.53Q7.70 9.45 6.76 9.69L6.76 9.69L6.71 9.70L6.71 9.70Q6.65 9.71 6.57 9.73L6.57 9.73L6.57 9.73Q6.49 9.74 6.38 9.75L6.38 9.75L6.38 9.75Q6.20 9.78 6.01 9.76L6.01 9.76L6.01 9.76Q5.82 9.75 5.63 9.69ZM6.32 5.78L6.32 5.78L6.32 5.78Q5.95 5.78 5.65 5.87L5.65 5.87L5.65 5.87Q5.35 5.95 5.11 6.19L5.11 6.19L5.11 6.19Q4.79 6.52 4.70 6.92L4.70 6.92L4.70 6.92Q4.61 7.32 4.70 7.81L4.70 7.81L4.76 8.15L4.76 8.15Q4.78 8.24 4.79 8.30L4.79 8.30L4.79 8.30Q4.81 8.36 4.81 8.37L4.81 8.37L4.81 8.37Q4.85 8.52 4.98 8.66L4.98 8.66L4.98 8.66Q5.10 8.80 5.20 8.90L5.20 8.90L5.20 8.90Q5.26 8.96 5.31 9.02L5.31 9.02L5.31 9.02Q5.37 9.08 5.43 9.13L5.43 9.13L5.43 9.13Q5.53 9.21 5.77 9.29L5.77 9.29L5.78 9.29L5.78 9.29Q5.91 9.32 6.07 9.31L6.07 9.31L6.07 9.31Q6.23 9.30 6.43 9.26L6.43 9.26L6.43 9.26Q6.52 9.23 6.62 9.22L6.62 9.22L6.62 9.22Q6.72 9.21 6.82 9.18L6.82 9.18L6.82 9.18Q7.08 9.12 7.25 8.91L7.25 8.91L7.25 8.91L7.25 8.90L7.25 8.90Q7.36 8.77 7.44 8.57L7.44 8.57L7.44 8.57Q7.51 8.37 7.54 8.32L7.54 8.32L7.54 8.32Q7.88 7.65 7.64 6.87L7.64 6.87L7.64 6.86L7.64 6.86Q7.61 6.79 7.58 6.72L7.58 6.72L7.58 6.72Q7.55 6.65 7.51 6.58L7.51 6.58L7.51 6.58Q7.24 6.18 6.87 6.00L6.87 6.00L6.87 6.00Q6.86 6.00 6.81 5.97L6.81 5.97L6.81 5.97Q6.76 5.94 6.67 5.89L6.67 5.89L6.67 5.89Q6.55 5.81 6.32 5.78L6.32 5.78ZM13.15 5.42L13.15 5.42L13.15 5.42Q13.36 5.41 13.36 5.63L13.36 5.63L13.36 5.63Q13.36 5.91 13.35 6.19L13.35 6.19L13.35 6.19Q13.35 6.46 13.32 6.75L13.32 6.75L13.32 6.75Q13.28 7.01 13.31 7.27L13.31 7.27L13.31 7.27Q13.34 7.53 13.34 7.79L13.34 7.79L13.34 7.84L13.32 8.31L13.32 8.31Q13.30 8.46 13.28 8.57L13.28 8.57L13.28 8.57Q13.26 8.69 13.25 8.76L13.25 8.76L13.23 8.79L13.22 8.84L13.22 8.85L13.22 8.85Q13.20 8.93 13.15 9.01L13.15 9.01L13.15 9.01Q13.09 9.10 13.03 9.18L13.03 9.18L13.03 9.18Q12.96 9.26 12.89 9.32L12.89 9.32L12.89 9.32Q12.81 9.39 12.75 9.45L12.75 9.45L12.75 9.45Q12.63 9.55 12.50 9.61L12.50 9.61L12.50 9.61Q12.36 9.67 12.21 9.70L12.21 9.70L12.21 9.70Q12.06 9.73 11.90 9.74L11.90 9.74L11.90 9.74Q11.75 9.75 11.61 9.75L11.61 9.75L11.61 9.75Q11.35 9.75 11.12 9.69L11.12 9.69L11.12 9.69Q10.88 9.63 10.65 9.50L10.65 9.50L10.65 9.50Q10.64 9.48 10.64 9.47L10.64 9.47L10.64 9.47Q10.62 9.47 10.60 9.45L10.60 9.45L10.60 9.45Q10.59 9.44 10.58 9.43L10.58 9.43L10.58 9.43Q10.55 9.41 10.54 9.40L10.54 9.40L10.54 9.40Q10.53 9.39 10.51 9.37L10.51 9.37L10.51 9.37Q10.17 9.01 10.08 8.47L10.08 8.47L10.08 8.47Q10.04 8.20 10.02 7.95L10.02 7.95L10.02 7.95Q10.01 7.69 10.02 7.44L10.02 7.44L10.02 7.44Q10.03 7.38 10.04 7.32L10.04 7.32L10.04 7.32Q10.04 7.27 10.05 7.21L10.05 7.21L10.05 7.21Q10.06 7.12 10.05 7.05L10.05 7.05L10.05 7.05Q10.05 6.97 10.04 6.90L10.04 6.90L10.04 6.90Q10.00 6.36 10.02 5.63L10.02 5.63L10.02 5.63Q10.03 5.48 10.20 5.42L10.20 5.42L10.20 5.42Q10.34 5.38 10.43 5.45L10.43 5.45L10.43 5.45Q10.49 5.50 10.49 5.57L10.49 5.57L10.49 5.57Q10.49 5.67 10.49 5.82L10.49 5.82L10.49 5.82Q10.49 5.97 10.48 6.17L10.48 6.17L10.48 6.17Q10.48 6.34 10.47 6.51L10.47 6.51L10.47 6.51Q10.45 6.68 10.45 6.84L10.45 6.84L10.45 6.84Q10.45 7.05 10.44 7.24L10.44 7.24L10.44 7.24Q10.42 7.44 10.42 7.64L10.42 7.64L10.42 7.64Q10.42 8.02 10.55 8.50L10.55 8.50L10.55 8.50Q10.56 8.56 10.58 8.61L10.58 8.61L10.58 8.61Q10.60 8.66 10.61 8.72L10.61 8.72L10.61 8.72Q10.71 9.04 10.92 9.16L10.92 9.16L10.92 9.16Q11.08 9.26 11.51 9.28L11.51 9.28L11.51 9.28Q11.57 9.29 11.62 9.30L11.62 9.30L11.62 9.30Q11.68 9.31 11.74 9.31L11.74 9.31L11.74 9.31L11.75 9.31L11.75 9.31Q12.08 9.31 12.33 9.19L12.33 9.19L12.33 9.19Q12.57 9.08 12.74 8.79L12.74 8.79L12.74 8.79Q12.88 8.56 12.88 8.08L12.88 8.08L12.88 8.08Q12.88 7.99 12.88 7.93L12.88 7.93L12.88 7.93Q12.88 7.86 12.89 7.82L12.89 7.82L12.89 7.82Q12.95 7.21 12.87 6.55L12.87 6.55L12.87 6.55Q12.86 6.46 12.89 6.22L12.89 6.22L12.89 6.22Q12.91 6.13 12.91 6.05L12.91 6.05L12.91 6.05Q12.92 5.97 12.92 5.92L12.92 5.92L12.92 5.92Q12.92 5.63 12.96 5.52L12.96 5.52L12.96 5.52Q13.02 5.42 13.15 5.42ZM15.44 9.70L15.44 9.70L15.44 9.70Q15.22 9.67 15.22 9.44L15.22 9.44L15.22 9.44Q15.21 9.07 15.21 8.72L15.21 8.72L15.21 8.72Q15.21 8.36 15.21 7.99L15.21 7.99L15.21 7.99Q15.21 7.79 15.23 7.58L15.23 7.58L15.23 7.58Q15.24 7.43 15.24 7.30L15.24 7.30L15.24 7.30Q15.24 7.17 15.24 7.06L15.24 7.06L15.24 7.06Q15.23 6.99 15.22 6.90L15.22 6.90L15.22 6.90Q15.22 6.80 15.21 6.67L15.21 6.67L15.21 6.67Q15.21 6.60 15.21 6.51L15.21 6.51L15.21 6.51Q15.22 6.41 15.22 6.28L15.22 6.28L15.22 6.28Q15.23 6.19 15.23 6.11L15.23 6.11L15.23 6.11Q15.24 6.04 15.24 5.99L15.24 5.99L15.24 5.84L15.24 5.83L15.24 5.78L15.24 5.78Q15.22 5.61 15.24 5.54L15.24 5.54L15.24 5.54Q15.26 5.49 15.33 5.44L15.33 5.44L15.33 5.44Q15.60 5.30 15.66 5.61L15.66 5.61L15.66 5.61Q15.72 5.84 15.73 6.07L15.73 6.07L15.73 6.07Q15.74 6.29 15.72 6.51L15.72 6.51L15.72 6.51L15.72 6.51Q15.70 6.73 15.71 6.94L15.71 6.94L15.71 6.94Q15.72 7.15 15.70 7.36L15.70 7.36L15.70 7.36Q15.67 7.55 15.66 7.68L15.66 7.68L15.66 7.68Q15.65 7.82 15.64 7.92L15.64 7.92L15.64 7.92Q15.63 8.05 15.63 8.20L15.63 8.20L15.63 8.20Q15.63 8.35 15.63 8.51L15.63 8.51L15.63 8.51Q15.64 8.54 15.64 8.59L15.64 8.59L15.64 8.59Q15.64 8.63 15.64 8.70L15.64 8.70L15.64 8.70Q15.64 8.80 15.64 8.91L15.64 8.91L15.64 8.91Q15.64 9.02 15.65 9.13L15.65 9.13L15.65 9.13Q15.65 9.20 15.65 9.27L15.65 9.27L15.65 9.27Q15.65 9.33 15.65 9.40L15.65 9.40L15.65 9.40Q15.65 9.54 15.64 9.55L15.64 9.55L15.64 9.55Q15.61 9.68 15.44 9.70ZM20.54 9.08L20.54 9.08L20.54 9.08Q20.42 9.23 20.31 9.34L20.31 9.34L20.31 9.34Q20.21 9.45 20.09 9.53L20.09 9.53L20.09 9.53Q19.97 9.60 19.83 9.66L19.83 9.66L19.83 9.66Q19.69 9.71 19.52 9.73L19.52 9.73L19.52 9.73Q19.43 9.74 19.33 9.74L19.33 9.74L19.33 9.74Q19.24 9.75 19.13 9.73L19.13 9.73L19.13 9.73Q18.98 9.72 18.83 9.72L18.83 9.72L18.83 9.72Q18.69 9.72 18.54 9.69L18.54 9.69L18.54 9.69Q18.21 9.61 17.99 9.46L17.99 9.46L17.99 9.46Q17.77 9.31 17.66 9.07L17.66 9.07L17.66 9.07Q17.51 8.74 17.83 8.73L17.83 8.73L17.83 8.73Q17.88 8.73 17.95 8.81L17.95 8.81L17.95 8.81Q18.03 8.89 18.07 8.93L18.07 8.93L18.07 8.93Q18.21 9.07 18.23 9.08L18.23 9.08L18.24 9.08L18.24 9.09L18.24 9.09Q18.57 9.32 19.13 9.32L19.13 9.32L19.13 9.32L19.14 9.32L19.14 9.32Q19.37 9.32 19.74 9.23L19.74 9.23L19.74 9.23Q20.09 9.14 20.21 8.87L20.21 8.87L20.21 8.87Q20.27 8.70 20.21 8.51L20.21 8.51L20.21 8.50L20.21 8.50Q20.04 8.14 19.54 8.02L19.54 8.02L18.70 7.80L18.70 7.80Q18.53 7.76 18.27 7.63L18.27 7.63L18.27 7.63Q18.14 7.56 18.05 7.51L18.05 7.51L18.05 7.51Q17.95 7.45 17.89 7.40L17.89 7.40L17.89 7.40Q17.61 7.19 17.56 6.99L17.56 6.99L17.56 6.99Q17.55 6.95 17.55 6.89L17.55 6.89L17.55 6.89Q17.55 6.83 17.55 6.74L17.55 6.74L17.55 6.74Q17.55 6.64 17.57 6.55L17.57 6.55L17.57 6.55Q17.58 6.46 17.60 6.36L17.60 6.36L17.60 6.36Q17.64 6.04 17.86 5.80L17.86 5.80L17.86 5.80Q17.96 5.69 18.11 5.62L18.11 5.62L18.11 5.62Q18.26 5.55 18.40 5.49L18.40 5.49L18.40 5.49Q18.59 5.40 18.80 5.40L18.80 5.40L18.80 5.40Q19.00 5.39 19.21 5.40L19.21 5.40L19.21 5.40Q19.88 5.42 20.25 5.87L20.25 5.87L20.25 5.87Q20.43 6.08 20.38 6.22L20.38 6.22L20.34 6.26L20.34 6.26Q20.23 6.32 20.08 6.19L20.08 6.19L20.08 6.19Q20.04 6.16 20.00 6.13L20.00 6.13L20.00 6.13Q19.97 6.09 19.93 6.06L19.93 6.06L19.93 6.06Q19.90 6.02 19.84 5.98L19.84 5.98L19.84 5.98Q19.79 5.95 19.72 5.91L19.72 5.91L19.71 5.90L19.69 5.90L19.69 5.90Q19.43 5.82 19.17 5.81L19.17 5.81L19.17 5.81Q18.91 5.80 18.63 5.86L18.63 5.86L18.63 5.86Q18.29 5.93 18.12 6.14L18.12 6.14L18.12 6.14Q17.94 6.34 17.94 6.67L17.94 6.67L17.94 6.69L17.94 6.70L17.94 6.70Q17.97 7.12 18.60 7.30L18.60 7.30L18.80 7.36L19.30 7.53L19.30 7.53Q19.42 7.57 19.54 7.62L19.54 7.62L19.54 7.62Q19.65 7.67 19.78 7.72L19.78 7.72L19.78 7.72Q19.97 7.81 20.14 7.90L20.14 7.90L20.14 7.90Q20.30 7.98 20.44 8.07L20.44 8.07L20.44 8.07Q20.54 8.13 20.59 8.22L20.59 8.22L20.59 8.22Q20.64 8.31 20.65 8.41L20.65 8.41L20.65 8.41Q20.67 8.51 20.67 8.62L20.67 8.62L20.67 8.62Q20.67 8.73 20.64 8.82L20.64 8.82L20.64 8.82Q20.63 8.89 20.60 8.96L20.60 8.96L20.60 8.96Q20.57 9.03 20.54 9.08ZM28.55 9.26L28.55 9.26L28.55 9.26Q28.05 9.71 27.34 9.75L27.34 9.75L27.34 9.75Q26.65 9.78 26.03 9.53L26.03 9.53L26.02 9.52L26.01 9.52L26.01 9.52Q25.91 9.49 25.72 9.33L25.72 9.33L25.72 9.33Q25.53 9.17 25.47 9.08L25.47 9.08L25.47 9.08Q25.37 8.95 25.29 8.78L25.29 8.78L25.29 8.78Q25.21 8.61 25.13 8.45L25.13 8.45L25.13 8.45Q24.98 8.16 24.96 7.95L24.96 7.95L24.96 7.95Q24.96 7.85 24.96 7.71L24.96 7.71L24.96 7.71Q24.96 7.58 24.98 7.41L24.98 7.41L24.98 7.41Q25.04 6.66 25.45 6.02L25.45 6.02L25.45 6.02Q25.48 5.97 25.58 5.89L25.58 5.89L25.58 5.89Q25.68 5.81 25.83 5.73L25.83 5.73L25.83 5.73Q26.14 5.56 26.36 5.49L26.36 5.49L26.36 5.49Q26.50 5.44 26.68 5.42L26.68 5.42L26.68 5.42Q27.09 5.37 27.52 5.42L27.52 5.42L27.52 5.42Q27.95 5.48 28.32 5.69L28.32 5.69L28.32 5.69Q28.38 5.72 28.44 5.77L28.44 5.77L28.44 5.77Q28.51 5.82 28.59 5.89L28.59 5.89L28.59 5.89Q28.77 6.02 28.79 6.15L28.79 6.15L28.79 6.15Q28.79 6.21 28.75 6.27L28.75 6.27L28.75 6.27Q28.67 6.36 28.60 6.36L28.60 6.36L28.60 6.36Q28.52 6.36 28.42 6.30L28.42 6.30L28.42 6.30Q28.33 6.23 28.27 6.19L28.27 6.19L28.27 6.19Q28.16 6.12 28.09 6.07L28.09 6.07L28.09 6.07Q28.01 6.02 28 6.01L28 6.01L28 6.01Q27.65 5.82 27.15 5.82L27.15 5.82L27.15 5.82Q27.04 5.82 26.90 5.83L26.90 5.83L26.90 5.83Q26.76 5.84 26.61 5.87L26.61 5.87L26.59 5.87L26.58 5.88L26.58 5.88Q25.71 6.13 25.45 7.06L25.45 7.06L25.45 7.06Q25.36 7.40 25.41 7.70L25.41 7.70L25.41 7.70Q25.46 8.00 25.55 8.31L25.55 8.31L25.55 8.31Q25.68 8.79 25.98 9.00L25.98 9.00L25.98 9.00Q26.28 9.21 26.74 9.30L26.74 9.30L26.74 9.30L26.74 9.30Q26.87 9.32 26.97 9.32L26.97 9.32L26.97 9.32Q27.08 9.32 27.18 9.30L27.18 9.30L27.18 9.30Q27.28 9.28 27.39 9.26L27.39 9.26L27.39 9.26Q27.49 9.24 27.62 9.23L27.62 9.23L27.62 9.23Q28.10 9.17 28.31 8.88L28.31 8.88L28.31 8.87L28.31 8.87Q28.46 8.64 28.43 8.22L28.43 8.22L28.43 8.22Q28.42 8.00 28.27 7.87L28.27 7.87L28.27 7.87Q28.09 7.70 27.76 7.71L27.76 7.71L27.21 7.73L27.21 7.73Q27.13 7.74 27.06 7.74L27.06 7.74L27.06 7.74Q26.99 7.75 26.93 7.75L26.93 7.75L26.93 7.75Q26.67 7.71 26.71 7.51L26.71 7.51L26.71 7.51Q26.73 7.38 26.90 7.33L26.90 7.33L26.90 7.33Q27.21 7.31 27.50 7.33L27.50 7.33L27.50 7.33Q27.80 7.35 28.12 7.33L28.12 7.33L28.41 7.31L28.41 7.31Q28.61 7.29 28.70 7.38L28.70 7.38L28.70 7.38Q28.81 7.46 28.82 7.66L28.82 7.66L28.82 7.66Q28.84 7.87 28.84 7.98L28.84 7.98L28.84 7.98Q28.84 8.16 28.85 8.36L28.85 8.36L28.85 8.36Q28.85 8.57 28.82 8.74L28.82 8.74L28.82 8.74Q28.77 9.00 28.55 9.26ZM33.31 5.67L33.31 5.67L33.31 5.67Q33.46 5.82 33.54 5.99L33.54 5.99L33.54 5.99Q33.63 6.16 33.71 6.34L33.71 6.34L33.71 6.34Q33.81 6.54 33.77 6.74L33.77 6.74L33.77 6.74Q33.74 6.94 33.55 7.13L33.55 7.13L33.55 7.13Q33.41 7.28 33.07 7.37L33.07 7.37L33.07 7.37Q32.95 7.40 32.81 7.44L32.81 7.44L32.81 7.44Q32.67 7.48 32.61 7.60L32.61 7.60L32.61 7.60Q32.57 7.72 32.63 7.84L32.63 7.84L32.63 7.84Q32.70 7.97 32.74 8.05L32.74 8.05L32.74 8.05Q32.79 8.13 32.81 8.18L32.81 8.18L32.81 8.18Q32.85 8.24 32.90 8.33L32.90 8.33L32.90 8.33Q32.96 8.42 33.03 8.52L33.03 8.52L33.03 8.52Q33.19 8.74 33.36 8.93L33.36 8.93L33.36 8.93Q33.54 9.13 33.71 9.30L33.71 9.30L33.75 9.34L33.75 9.34Q33.90 9.49 33.76 9.63L33.76 9.63L33.76 9.63Q33.60 9.79 33.46 9.64L33.46 9.64L33.46 9.64Q33.34 9.52 33.25 9.43L33.25 9.43L33.25 9.43Q33.16 9.34 33.09 9.26L33.09 9.26L33.09 9.26Q32.92 9.05 32.78 8.83L32.78 8.83L32.78 8.83Q32.68 8.67 32.57 8.53L32.57 8.53L32.57 8.53Q32.46 8.39 32.37 8.23L32.37 8.23L32.37 8.23Q32.09 7.74 31.69 7.58L31.69 7.58L31.69 7.58Q31.26 7.42 31.06 7.70L31.06 7.70L31.06 7.70Q31.00 7.80 31.00 7.92L31.00 7.92L31.00 9.40L31.00 9.49L31.00 9.49Q31.00 9.69 30.79 9.70L30.79 9.70L30.79 9.70Q30.58 9.69 30.58 9.44L30.58 9.44L30.58 9.44Q30.58 9.28 30.59 9.12L30.59 9.12L30.59 9.12Q30.60 8.95 30.60 8.76L30.60 8.76L30.60 8.76Q30.61 8.63 30.60 8.49L30.60 8.49L30.60 8.49Q30.59 8.35 30.59 8.22L30.59 8.22L30.59 8.22Q30.59 8.09 30.60 7.96L30.60 7.96L30.60 7.96Q30.60 7.83 30.60 7.70L30.60 7.70L30.60 7.70Q30.61 7.40 30.58 7.07L30.58 7.07L30.58 7.07Q30.58 6.84 30.59 6.61L30.59 6.61L30.59 6.61Q30.60 6.38 30.60 6.14L30.60 6.14L30.60 6.14Q30.59 6.02 30.59 5.86L30.59 5.86L30.59 5.86Q30.59 5.71 30.63 5.58L30.63 5.58L30.63 5.58Q30.75 5.42 31.21 5.42L31.21 5.42L31.42 5.42L31.42 5.42Q31.67 5.42 31.92 5.44L31.92 5.44L31.92 5.44Q32.17 5.46 32.42 5.45L32.42 5.45L32.42 5.45Q32.98 5.42 33.31 5.67ZM31.39 7.15L31.39 7.15L31.39 7.15Q31.65 7.16 31.85 7.16L31.85 7.16L31.85 7.16Q32.05 7.16 32.18 7.14L32.18 7.14L32.18 7.14Q32.31 7.13 32.47 7.11L32.47 7.11L32.47 7.11Q32.63 7.09 32.83 7.05L32.83 7.05L32.83 7.05Q33.22 6.97 33.33 6.69L33.33 6.69L33.33 6.69Q33.38 6.59 33.37 6.47L33.37 6.47L33.37 6.47Q33.35 6.34 33.29 6.24L33.29 6.24L33.29 6.24Q33.22 6.14 33.12 6.07L33.12 6.07L33.12 6.07Q33.02 6.00 32.91 5.94L32.91 5.94L32.91 5.94Q32.79 5.89 32.68 5.87L32.68 5.87L32.68 5.87Q32.40 5.82 32.11 5.83L32.11 5.83L32.11 5.83Q31.83 5.84 31.54 5.82L31.54 5.82L31.54 5.82Q31.49 5.82 31.44 5.82L31.44 5.82L31.44 5.82Q31.38 5.82 31.33 5.82L31.33 5.82L31.33 5.82Q31.19 5.81 31.11 5.89L31.11 5.89L31.11 5.89Q31.05 5.96 31.06 6.08L31.06 6.08L31.06 6.08Q31.07 6.12 31.07 6.23L31.07 6.23L31.07 6.23Q31.06 6.33 31.05 6.43L31.05 6.43L31.05 6.43Q31.03 6.52 31.02 6.62L31.02 6.62L31.02 6.62Q30.98 6.88 31.08 7.01L31.08 7.01L31.08 7.01Q31.17 7.14 31.39 7.15ZM38.73 5.42L38.73 5.42L38.73 5.42Q38.94 5.41 38.94 5.63L38.94 5.63L38.94 5.63Q38.94 5.91 38.93 6.19L38.93 6.19L38.93 6.19Q38.93 6.46 38.90 6.75L38.90 6.75L38.90 6.75Q38.86 7.01 38.89 7.27L38.89 7.27L38.89 7.27Q38.92 7.53 38.92 7.79L38.92 7.79L38.92 7.84L38.90 8.31L38.90 8.31Q38.88 8.46 38.86 8.57L38.86 8.57L38.86 8.57Q38.84 8.69 38.83 8.76L38.83 8.76L38.81 8.79L38.80 8.84L38.80 8.85L38.80 8.85Q38.78 8.93 38.73 9.01L38.73 9.01L38.73 9.01Q38.67 9.10 38.61 9.18L38.61 9.18L38.61 9.18Q38.54 9.26 38.47 9.32L38.47 9.32L38.47 9.32Q38.39 9.39 38.33 9.45L38.33 9.45L38.33 9.45Q38.21 9.55 38.08 9.61L38.08 9.61L38.08 9.61Q37.94 9.67 37.79 9.70L37.79 9.70L37.79 9.70Q37.64 9.73 37.48 9.74L37.48 9.74L37.48 9.74Q37.33 9.75 37.19 9.75L37.19 9.75L37.19 9.75Q36.93 9.75 36.70 9.69L36.70 9.69L36.70 9.69Q36.46 9.63 36.23 9.50L36.23 9.50L36.23 9.50Q36.22 9.48 36.22 9.47L36.22 9.47L36.22 9.47Q36.20 9.47 36.18 9.45L36.18 9.45L36.18 9.45Q36.17 9.44 36.16 9.43L36.16 9.43L36.16 9.43Q36.13 9.41 36.12 9.40L36.12 9.40L36.12 9.40Q36.11 9.39 36.09 9.37L36.09 9.37L36.09 9.37Q35.75 9.01 35.66 8.47L35.66 8.47L35.66 8.47Q35.62 8.20 35.60 7.95L35.60 7.95L35.60 7.95Q35.59 7.69 35.60 7.44L35.60 7.44L35.60 7.44Q35.61 7.38 35.62 7.32L35.62 7.32L35.62 7.32Q35.62 7.27 35.63 7.21L35.63 7.21L35.63 7.21Q35.64 7.12 35.63 7.05L35.63 7.05L35.63 7.05Q35.63 6.97 35.62 6.90L35.62 6.90L35.62 6.90Q35.58 6.36 35.60 5.63L35.60 5.63L35.60 5.63Q35.61 5.48 35.78 5.42L35.78 5.42L35.78 5.42Q35.92 5.38 36.01 5.45L36.01 5.45L36.01 5.45Q36.07 5.50 36.07 5.57L36.07 5.57L36.07 5.57Q36.07 5.67 36.07 5.82L36.07 5.82L36.07 5.82Q36.07 5.97 36.06 6.17L36.06 6.17L36.06 6.17Q36.06 6.34 36.05 6.51L36.05 6.51L36.05 6.51Q36.03 6.68 36.03 6.84L36.03 6.84L36.03 6.84Q36.03 7.05 36.02 7.24L36.02 7.24L36.02 7.24Q36.00 7.44 36.00 7.64L36.00 7.64L36.00 7.64Q36.00 8.02 36.13 8.50L36.13 8.50L36.13 8.50Q36.14 8.56 36.16 8.61L36.16 8.61L36.16 8.61Q36.18 8.66 36.19 8.72L36.19 8.72L36.19 8.72Q36.29 9.04 36.50 9.16L36.50 9.16L36.50 9.16Q36.66 9.26 37.09 9.28L37.09 9.28L37.09 9.28Q37.15 9.29 37.20 9.30L37.20 9.30L37.20 9.30Q37.26 9.31 37.32 9.31L37.32 9.31L37.32 9.31L37.33 9.31L37.33 9.31Q37.66 9.31 37.91 9.19L37.91 9.19L37.91 9.19Q38.15 9.08 38.32 8.79L38.32 8.79L38.32 8.79Q38.46 8.56 38.46 8.08L38.46 8.08L38.46 8.08Q38.46 7.99 38.46 7.93L38.46 7.93L38.46 7.93Q38.46 7.86 38.47 7.82L38.47 7.82L38.47 7.82Q38.53 7.21 38.45 6.55L38.45 6.55L38.45 6.55Q38.44 6.46 38.47 6.22L38.47 6.22L38.47 6.22Q38.49 6.13 38.49 6.05L38.49 6.05L38.49 6.05Q38.50 5.97 38.50 5.92L38.50 5.92L38.50 5.92Q38.50 5.63 38.54 5.52L38.54 5.52L38.54 5.52Q38.60 5.42 38.73 5.42ZM40.79 9.29L40.79 9.29L40.79 9.29Q40.78 8.87 40.79 8.46L40.79 8.46L40.79 8.46Q40.79 8.04 40.79 7.62L40.79 7.62L40.79 7.38L40.79 7.38Q40.79 7.20 40.78 7.01L40.78 7.01L40.78 7.01Q40.77 6.82 40.78 6.64L40.78 6.64L40.78 6.64Q40.79 6.43 40.79 6.23L40.79 6.23L40.79 6.23Q40.79 6.03 40.80 5.82L40.80 5.82L40.80 5.82Q40.80 5.58 40.91 5.48L40.91 5.48L40.91 5.48Q41.00 5.41 41.23 5.41L41.23 5.41L41.23 5.41Q41.34 5.41 41.43 5.40L41.43 5.40L41.43 5.40Q41.51 5.40 41.58 5.40L41.58 5.40L41.58 5.40Q41.84 5.39 42.11 5.40L42.11 5.40L42.11 5.40Q42.38 5.41 42.64 5.41L42.64 5.41L42.64 5.41Q42.79 5.40 42.93 5.40L42.93 5.40L42.93 5.40Q43.07 5.39 43.21 5.41L43.21 5.41L43.56 5.43L43.56 5.43Q43.62 5.43 43.66 5.43L43.66 5.43L43.66 5.43Q43.71 5.43 43.74 5.45L43.74 5.45L43.74 5.45Q43.89 5.52 43.88 5.66L43.88 5.66L43.88 5.66Q43.87 5.72 43.83 5.76L43.83 5.76L43.83 5.76Q43.79 5.80 43.74 5.82L43.74 5.82L43.74 5.82Q43.69 5.84 43.63 5.84L43.63 5.84L43.63 5.84Q43.58 5.85 43.54 5.85L43.54 5.85L43.54 5.85Q43.12 5.85 42.71 5.83L42.71 5.83L42.71 5.83Q42.67 5.82 42.61 5.82L42.61 5.82L42.61 5.82Q42.55 5.82 42.47 5.82L42.47 5.82L42.08 5.82L42.08 5.82Q41.92 5.82 41.79 5.83L41.79 5.83L41.79 5.83Q41.67 5.83 41.59 5.83L41.59 5.83L41.59 5.83Q41.47 5.84 41.40 5.86L41.40 5.86L41.40 5.86Q41.32 5.89 41.29 5.94L41.29 5.94L41.29 5.94Q41.23 6.02 41.25 6.15L41.25 6.15L41.25 6.15Q41.25 6.20 41.25 6.24L41.25 6.24L41.25 6.24Q41.25 6.28 41.24 6.32L41.24 6.32L41.24 6.32Q41.23 6.40 41.22 6.49L41.22 6.49L41.22 6.49Q41.21 6.58 41.22 6.69L41.22 6.69L41.22 6.69Q41.22 6.88 41.37 7.01L41.37 7.01L41.37 7.01Q41.49 7.12 41.82 7.10L41.82 7.10L41.82 7.10Q41.96 7.10 42.10 7.08L42.10 7.08L42.10 7.08Q42.24 7.06 42.38 7.07L42.38 7.07L42.38 7.07Q42.44 7.07 42.54 7.07L42.54 7.07L42.54 7.07Q42.64 7.08 42.78 7.07L42.78 7.07L42.78 7.07Q43.05 7.06 43.15 7.16L43.15 7.16L43.15 7.16Q43.18 7.21 43.18 7.32L43.18 7.32L43.18 7.32Q43.16 7.44 42.98 7.47L42.98 7.47L42.98 7.47Q42.83 7.50 42.73 7.50L42.73 7.50L42.73 7.50Q42.61 7.51 42.49 7.50L42.49 7.50L42.49 7.50Q42.37 7.50 42.25 7.51L42.25 7.51L42.25 7.51Q42.10 7.52 41.94 7.51L41.94 7.51L41.94 7.51Q41.78 7.51 41.61 7.49L41.61 7.49L41.61 7.49Q41.59 7.49 41.56 7.49L41.56 7.49L41.56 7.49Q41.54 7.49 41.51 7.49L41.51 7.49L41.51 7.49L41.51 7.49Q41.43 7.47 41.36 7.52L41.36 7.52L41.36 7.52Q41.23 7.59 41.22 7.78L41.22 7.78L41.22 7.78Q41.21 7.96 41.22 8.09L41.22 8.09L41.22 8.09Q41.23 8.16 41.23 8.22L41.23 8.22L41.23 8.22Q41.23 8.29 41.23 8.33L41.23 8.33L41.23 8.33Q41.21 8.44 41.20 8.53L41.20 8.53L41.20 8.53Q41.19 8.63 41.18 8.74L41.18 8.74L41.18 8.74Q41.16 9.00 41.25 9.13L41.25 9.13L41.25 9.13Q41.36 9.28 41.65 9.28L41.65 9.28L41.65 9.28Q41.88 9.28 42.11 9.27L42.11 9.27L42.11 9.27Q42.34 9.26 42.57 9.25L42.57 9.25L42.57 9.25Q42.79 9.24 43.01 9.26L43.01 9.26L43.01 9.26Q43.23 9.28 43.45 9.28L43.45 9.28L43.45 9.28Q43.53 9.28 43.67 9.28L43.67 9.28L43.67 9.28Q43.80 9.28 43.88 9.32L43.88 9.32L43.88 9.32Q43.95 9.36 43.96 9.44L43.96 9.44L43.96 9.44Q44.03 9.69 43.74 9.70L43.74 9.70L43.74 9.70Q43.29 9.72 42.86 9.71L42.86 9.71L42.86 9.71Q42.42 9.71 41.99 9.71L41.99 9.71L41.99 9.71Q41.96 9.71 41.94 9.72L41.94 9.72L41.94 9.72Q41.91 9.72 41.89 9.72L41.89 9.72L41.89 9.72Q41.73 9.72 41.62 9.72L41.62 9.72L41.62 9.72Q41.51 9.72 41.43 9.71L41.43 9.71L41.43 9.71Q41.38 9.71 41.32 9.71L41.32 9.71L41.32 9.71Q41.25 9.71 41.17 9.70L41.17 9.70L41.17 9.70Q41.10 9.69 41.06 9.69L41.06 9.69L41.06 9.69Q41.02 9.68 41.00 9.67L41.00 9.67L41.00 9.67Q40.79 9.61 40.79 9.29ZM49.06 5.56L49.06 5.56L49.06 5.56Q49.13 5.54 49.29 5.58L49.29 5.58L49.29 5.58Q49.44 5.62 49.48 5.68L49.48 5.68L49.48 5.68Q49.48 5.69 49.49 5.69L49.49 5.69L49.49 5.69Q49.51 5.89 49.51 6.28L49.51 6.28L49.51 6.79L49.51 6.79Q49.51 7 49.52 7.19L49.52 7.19L49.52 7.19Q49.53 7.38 49.51 7.58L49.51 7.58L49.51 7.58Q49.50 7.78 49.49 7.97L49.49 7.97L49.49 7.97Q49.47 8.16 49.49 8.35L49.49 8.35L49.49 8.35Q49.49 8.52 49.51 8.68L49.51 8.68L49.51 8.68Q49.52 8.84 49.51 9.00L49.51 9.00L49.49 9.32L49.49 9.32Q49.47 9.55 49.44 9.60L49.44 9.60L49.44 9.60Q49.36 9.71 49.27 9.71L49.27 9.71L49.27 9.71Q49.04 9.69 49.03 9.39L49.03 9.39L49.03 9.39Q49.01 8.95 49.04 8.51L49.04 8.51L49.04 8.51Q49.06 8.07 49.03 7.62L49.03 7.62L49.01 7.32L49.01 7.32Q48.99 7.10 48.82 7.08L48.82 7.08L48.82 7.08Q48.75 7.08 48.71 7.10L48.71 7.10L48.71 7.10Q48.66 7.13 48.62 7.18L48.62 7.18L48.62 7.18Q48.59 7.23 48.57 7.28L48.57 7.28L48.57 7.28Q48.55 7.34 48.53 7.39L48.53 7.39L48.53 7.39Q48.47 7.53 48.43 7.64L48.43 7.64L48.43 7.64Q48.38 7.75 48.35 7.83L48.35 7.83L48.35 7.83Q48.29 7.97 48.20 8.12L48.20 8.12L48.20 8.12Q48.11 8.26 48.04 8.40L48.04 8.40L48.04 8.40Q47.96 8.55 47.89 8.69L47.89 8.69L47.89 8.69Q47.82 8.82 47.75 8.96L47.75 8.96L47.75 8.96Q47.70 9.04 47.50 9.03L47.50 9.03L47.50 9.03Q47.35 9.03 47.28 8.95L47.28 8.95L47.28 8.95Q47.23 8.89 47.17 8.77L47.17 8.77L47.17 8.77Q47.11 8.66 47.04 8.49L47.04 8.49L47.04 8.49Q46.98 8.37 46.94 8.29L46.94 8.29L46.94 8.29Q46.89 8.20 46.86 8.15L46.86 8.15L46.86 8.15Q46.83 8.10 46.78 8.00L46.78 8.00L46.78 8.00Q46.73 7.90 46.66 7.74L46.66 7.74L46.47 7.35L46.47 7.35Q46.44 7.28 46.41 7.25L46.41 7.25L46.41 7.25Q46.39 7.21 46.38 7.20L46.38 7.20L46.38 7.20Q46.28 7.07 46.15 7.10L46.15 7.10L46.15 7.10Q45.98 7.12 45.98 7.40L45.98 7.40L45.98 7.40Q45.98 7.84 45.99 8.23L45.99 8.23L45.99 8.23Q45.99 8.61 46.01 8.96L46.01 8.96L46.01 8.96Q46.01 9.01 46.01 9.10L46.01 9.10L46.01 9.10Q46.01 9.18 46.00 9.30L46.00 9.30L46.00 9.30Q45.99 9.55 45.94 9.61L45.94 9.61L45.94 9.61Q45.88 9.71 45.74 9.70L45.74 9.70L45.74 9.70Q45.55 9.69 45.55 9.43L45.55 9.43L45.55 9.43Q45.55 9.13 45.54 8.82L45.54 8.82L45.54 8.82Q45.53 8.51 45.53 8.18L45.53 8.18L45.53 8.18Q45.52 8.03 45.52 7.90L45.52 7.90L45.52 7.90Q45.53 7.77 45.54 7.68L45.54 7.68L45.54 7.68Q45.56 7.51 45.56 7.38L45.56 7.38L45.56 7.38Q45.57 7.25 45.56 7.16L45.56 7.16L45.56 7.16Q45.55 7.05 45.54 6.93L45.54 6.93L45.54 6.93Q45.53 6.80 45.51 6.66L45.51 6.66L45.51 6.66Q45.49 6.46 45.51 6.18L45.51 6.18L45.51 6.18Q45.54 5.89 45.60 5.70L45.60 5.70L45.60 5.70Q45.62 5.62 45.64 5.58L45.64 5.58L45.64 5.58Q45.83 5.38 46.01 5.63L46.01 5.63L46.01 5.63Q46.09 5.73 46.16 5.84L46.16 5.84L46.16 5.84Q46.22 5.95 46.30 6.06L46.30 6.06L46.30 6.06Q46.41 6.22 46.49 6.41L46.49 6.41L46.49 6.41Q46.57 6.60 46.66 6.77L46.66 6.77L46.66 6.77Q46.74 6.95 46.80 7.09L46.80 7.09L46.80 7.09Q46.87 7.22 46.92 7.30L46.92 7.30L46.95 7.34L46.95 7.34Q47.02 7.46 47.08 7.58L47.08 7.58L47.08 7.58Q47.13 7.70 47.19 7.81L47.19 7.81L47.19 7.81Q47.34 8.13 47.50 8.14L47.50 8.14L47.50 8.14Q47.65 8.14 47.72 8.00L47.72 8.00L47.72 8.00Q47.76 7.93 47.79 7.86L47.79 7.86L47.79 7.86Q47.82 7.79 47.84 7.73L47.84 7.73L47.84 7.73Q47.89 7.62 47.95 7.49L47.95 7.49L47.95 7.49Q48.02 7.36 48.09 7.23L48.09 7.23L48.09 7.23Q48.23 6.99 48.38 6.75L48.38 6.75L48.38 6.75Q48.54 6.51 48.66 6.24L48.66 6.24L48.66 6.24Q48.69 6.16 48.75 6.06L48.75 6.06L48.75 6.06Q48.80 5.97 48.86 5.87L48.86 5.87L48.99 5.67L48.99 5.67Q49 5.65 49.02 5.63L49.02 5.63L49.02 5.63Q49.03 5.60 49.06 5.56ZM51.40 9.29L51.40 9.29L51.40 9.29Q51.39 8.87 51.40 8.46L51.40 8.46L51.40 8.46Q51.40 8.04 51.40 7.62L51.40 7.62L51.40 7.38L51.40 7.38Q51.40 7.20 51.39 7.01L51.39 7.01L51.39 7.01Q51.38 6.82 51.39 6.64L51.39 6.64L51.39 6.64Q51.40 6.43 51.40 6.23L51.40 6.23L51.40 6.23Q51.40 6.03 51.41 5.82L51.41 5.82L51.41 5.82Q51.41 5.58 51.52 5.48L51.52 5.48L51.52 5.48Q51.61 5.41 51.84 5.41L51.84 5.41L51.84 5.41Q51.95 5.41 52.04 5.40L52.04 5.40L52.04 5.40Q52.12 5.40 52.19 5.40L52.19 5.40L52.19 5.40Q52.45 5.39 52.72 5.40L52.72 5.40L52.72 5.40Q52.99 5.41 53.25 5.41L53.25 5.41L53.25 5.41Q53.40 5.40 53.54 5.40L53.54 5.40L53.54 5.40Q53.68 5.39 53.82 5.41L53.82 5.41L54.17 5.43L54.17 5.43Q54.23 5.43 54.27 5.43L54.27 5.43L54.27 5.43Q54.32 5.43 54.35 5.45L54.35 5.45L54.35 5.45Q54.50 5.52 54.49 5.66L54.49 5.66L54.49 5.66Q54.48 5.72 54.44 5.76L54.44 5.76L54.44 5.76Q54.40 5.80 54.35 5.82L54.35 5.82L54.35 5.82Q54.30 5.84 54.24 5.84L54.24 5.84L54.24 5.84Q54.19 5.85 54.15 5.85L54.15 5.85L54.15 5.85Q53.73 5.85 53.32 5.83L53.32 5.83L53.32 5.83Q53.28 5.82 53.22 5.82L53.22 5.82L53.22 5.82Q53.16 5.82 53.08 5.82L53.08 5.82L52.68 5.82L52.68 5.82Q52.53 5.82 52.40 5.83L52.40 5.83L52.40 5.83Q52.28 5.83 52.20 5.83L52.20 5.83L52.20 5.83Q52.08 5.84 52.01 5.86L52.01 5.86L52.01 5.86Q51.93 5.89 51.90 5.94L51.90 5.94L51.90 5.94Q51.84 6.02 51.86 6.15L51.86 6.15L51.86 6.15Q51.86 6.20 51.86 6.24L51.86 6.24L51.86 6.24Q51.86 6.28 51.85 6.32L51.85 6.32L51.85 6.32Q51.84 6.40 51.83 6.49L51.83 6.49L51.83 6.49Q51.82 6.58 51.83 6.69L51.83 6.69L51.83 6.69Q51.83 6.88 51.98 7.01L51.98 7.01L51.98 7.01Q52.10 7.12 52.42 7.10L52.42 7.10L52.42 7.10Q52.57 7.10 52.71 7.08L52.71 7.08L52.71 7.08Q52.85 7.06 52.99 7.07L52.99 7.07L52.99 7.07Q53.05 7.07 53.15 7.07L53.15 7.07L53.15 7.07Q53.25 7.08 53.39 7.07L53.39 7.07L53.39 7.07Q53.66 7.06 53.76 7.16L53.76 7.16L53.76 7.16Q53.79 7.21 53.79 7.32L53.79 7.32L53.79 7.32Q53.76 7.44 53.59 7.47L53.59 7.47L53.59 7.47Q53.44 7.50 53.34 7.50L53.34 7.50L53.34 7.50Q53.22 7.51 53.10 7.50L53.10 7.50L53.10 7.50Q52.98 7.50 52.86 7.51L52.86 7.51L52.86 7.51Q52.71 7.52 52.55 7.51L52.55 7.51L52.55 7.51Q52.39 7.51 52.22 7.49L52.22 7.49L52.22 7.49Q52.20 7.49 52.17 7.49L52.17 7.49L52.17 7.49Q52.14 7.49 52.12 7.49L52.12 7.49L52.12 7.49L52.12 7.49Q52.04 7.47 51.97 7.52L51.97 7.52L51.97 7.52Q51.84 7.59 51.83 7.78L51.83 7.78L51.83 7.78Q51.82 7.96 51.83 8.09L51.83 8.09L51.83 8.09Q51.84 8.16 51.84 8.22L51.84 8.22L51.84 8.22Q51.84 8.29 51.84 8.33L51.84 8.33L51.84 8.33Q51.82 8.44 51.81 8.53L51.81 8.53L51.81 8.53Q51.80 8.63 51.79 8.74L51.79 8.74L51.79 8.74Q51.77 9.00 51.86 9.13L51.86 9.13L51.86 9.13Q51.97 9.28 52.26 9.28L52.26 9.28L52.26 9.28Q52.49 9.28 52.72 9.27L52.72 9.27L52.72 9.27Q52.95 9.26 53.18 9.25L53.18 9.25L53.18 9.25Q53.40 9.24 53.62 9.26L53.62 9.26L53.62 9.26Q53.84 9.28 54.06 9.28L54.06 9.28L54.06 9.28Q54.14 9.28 54.28 9.28L54.28 9.28L54.28 9.28Q54.41 9.28 54.49 9.32L54.49 9.32L54.49 9.32Q54.56 9.36 54.56 9.44L54.56 9.44L54.56 9.44Q54.64 9.69 54.35 9.70L54.35 9.70L54.35 9.70Q53.90 9.72 53.47 9.71L53.47 9.71L53.47 9.71Q53.03 9.71 52.60 9.71L52.60 9.71L52.60 9.71Q52.57 9.71 52.54 9.72L52.54 9.72L52.54 9.72Q52.52 9.72 52.50 9.72L52.50 9.72L52.50 9.72Q52.34 9.72 52.23 9.72L52.23 9.72L52.23 9.72Q52.12 9.72 52.04 9.71L52.04 9.71L52.04 9.71Q51.99 9.71 51.93 9.71L51.93 9.71L51.93 9.71Q51.86 9.71 51.78 9.70L51.78 9.70L51.78 9.70Q51.71 9.69 51.67 9.69L51.67 9.69L51.67 9.69Q51.63 9.68 51.60 9.67L51.60 9.67L51.60 9.67Q51.40 9.61 51.40 9.29ZM58.81 5.67L58.81 5.67L58.81 5.67Q58.95 5.82 59.04 5.99L59.04 5.99L59.04 5.99Q59.12 6.16 59.21 6.34L59.21 6.34L59.21 6.34Q59.31 6.54 59.27 6.74L59.27 6.74L59.27 6.74Q59.23 6.94 59.05 7.13L59.05 7.13L59.05 7.13Q58.91 7.28 58.57 7.37L58.57 7.37L58.57 7.37Q58.45 7.40 58.31 7.44L58.31 7.44L58.31 7.44Q58.17 7.48 58.11 7.60L58.11 7.60L58.11 7.60Q58.07 7.72 58.13 7.84L58.13 7.84L58.13 7.84Q58.20 7.97 58.24 8.05L58.24 8.05L58.24 8.05Q58.28 8.13 58.31 8.18L58.31 8.18L58.31 8.18Q58.34 8.24 58.40 8.33L58.40 8.33L58.40 8.33Q58.45 8.42 58.53 8.52L58.53 8.52L58.53 8.52Q58.69 8.74 58.86 8.93L58.86 8.93L58.86 8.93Q59.04 9.13 59.21 9.30L59.21 9.30L59.25 9.34L59.25 9.34Q59.40 9.49 59.25 9.63L59.25 9.63L59.25 9.63Q59.10 9.79 58.95 9.64L58.95 9.64L58.95 9.64Q58.84 9.52 58.75 9.43L58.75 9.43L58.75 9.43Q58.66 9.34 58.58 9.26L58.58 9.26L58.58 9.26Q58.42 9.05 58.28 8.83L58.28 8.83L58.28 8.83Q58.17 8.67 58.07 8.53L58.07 8.53L58.07 8.53Q57.96 8.39 57.87 8.23L57.87 8.23L57.87 8.23Q57.59 7.74 57.19 7.58L57.19 7.58L57.19 7.58Q56.76 7.42 56.56 7.70L56.56 7.70L56.56 7.70Q56.50 7.80 56.50 7.92L56.50 7.92L56.50 9.40L56.50 9.49L56.50 9.49Q56.50 9.69 56.29 9.70L56.29 9.70L56.29 9.70Q56.08 9.69 56.08 9.44L56.08 9.44L56.08 9.44Q56.08 9.28 56.09 9.12L56.09 9.12L56.09 9.12Q56.10 8.95 56.10 8.76L56.10 8.76L56.10 8.76Q56.11 8.63 56.10 8.49L56.10 8.49L56.10 8.49Q56.09 8.35 56.09 8.22L56.09 8.22L56.09 8.22Q56.09 8.09 56.10 7.96L56.10 7.96L56.10 7.96Q56.10 7.83 56.10 7.70L56.10 7.70L56.10 7.70Q56.11 7.40 56.08 7.07L56.08 7.07L56.08 7.07Q56.08 6.84 56.09 6.61L56.09 6.61L56.09 6.61Q56.10 6.38 56.10 6.14L56.10 6.14L56.10 6.14Q56.09 6.02 56.09 5.86L56.09 5.86L56.09 5.86Q56.09 5.71 56.13 5.58L56.13 5.58L56.13 5.58Q56.25 5.42 56.71 5.42L56.71 5.42L56.92 5.42L56.92 5.42Q57.17 5.42 57.42 5.44L57.42 5.44L57.42 5.44Q57.67 5.46 57.91 5.45L57.91 5.45L57.91 5.45Q58.48 5.42 58.81 5.67ZM56.89 7.15L56.89 7.15L56.89 7.15Q57.15 7.16 57.35 7.16L57.35 7.16L57.35 7.16Q57.54 7.16 57.68 7.14L57.68 7.14L57.68 7.14Q57.81 7.13 57.97 7.11L57.97 7.11L57.97 7.11Q58.13 7.09 58.32 7.05L58.32 7.05L58.32 7.05Q58.71 6.97 58.83 6.69L58.83 6.69L58.83 6.69Q58.88 6.59 58.86 6.47L58.86 6.47L58.86 6.47Q58.85 6.34 58.79 6.24L58.79 6.24L58.79 6.24Q58.72 6.14 58.62 6.07L58.62 6.07L58.62 6.07Q58.52 6.00 58.41 5.94L58.41 5.94L58.41 5.94Q58.29 5.89 58.18 5.87L58.18 5.87L58.18 5.87Q57.89 5.82 57.61 5.83L57.61 5.83L57.61 5.83Q57.33 5.84 57.04 5.82L57.04 5.82L57.04 5.82Q56.98 5.82 56.93 5.82L56.93 5.82L56.93 5.82Q56.88 5.82 56.83 5.82L56.83 5.82L56.83 5.82Q56.68 5.81 56.61 5.89L56.61 5.89L56.61 5.89Q56.55 5.96 56.56 6.08L56.56 6.08L56.56 6.08Q56.57 6.12 56.57 6.23L56.57 6.23L56.57 6.23Q56.56 6.33 56.54 6.43L56.54 6.43L56.54 6.43Q56.53 6.52 56.52 6.62L56.52 6.62L56.52 6.62Q56.48 6.88 56.58 7.01L56.58 7.01L56.58 7.01Q56.67 7.14 56.89 7.15Z"></path></g><!----><!----></svg>