<svg xmlns="http://www.w3.org/2000/svg" xmlns:xlink="http://www.w3.org/1999/xlink" version="1.0" x="0px" y="0px" viewBox="0 0 50 50" enable-background="new 0 0 50 50" xml:space="preserve"><g><path fill="#000000" d="M28.953,12.623c0,0-3.641-8.842,5.35-11.591C36.754,9.354,30.512,11.806,28.953,12.623z"></path><path fill="#000000" d="M29.691,34.727c0,0,4.375-1.477,5.418,2.943C31.021,38.59,30.035,35.504,29.691,34.727z"></path><path fill="#000000" d="M16.695,22.716c0,0-9.272-1.514-6.936-10.451C17.984,14.505,16.817,20.989,16.695,22.716z"></path><path fill="#000000" d="M32.41,28.414c-4.193,0.706-6.717,3.079-6.719,3.08c0.77-3.909,1.76-6.55,2.206-7.626   c3.055-0.57,10.352-2.229,10.271-12.682c-10.406,0.188-11.143,8.994-11.102,11.904c-1.237,1.697-2.196,3.707-2.94,5.83   c-1.283-3.52-1.49-7-1.508-8.667c1.955-1.983,6.456-6.933,1.053-14.563c-6.805,4.924-4.248,11.207-2.566,13.9   C20.464,28.407,23.324,32,23.324,32h0.002c-0.266,1-0.492,1.779-0.686,2.774c-0.004-0.005-2.012-3.212-5.094-5.116   c-1.158-2.195-4.041-6.902-11.471-4.588c2.193,6.79,7.732,6.328,10.385,5.678c0.002,0.002,4.678,2.908,5.686,6.851   c-0.699,5.218-0.551,9.435-0.551,9.435c0,1.934,3.195,2.151,3.195-0.449c-0.318-4.706-0.063-8.839,0.424-12.265   c2.44-3.273,7.975-4.317,7.975-4.317l0,0c6.025,4.43,11.188-1.902,11.188-1.902C42.986,27.165,38.205,23.144,32.41,28.414z"></path></g></svg>